<?xml version="1.0" encoding="UTF-8" standalone="no"?>
<!DOCTYPE svg PUBLIC "-//W3C//DTD SVG 1.1//EN"
 "http://www.w3.org/Graphics/SVG/1.1/DTD/svg11.dtd">
<!-- Generated by graphviz version 2.38.0 (20140413.2041)
 -->
<!-- Title: controllers_diagram Pages: 1 -->
<svg width="768pt" height="637pt"
 viewBox="0.00 0.00 767.88 637.25" xmlns="http://www.w3.org/2000/svg" xmlns:xlink="http://www.w3.org/1999/xlink">
<g id="graph0" class="graph" transform="scale(1 1) rotate(0) translate(280.195 311.071)">
<title>controllers_diagram</title>
<polygon fill="white" stroke="none" points="-280.195,326.178 -280.195,-311.071 487.688,-311.071 487.688,326.178 -280.195,326.178"/>
<!-- _diagram_info -->
<g id="node1" class="node"><title>_diagram_info</title>
<text text-anchor="start" x="284.312" y="216.9" font-family="Times,serif" font-size="13.00">Controllers diagram</text>
<text text-anchor="start" x="284.312" y="229.9" font-family="Times,serif" font-size="13.00">Date: Jul 22 2014 &#45; 13:43</text>
<text text-anchor="start" x="284.312" y="242.9" font-family="Times,serif" font-size="13.00">Migration version: 20140722174054</text>
<text text-anchor="start" x="284.312" y="255.9" font-family="Times,serif" font-size="13.00">Generated by RailRoady 1.1.1</text>
<text text-anchor="start" x="284.312" y="268.9" font-family="Times,serif" font-size="13.00">http://railroady.prestonlee.com</text>
</g>
<!-- ApplicationController -->
<g id="node2" class="node"><title>ApplicationController</title>
<path fill="none" stroke="black" d="M-77.6052,38.1066C-77.6052,38.1066 38.0364,38.1066 38.0364,38.1066 44.0364,38.1066 50.0364,32.1066 50.0364,26.1066 50.0364,26.1066 50.0364,-55.8934 50.0364,-55.8934 50.0364,-61.8934 44.0364,-67.8934 38.0364,-67.8934 38.0364,-67.8934 -77.6052,-67.8934 -77.6052,-67.8934 -83.6052,-67.8934 -89.6052,-61.8934 -89.6052,-55.8934 -89.6052,-55.8934 -89.6052,26.1066 -89.6052,26.1066 -89.6052,32.1066 -83.6052,38.1066 -77.6052,38.1066"/>
<text text-anchor="middle" x="-19.7844" y="-52.6934" font-family="Times,serif" font-size="14.00">ApplicationController</text>
<polyline fill="none" stroke="black" points="-89.6052,-45.8934 50.0364,-45.8934 "/>
<polyline fill="none" stroke="black" points="-89.6052,-21.8934 50.0364,-21.8934 "/>
<polyline fill="none" stroke="black" points="-89.6052,2.1066 50.0364,2.1066 "/>
<text text-anchor="start" x="-81.6052" y="17.3066" font-family="Times,serif" font-size="14.00">_layout</text>
<text text-anchor="start" x="-81.6052" y="31.3066" font-family="Times,serif" font-size="14.00">current_user</text>
</g>
<!-- BooksController -->
<g id="node3" class="node"><title>BooksController</title>
<path fill="none" stroke="black" d="M126.144,21.1487C126.144,21.1487 211.475,21.1487 211.475,21.1487 217.475,21.1487 223.475,15.1487 223.475,9.14871 223.475,9.14871 223.475,-56.8513 223.475,-56.8513 223.475,-62.8513 217.475,-68.8513 211.475,-68.8513 211.475,-68.8513 126.144,-68.8513 126.144,-68.8513 120.144,-68.8513 114.144,-62.8513 114.144,-56.8513 114.144,-56.8513 114.144,9.14871 114.144,9.14871 114.144,15.1487 120.144,21.1487 126.144,21.1487"/>
<text text-anchor="middle" x="168.81" y="-53.6513" font-family="Times,serif" font-size="14.00">BooksController</text>
<polyline fill="none" stroke="black" points="114.144,-46.8513 223.475,-46.8513 "/>
<text text-anchor="start" x="122.144" y="-31.6513" font-family="Times,serif" font-size="14.00">show</text>
<polyline fill="none" stroke="black" points="114.144,-24.8513 223.475,-24.8513 "/>
<polyline fill="none" stroke="black" points="114.144,-0.851294 223.475,-0.851294 "/>
<text text-anchor="start" x="122.144" y="14.3487" font-family="Times,serif" font-size="14.00">_layout</text>
</g>
<!-- ApplicationController&#45;&gt;BooksController -->
<g id="edge1" class="edge"><title>ApplicationController&#45;&gt;BooksController</title>
<path fill="none" stroke="black" d="M50.1731,-18.2163C71.2435,-19.2171 94.0543,-20.3005 113.992,-21.2475"/>
</g>
<!-- GroupsController -->
<g id="node4" class="node"><title>GroupsController</title>
<path fill="none" stroke="black" d="M-221.689,321.678C-221.689,321.678 -86.6338,321.678 -86.6338,321.678 -80.6338,321.678 -74.6338,315.678 -74.6338,309.678 -74.6338,309.678 -74.6338,89.6777 -74.6338,89.6777 -74.6338,83.6777 -80.6338,77.6777 -86.6338,77.6777 -86.6338,77.6777 -221.689,77.6777 -221.689,77.6777 -227.689,77.6777 -233.689,83.6777 -233.689,89.6777 -233.689,89.6777 -233.689,309.678 -233.689,309.678 -233.689,315.678 -227.689,321.678 -221.689,321.678"/>
<text text-anchor="middle" x="-154.162" y="92.8777" font-family="Times,serif" font-size="14.00">GroupsController</text>
<polyline fill="none" stroke="black" points="-233.689,99.6777 -74.6338,99.6777 "/>
<text text-anchor="start" x="-225.689" y="114.878" font-family="Times,serif" font-size="14.00">autocomplete_book_title</text>
<text text-anchor="start" x="-225.689" y="128.878" font-family="Times,serif" font-size="14.00">autocomplete_user_name</text>
<text text-anchor="start" x="-225.689" y="142.878" font-family="Times,serif" font-size="14.00">create</text>
<text text-anchor="start" x="-225.689" y="156.878" font-family="Times,serif" font-size="14.00">displaybooksearch</text>
<text text-anchor="start" x="-225.689" y="170.878" font-family="Times,serif" font-size="14.00">displayusersearch</text>
<text text-anchor="start" x="-225.689" y="184.878" font-family="Times,serif" font-size="14.00">finish_book</text>
<text text-anchor="start" x="-225.689" y="198.878" font-family="Times,serif" font-size="14.00">list</text>
<text text-anchor="start" x="-225.689" y="212.878" font-family="Times,serif" font-size="14.00">new</text>
<text text-anchor="start" x="-225.689" y="226.878" font-family="Times,serif" font-size="14.00">searchbooks</text>
<text text-anchor="start" x="-225.689" y="240.878" font-family="Times,serif" font-size="14.00">searchusers</text>
<text text-anchor="start" x="-225.689" y="254.878" font-family="Times,serif" font-size="14.00">show</text>
<polyline fill="none" stroke="black" points="-233.689,261.678 -74.6338,261.678 "/>
<polyline fill="none" stroke="black" points="-233.689,285.678 -74.6338,285.678 "/>
<text text-anchor="start" x="-225.689" y="300.878" font-family="Times,serif" font-size="14.00">_layout</text>
<text text-anchor="start" x="-225.689" y="314.878" font-family="Times,serif" font-size="14.00">note_display</text>
</g>
<!-- ApplicationController&#45;&gt;GroupsController -->
<g id="edge2" class="edge"><title>ApplicationController&#45;&gt;GroupsController</title>
<path fill="none" stroke="black" d="M-53.0013,38.1467C-60.6179,50.3087 -69.0249,63.7329 -77.6407,77.4905"/>
</g>
<!-- NotesController -->
<g id="node5" class="node"><title>NotesController</title>
<path fill="none" stroke="black" d="M-244.027,-180.276C-244.027,-180.276 -161.82,-180.276 -161.82,-180.276 -155.82,-180.276 -149.82,-186.276 -149.82,-192.276 -149.82,-192.276 -149.82,-286.276 -149.82,-286.276 -149.82,-292.276 -155.82,-298.276 -161.82,-298.276 -161.82,-298.276 -244.027,-298.276 -244.027,-298.276 -250.027,-298.276 -256.027,-292.276 -256.027,-286.276 -256.027,-286.276 -256.027,-192.276 -256.027,-192.276 -256.027,-186.276 -250.027,-180.276 -244.027,-180.276"/>
<text text-anchor="middle" x="-202.924" y="-283.076" font-family="Times,serif" font-size="14.00">NotesController</text>
<polyline fill="none" stroke="black" points="-256.027,-276.276 -149.82,-276.276 "/>
<text text-anchor="start" x="-248.027" y="-261.076" font-family="Times,serif" font-size="14.00">create</text>
<text text-anchor="start" x="-248.027" y="-247.076" font-family="Times,serif" font-size="14.00">destroy</text>
<polyline fill="none" stroke="black" points="-256.027,-240.276 -149.82,-240.276 "/>
<polyline fill="none" stroke="black" points="-256.027,-216.276 -149.82,-216.276 "/>
<text text-anchor="start" x="-248.027" y="-201.076" font-family="Times,serif" font-size="14.00">_layout</text>
<text text-anchor="start" x="-248.027" y="-187.076" font-family="Times,serif" font-size="14.00">note_params</text>
</g>
<!-- ApplicationController&#45;&gt;NotesController -->
<g id="edge3" class="edge"><title>ApplicationController&#45;&gt;NotesController</title>
<path fill="none" stroke="black" d="M-63.1859,-68.0689C-90.6874,-101.764 -126.292,-145.387 -154.679,-180.166"/>
</g>
<!-- RequestsController -->
<g id="node6" class="node"><title>RequestsController</title>
<path fill="none" stroke="black" d="M112.995,-188.571C112.995,-188.571 213.092,-188.571 213.092,-188.571 219.092,-188.571 225.092,-194.571 225.092,-200.571 225.092,-200.571 225.092,-294.571 225.092,-294.571 225.092,-300.571 219.092,-306.571 213.092,-306.571 213.092,-306.571 112.995,-306.571 112.995,-306.571 106.995,-306.571 100.995,-300.571 100.995,-294.571 100.995,-294.571 100.995,-200.571 100.995,-200.571 100.995,-194.571 106.995,-188.571 112.995,-188.571"/>
<text text-anchor="middle" x="163.044" y="-291.371" font-family="Times,serif" font-size="14.00">RequestsController</text>
<polyline fill="none" stroke="black" points="100.995,-284.571 225.092,-284.571 "/>
<text text-anchor="start" x="108.995" y="-269.371" font-family="Times,serif" font-size="14.00">confirm</text>
<text text-anchor="start" x="108.995" y="-255.371" font-family="Times,serif" font-size="14.00">create</text>
<text text-anchor="start" x="108.995" y="-241.371" font-family="Times,serif" font-size="14.00">destroy</text>
<polyline fill="none" stroke="black" points="100.995,-234.571 225.092,-234.571 "/>
<polyline fill="none" stroke="black" points="100.995,-210.571 225.092,-210.571 "/>
<text text-anchor="start" x="108.995" y="-195.371" font-family="Times,serif" font-size="14.00">_layout</text>
</g>
<!-- ApplicationController&#45;&gt;RequestsController -->
<g id="edge4" class="edge"><title>ApplicationController&#45;&gt;RequestsController</title>
<path fill="none" stroke="black" d="M21.9309,-67.9826C50.0701,-103.794 87.236,-151.094 116.362,-188.161"/>
</g>
<!-- SessionsController -->
<g id="node7" class="node"><title>SessionsController</title>
<path fill="none" stroke="black" d="M-71.2415,-196.132C-71.2415,-196.132 26.5378,-196.132 26.5378,-196.132 32.5378,-196.132 38.5378,-202.132 38.5378,-208.132 38.5378,-208.132 38.5378,-288.132 38.5378,-288.132 38.5378,-294.132 32.5378,-300.132 26.5378,-300.132 26.5378,-300.132 -71.2415,-300.132 -71.2415,-300.132 -77.2415,-300.132 -83.2415,-294.132 -83.2415,-288.132 -83.2415,-288.132 -83.2415,-208.132 -83.2415,-208.132 -83.2415,-202.132 -77.2415,-196.132 -71.2415,-196.132"/>
<text text-anchor="middle" x="-22.3519" y="-284.932" font-family="Times,serif" font-size="14.00">SessionsController</text>
<polyline fill="none" stroke="black" points="-83.2415,-278.132 38.5378,-278.132 "/>
<text text-anchor="start" x="-75.2415" y="-262.932" font-family="Times,serif" font-size="14.00">create</text>
<text text-anchor="start" x="-75.2415" y="-248.932" font-family="Times,serif" font-size="14.00">destroy</text>
<polyline fill="none" stroke="black" points="-83.2415,-242.132 38.5378,-242.132 "/>
<polyline fill="none" stroke="black" points="-83.2415,-218.132 38.5378,-218.132 "/>
<text text-anchor="start" x="-75.2415" y="-202.932" font-family="Times,serif" font-size="14.00">_layout</text>
</g>
<!-- ApplicationController&#45;&gt;SessionsController -->
<g id="edge5" class="edge"><title>ApplicationController&#45;&gt;SessionsController</title>
<path fill="none" stroke="black" d="M-20.3702,-68.1107C-20.792,-106.429 -21.3582,-157.868 -21.7774,-195.947"/>
</g>
<!-- StaticPagesController -->
<g id="node8" class="node"><title>StaticPagesController</title>
<path fill="none" stroke="black" d="M-264.195,51.4846C-264.195,51.4846 -150.106,51.4846 -150.106,51.4846 -144.106,51.4846 -138.106,45.4846 -138.106,39.4846 -138.106,39.4846 -138.106,-54.5154 -138.106,-54.5154 -138.106,-60.5154 -144.106,-66.5154 -150.106,-66.5154 -150.106,-66.5154 -264.195,-66.5154 -264.195,-66.5154 -270.195,-66.5154 -276.195,-60.5154 -276.195,-54.5154 -276.195,-54.5154 -276.195,39.4846 -276.195,39.4846 -276.195,45.4846 -270.195,51.4846 -264.195,51.4846"/>
<text text-anchor="middle" x="-207.151" y="-51.3154" font-family="Times,serif" font-size="14.00">StaticPagesController</text>
<polyline fill="none" stroke="black" points="-276.195,-44.5154 -138.106,-44.5154 "/>
<text text-anchor="start" x="-268.195" y="-29.3154" font-family="Times,serif" font-size="14.00">index</text>
<text text-anchor="start" x="-268.195" y="-15.3154" font-family="Times,serif" font-size="14.00">invite</text>
<text text-anchor="start" x="-268.195" y="-1.3154" font-family="Times,serif" font-size="14.00">sendinvite</text>
<polyline fill="none" stroke="black" points="-276.195,5.4846 -138.106,5.4846 "/>
<polyline fill="none" stroke="black" points="-276.195,29.4846 -138.106,29.4846 "/>
<text text-anchor="start" x="-268.195" y="44.6846" font-family="Times,serif" font-size="14.00">_layout</text>
</g>
<!-- ApplicationController&#45;&gt;StaticPagesController -->
<g id="edge6" class="edge"><title>ApplicationController&#45;&gt;StaticPagesController</title>
<path fill="none" stroke="black" d="M-89.8191,-12.1356C-105.514,-11.5176 -122.157,-10.8622 -137.824,-10.2453"/>
</g>
<!-- UsersController -->
<g id="node9" class="node"><title>UsersController</title>
<path fill="none" stroke="black" d="M84.9961,280.427C84.9961,280.427 166.424,280.427 166.424,280.427 172.424,280.427 178.424,274.427 178.424,268.427 178.424,268.427 178.424,118.427 178.424,118.427 178.424,112.427 172.424,106.427 166.424,106.427 166.424,106.427 84.9961,106.427 84.9961,106.427 78.9961,106.427 72.9961,112.427 72.9961,118.427 72.9961,118.427 72.9961,268.427 72.9961,268.427 72.9961,274.427 78.9961,280.427 84.9961,280.427"/>
<text text-anchor="middle" x="125.71" y="121.627" font-family="Times,serif" font-size="14.00">UsersController</text>
<polyline fill="none" stroke="black" points="72.9961,128.427 178.424,128.427 "/>
<text text-anchor="start" x="80.9961" y="143.627" font-family="Times,serif" font-size="14.00">edit</text>
<text text-anchor="start" x="80.9961" y="157.627" font-family="Times,serif" font-size="14.00">groups</text>
<text text-anchor="start" x="80.9961" y="171.627" font-family="Times,serif" font-size="14.00">index</text>
<text text-anchor="start" x="80.9961" y="185.627" font-family="Times,serif" font-size="14.00">show</text>
<text text-anchor="start" x="80.9961" y="199.627" font-family="Times,serif" font-size="14.00">update</text>
<polyline fill="none" stroke="black" points="72.9961,206.427 178.424,206.427 "/>
<polyline fill="none" stroke="black" points="72.9961,230.427 178.424,230.427 "/>
<text text-anchor="start" x="80.9961" y="245.627" font-family="Times,serif" font-size="14.00">_layout</text>
<text text-anchor="start" x="80.9961" y="259.627" font-family="Times,serif" font-size="14.00">genre_params</text>
<text text-anchor="start" x="80.9961" y="273.627" font-family="Times,serif" font-size="14.00">user_params</text>
</g>
<!-- ApplicationController&#45;&gt;UsersController -->
<g id="edge7" class="edge"><title>ApplicationController&#45;&gt;UsersController</title>
<path fill="none" stroke="black" d="M17.3064,38.2135C34.1449,62.3229 54.3693,91.2805 72.7652,117.62"/>
</g>
</g>
</svg>
