<?xml version="1.0" encoding="UTF-8" standalone="no"?>
<!DOCTYPE svg PUBLIC "-//W3C//DTD SVG 1.1//EN"
 "http://www.w3.org/Graphics/SVG/1.1/DTD/svg11.dtd">
<!-- Generated by graphviz version 2.38.0 (20140413.2041)
 -->
<!-- Title: controllers_diagram Pages: 1 -->
<svg width="732pt" height="605pt"
 viewBox="0.00 0.00 731.87 605.13" xmlns="http://www.w3.org/2000/svg" xmlns:xlink="http://www.w3.org/1999/xlink">
<g id="graph0" class="graph" transform="scale(1 1) rotate(0) translate(262.178 299.74)">
<title>controllers_diagram</title>
<polygon fill="white" stroke="none" points="-262.178,305.388 -262.178,-299.74 469.688,-299.74 469.688,305.388 -262.178,305.388"/>
<!-- _diagram_info -->
<g id="node1" class="node"><title>_diagram_info</title>
<text text-anchor="start" x="266.312" y="198.9" font-family="Times,serif" font-size="13.00">Controllers diagram</text>
<text text-anchor="start" x="266.312" y="211.9" font-family="Times,serif" font-size="13.00">Date: Jul 22 2014 &#45; 15:41</text>
<text text-anchor="start" x="266.312" y="224.9" font-family="Times,serif" font-size="13.00">Migration version: 20140722193943</text>
<text text-anchor="start" x="266.312" y="237.9" font-family="Times,serif" font-size="13.00">Generated by RailRoady 1.1.1</text>
<text text-anchor="start" x="266.312" y="250.9" font-family="Times,serif" font-size="13.00">http://railroady.prestonlee.com</text>
</g>
<!-- ApplicationController -->
<g id="node2" class="node"><title>ApplicationController</title>
<path fill="none" stroke="black" d="M-73.4642,35.9312C-73.4642,35.9312 42.1774,35.9312 42.1774,35.9312 48.1774,35.9312 54.1774,29.9312 54.1774,23.9312 54.1774,23.9312 54.1774,-58.0688 54.1774,-58.0688 54.1774,-64.0688 48.1774,-70.0688 42.1774,-70.0688 42.1774,-70.0688 -73.4642,-70.0688 -73.4642,-70.0688 -79.4642,-70.0688 -85.4642,-64.0688 -85.4642,-58.0688 -85.4642,-58.0688 -85.4642,23.9312 -85.4642,23.9312 -85.4642,29.9312 -79.4642,35.9312 -73.4642,35.9312"/>
<text text-anchor="middle" x="-15.6434" y="-54.8688" font-family="Times,serif" font-size="14.00">ApplicationController</text>
<polyline fill="none" stroke="black" points="-85.4642,-48.0688 54.1774,-48.0688 "/>
<polyline fill="none" stroke="black" points="-85.4642,-24.0688 54.1774,-24.0688 "/>
<polyline fill="none" stroke="black" points="-85.4642,-0.0688407 54.1774,-0.0688407 "/>
<text text-anchor="start" x="-77.4642" y="15.1312" font-family="Times,serif" font-size="14.00">_layout</text>
<text text-anchor="start" x="-77.4642" y="29.1312" font-family="Times,serif" font-size="14.00">current_user</text>
</g>
<!-- BooksController -->
<g id="node3" class="node"><title>BooksController</title>
<path fill="none" stroke="black" d="M116.424,16.0934C116.424,16.0934 201.755,16.0934 201.755,16.0934 207.755,16.0934 213.755,10.0934 213.755,4.09335 213.755,4.09335 213.755,-61.9066 213.755,-61.9066 213.755,-67.9066 207.755,-73.9066 201.755,-73.9066 201.755,-73.9066 116.424,-73.9066 116.424,-73.9066 110.424,-73.9066 104.424,-67.9066 104.424,-61.9066 104.424,-61.9066 104.424,4.09335 104.424,4.09335 104.424,10.0934 110.424,16.0934 116.424,16.0934"/>
<text text-anchor="middle" x="159.089" y="-58.7066" font-family="Times,serif" font-size="14.00">BooksController</text>
<polyline fill="none" stroke="black" points="104.424,-51.9066 213.755,-51.9066 "/>
<text text-anchor="start" x="112.424" y="-36.7066" font-family="Times,serif" font-size="14.00">show</text>
<polyline fill="none" stroke="black" points="104.424,-29.9066 213.755,-29.9066 "/>
<polyline fill="none" stroke="black" points="104.424,-5.90665 213.755,-5.90665 "/>
<text text-anchor="start" x="112.424" y="9.29335" font-family="Times,serif" font-size="14.00">_layout</text>
</g>
<!-- ApplicationController&#45;&gt;BooksController -->
<g id="edge1" class="edge"><title>ApplicationController&#45;&gt;BooksController</title>
<path fill="none" stroke="black" d="M54.4203,-21.8155C71.0357,-22.9412 88.5209,-24.1258 104.34,-25.1975"/>
</g>
<!-- GroupsController -->
<g id="node4" class="node"><title>GroupsController</title>
<path fill="none" stroke="black" d="M-206.933,300.888C-206.933,300.888 -71.8768,300.888 -71.8768,300.888 -65.8768,300.888 -59.8768,294.888 -59.8768,288.888 -59.8768,288.888 -59.8768,68.8882 -59.8768,68.8882 -59.8768,62.8882 -65.8768,56.8882 -71.8768,56.8882 -71.8768,56.8882 -206.933,56.8882 -206.933,56.8882 -212.933,56.8882 -218.933,62.8882 -218.933,68.8882 -218.933,68.8882 -218.933,288.888 -218.933,288.888 -218.933,294.888 -212.933,300.888 -206.933,300.888"/>
<text text-anchor="middle" x="-139.405" y="72.0882" font-family="Times,serif" font-size="14.00">GroupsController</text>
<polyline fill="none" stroke="black" points="-218.933,78.8882 -59.8768,78.8882 "/>
<text text-anchor="start" x="-210.933" y="94.0882" font-family="Times,serif" font-size="14.00">autocomplete_book_title</text>
<text text-anchor="start" x="-210.933" y="108.088" font-family="Times,serif" font-size="14.00">autocomplete_user_name</text>
<text text-anchor="start" x="-210.933" y="122.088" font-family="Times,serif" font-size="14.00">create</text>
<text text-anchor="start" x="-210.933" y="136.088" font-family="Times,serif" font-size="14.00">displaybooksearch</text>
<text text-anchor="start" x="-210.933" y="150.088" font-family="Times,serif" font-size="14.00">displayusersearch</text>
<text text-anchor="start" x="-210.933" y="164.088" font-family="Times,serif" font-size="14.00">finish_book</text>
<text text-anchor="start" x="-210.933" y="178.088" font-family="Times,serif" font-size="14.00">list</text>
<text text-anchor="start" x="-210.933" y="192.088" font-family="Times,serif" font-size="14.00">new</text>
<text text-anchor="start" x="-210.933" y="206.088" font-family="Times,serif" font-size="14.00">searchbooks</text>
<text text-anchor="start" x="-210.933" y="220.088" font-family="Times,serif" font-size="14.00">searchusers</text>
<text text-anchor="start" x="-210.933" y="234.088" font-family="Times,serif" font-size="14.00">show</text>
<polyline fill="none" stroke="black" points="-218.933,240.888 -59.8768,240.888 "/>
<polyline fill="none" stroke="black" points="-218.933,264.888 -59.8768,264.888 "/>
<text text-anchor="start" x="-210.933" y="280.088" font-family="Times,serif" font-size="14.00">_layout</text>
<text text-anchor="start" x="-210.933" y="294.088" font-family="Times,serif" font-size="14.00">note_display</text>
</g>
<!-- ApplicationController&#45;&gt;GroupsController -->
<g id="edge2" class="edge"><title>ApplicationController&#45;&gt;GroupsController</title>
<path fill="none" stroke="black" d="M-49.135,35.96C-53.287,42.5341 -57.6567,49.4529 -62.1416,56.5539"/>
</g>
<!-- NotesController -->
<g id="node5" class="node"><title>NotesController</title>
<path fill="none" stroke="black" d="M-226.293,-170.213C-226.293,-170.213 -144.086,-170.213 -144.086,-170.213 -138.086,-170.213 -132.086,-176.213 -132.086,-182.213 -132.086,-182.213 -132.086,-276.213 -132.086,-276.213 -132.086,-282.213 -138.086,-288.213 -144.086,-288.213 -144.086,-288.213 -226.293,-288.213 -226.293,-288.213 -232.293,-288.213 -238.293,-282.213 -238.293,-276.213 -238.293,-276.213 -238.293,-182.213 -238.293,-182.213 -238.293,-176.213 -232.293,-170.213 -226.293,-170.213"/>
<text text-anchor="middle" x="-185.189" y="-273.013" font-family="Times,serif" font-size="14.00">NotesController</text>
<polyline fill="none" stroke="black" points="-238.293,-266.213 -132.086,-266.213 "/>
<text text-anchor="start" x="-230.293" y="-251.013" font-family="Times,serif" font-size="14.00">create</text>
<text text-anchor="start" x="-230.293" y="-237.013" font-family="Times,serif" font-size="14.00">destroy</text>
<polyline fill="none" stroke="black" points="-238.293,-230.213 -132.086,-230.213 "/>
<polyline fill="none" stroke="black" points="-238.293,-206.213 -132.086,-206.213 "/>
<text text-anchor="start" x="-230.293" y="-191.013" font-family="Times,serif" font-size="14.00">_layout</text>
<text text-anchor="start" x="-230.293" y="-177.013" font-family="Times,serif" font-size="14.00">note_params</text>
</g>
<!-- ApplicationController&#45;&gt;NotesController -->
<g id="edge3" class="edge"><title>ApplicationController&#45;&gt;NotesController</title>
<path fill="none" stroke="black" d="M-58.2081,-70.328C-82.4366,-100.644 -112.841,-138.687 -137.823,-169.947"/>
</g>
<!-- RequestsController -->
<g id="node6" class="node"><title>RequestsController</title>
<path fill="none" stroke="black" d="M104.55,-177.24C104.55,-177.24 204.646,-177.24 204.646,-177.24 210.646,-177.24 216.646,-183.24 216.646,-189.24 216.646,-189.24 216.646,-283.24 216.646,-283.24 216.646,-289.24 210.646,-295.24 204.646,-295.24 204.646,-295.24 104.55,-295.24 104.55,-295.24 98.5495,-295.24 92.5495,-289.24 92.5495,-283.24 92.5495,-283.24 92.5495,-189.24 92.5495,-189.24 92.5495,-183.24 98.5495,-177.24 104.55,-177.24"/>
<text text-anchor="middle" x="154.598" y="-280.04" font-family="Times,serif" font-size="14.00">RequestsController</text>
<polyline fill="none" stroke="black" points="92.5495,-273.24 216.646,-273.24 "/>
<text text-anchor="start" x="100.55" y="-258.04" font-family="Times,serif" font-size="14.00">confirm</text>
<text text-anchor="start" x="100.55" y="-244.04" font-family="Times,serif" font-size="14.00">create</text>
<text text-anchor="start" x="100.55" y="-230.04" font-family="Times,serif" font-size="14.00">destroy</text>
<polyline fill="none" stroke="black" points="92.5495,-223.24 216.646,-223.24 "/>
<polyline fill="none" stroke="black" points="92.5495,-199.24 216.646,-199.24 "/>
<text text-anchor="start" x="100.55" y="-184.04" font-family="Times,serif" font-size="14.00">_layout</text>
</g>
<!-- ApplicationController&#45;&gt;RequestsController -->
<g id="edge4" class="edge"><title>ApplicationController&#45;&gt;RequestsController</title>
<path fill="none" stroke="black" d="M25.5673,-70.124C50.6605,-102.429 82.7647,-143.761 108.672,-177.114"/>
</g>
<!-- SessionsController -->
<g id="node7" class="node"><title>SessionsController</title>
<path fill="none" stroke="black" d="M-65.9201,-183.001C-65.9201,-183.001 31.8592,-183.001 31.8592,-183.001 37.8592,-183.001 43.8592,-189.001 43.8592,-195.001 43.8592,-195.001 43.8592,-275.001 43.8592,-275.001 43.8592,-281.001 37.8592,-287.001 31.8592,-287.001 31.8592,-287.001 -65.9201,-287.001 -65.9201,-287.001 -71.9201,-287.001 -77.9201,-281.001 -77.9201,-275.001 -77.9201,-275.001 -77.9201,-195.001 -77.9201,-195.001 -77.9201,-189.001 -71.9201,-183.001 -65.9201,-183.001"/>
<text text-anchor="middle" x="-17.0304" y="-271.801" font-family="Times,serif" font-size="14.00">SessionsController</text>
<polyline fill="none" stroke="black" points="-77.9201,-265.001 43.8592,-265.001 "/>
<text text-anchor="start" x="-69.9201" y="-249.801" font-family="Times,serif" font-size="14.00">create</text>
<text text-anchor="start" x="-69.9201" y="-235.801" font-family="Times,serif" font-size="14.00">destroy</text>
<polyline fill="none" stroke="black" points="-77.9201,-229.001 43.8592,-229.001 "/>
<polyline fill="none" stroke="black" points="-77.9201,-205.001 43.8592,-205.001 "/>
<text text-anchor="start" x="-69.9201" y="-189.801" font-family="Times,serif" font-size="14.00">_layout</text>
</g>
<!-- ApplicationController&#45;&gt;SessionsController -->
<g id="edge5" class="edge"><title>ApplicationController&#45;&gt;SessionsController</title>
<path fill="none" stroke="black" d="M-15.9809,-70.1024C-16.199,-104.372 -16.4816,-148.769 -16.6986,-182.861"/>
</g>
<!-- StaticPagesController -->
<g id="node8" class="node"><title>StaticPagesController</title>
<path fill="none" stroke="black" d="M-246.178,44.0885C-246.178,44.0885 -132.088,44.0885 -132.088,44.0885 -126.088,44.0885 -120.088,38.0885 -120.088,32.0885 -120.088,32.0885 -120.088,-61.9115 -120.088,-61.9115 -120.088,-67.9115 -126.088,-73.9115 -132.088,-73.9115 -132.088,-73.9115 -246.178,-73.9115 -246.178,-73.9115 -252.178,-73.9115 -258.178,-67.9115 -258.178,-61.9115 -258.178,-61.9115 -258.178,32.0885 -258.178,32.0885 -258.178,38.0885 -252.178,44.0885 -246.178,44.0885"/>
<text text-anchor="middle" x="-189.133" y="-58.7115" font-family="Times,serif" font-size="14.00">StaticPagesController</text>
<polyline fill="none" stroke="black" points="-258.178,-51.9115 -120.088,-51.9115 "/>
<text text-anchor="start" x="-250.178" y="-36.7115" font-family="Times,serif" font-size="14.00">index</text>
<text text-anchor="start" x="-250.178" y="-22.7115" font-family="Times,serif" font-size="14.00">invite</text>
<text text-anchor="start" x="-250.178" y="-8.7115" font-family="Times,serif" font-size="14.00">sendinvite</text>
<polyline fill="none" stroke="black" points="-258.178,-1.9115 -120.088,-1.9115 "/>
<polyline fill="none" stroke="black" points="-258.178,22.0885 -120.088,22.0885 "/>
<text text-anchor="start" x="-250.178" y="37.2885" font-family="Times,serif" font-size="14.00">_layout</text>
</g>
<!-- ApplicationController&#45;&gt;StaticPagesController -->
<g id="edge6" class="edge"><title>ApplicationController&#45;&gt;StaticPagesController</title>
<path fill="none" stroke="black" d="M-85.7082,-16.1976C-96.9934,-16.0573 -108.67,-15.9121 -119.934,-15.772"/>
</g>
<!-- UsersController -->
<g id="node9" class="node"><title>UsersController</title>
<path fill="none" stroke="black" d="M76.8494,267.866C76.8494,267.866 158.277,267.866 158.277,267.866 164.277,267.866 170.277,261.866 170.277,255.866 170.277,255.866 170.277,91.8656 170.277,91.8656 170.277,85.8656 164.277,79.8656 158.277,79.8656 158.277,79.8656 76.8494,79.8656 76.8494,79.8656 70.8494,79.8656 64.8494,85.8656 64.8494,91.8656 64.8494,91.8656 64.8494,255.866 64.8494,255.866 64.8494,261.866 70.8494,267.866 76.8494,267.866"/>
<text text-anchor="middle" x="117.563" y="95.0656" font-family="Times,serif" font-size="14.00">UsersController</text>
<polyline fill="none" stroke="black" points="64.8494,101.866 170.277,101.866 "/>
<text text-anchor="start" x="72.8494" y="117.066" font-family="Times,serif" font-size="14.00">destroy</text>
<text text-anchor="start" x="72.8494" y="131.066" font-family="Times,serif" font-size="14.00">edit</text>
<text text-anchor="start" x="72.8494" y="145.066" font-family="Times,serif" font-size="14.00">groups</text>
<text text-anchor="start" x="72.8494" y="159.066" font-family="Times,serif" font-size="14.00">index</text>
<text text-anchor="start" x="72.8494" y="173.066" font-family="Times,serif" font-size="14.00">show</text>
<text text-anchor="start" x="72.8494" y="187.066" font-family="Times,serif" font-size="14.00">update</text>
<polyline fill="none" stroke="black" points="64.8494,193.866 170.277,193.866 "/>
<polyline fill="none" stroke="black" points="64.8494,217.866 170.277,217.866 "/>
<text text-anchor="start" x="72.8494" y="233.066" font-family="Times,serif" font-size="14.00">_layout</text>
<text text-anchor="start" x="72.8494" y="247.066" font-family="Times,serif" font-size="14.00">genre_params</text>
<text text-anchor="start" x="72.8494" y="261.066" font-family="Times,serif" font-size="14.00">user_params</text>
</g>
<!-- ApplicationController&#45;&gt;UsersController -->
<g id="edge7" class="edge"><title>ApplicationController&#45;&gt;UsersController</title>
<path fill="none" stroke="black" d="M21.4621,36.117C34.857,55.3168 50.2466,77.3759 64.7282,98.1333"/>
</g>
</g>
</svg>
