<?xml version="1.0" encoding="UTF-8" standalone="no"?>
<!DOCTYPE svg PUBLIC "-//W3C//DTD SVG 1.1//EN"
 "http://www.w3.org/Graphics/SVG/1.1/DTD/svg11.dtd">
<!-- Generated by graphviz version 2.38.0 (20140413.2041)
 -->
<!-- Title: controllers_diagram Pages: 1 -->
<svg width="700pt" height="626pt"
 viewBox="0.00 0.00 699.72 626.24" xmlns="http://www.w3.org/2000/svg" xmlns:xlink="http://www.w3.org/1999/xlink">
<g id="graph0" class="graph" transform="scale(1 1) rotate(0) translate(268.029 314.265)">
<title>controllers_diagram</title>
<polygon fill="white" stroke="none" points="-268.029,311.979 -268.029,-314.265 431.688,-314.265 431.688,311.979 -268.029,311.979"/>
<!-- _diagram_info -->
<g id="node1" class="node"><title>_diagram_info</title>
<text text-anchor="start" x="228.312" y="160.9" font-family="Times,serif" font-size="13.00">Controllers diagram</text>
<text text-anchor="start" x="228.312" y="173.9" font-family="Times,serif" font-size="13.00">Date: Jul 24 2014 &#45; 21:51</text>
<text text-anchor="start" x="228.312" y="186.9" font-family="Times,serif" font-size="13.00">Migration version: 20140724174523</text>
<text text-anchor="start" x="228.312" y="199.9" font-family="Times,serif" font-size="13.00">Generated by RailRoady 1.1.1</text>
<text text-anchor="start" x="228.312" y="212.9" font-family="Times,serif" font-size="13.00">http://railroady.prestonlee.com</text>
</g>
<!-- ApplicationController -->
<g id="node2" class="node"><title>ApplicationController</title>
<path fill="none" stroke="black" d="M-79.4066,27.699C-79.4066,27.699 36.235,27.699 36.235,27.699 42.235,27.699 48.235,21.699 48.235,15.699 48.235,15.699 48.235,-64.301 48.235,-64.301 48.235,-70.301 42.235,-76.301 36.235,-76.301 36.235,-76.301 -79.4066,-76.301 -79.4066,-76.301 -85.4066,-76.301 -91.4066,-70.301 -91.4066,-64.301 -91.4066,-64.301 -91.4066,15.699 -91.4066,15.699 -91.4066,21.699 -85.4066,27.699 -79.4066,27.699"/>
<text text-anchor="middle" x="-21.5858" y="-61.101" font-family="Times,serif" font-size="14.00">ApplicationController</text>
<polyline fill="none" stroke="black" points="-91.4066,-54.301 48.235,-54.301 "/>
<text text-anchor="start" x="-83.4066" y="-39.101" font-family="Times,serif" font-size="14.00">disable_footer</text>
<polyline fill="none" stroke="black" points="-91.4066,-32.301 48.235,-32.301 "/>
<polyline fill="none" stroke="black" points="-91.4066,-8.30101 48.235,-8.30101 "/>
<text text-anchor="start" x="-83.4066" y="6.89899" font-family="Times,serif" font-size="14.00">_layout</text>
<text text-anchor="start" x="-83.4066" y="20.899" font-family="Times,serif" font-size="14.00">current_user</text>
</g>
<!-- BooksController -->
<g id="node3" class="node"><title>BooksController</title>
<path fill="none" stroke="black" d="M110.491,11.4535C110.491,11.4535 195.822,11.4535 195.822,11.4535 201.822,11.4535 207.822,5.45345 207.822,-0.546549 207.822,-0.546549 207.822,-66.5465 207.822,-66.5465 207.822,-72.5465 201.822,-78.5465 195.822,-78.5465 195.822,-78.5465 110.491,-78.5465 110.491,-78.5465 104.491,-78.5465 98.4907,-72.5465 98.4907,-66.5465 98.4907,-66.5465 98.4907,-0.546549 98.4907,-0.546549 98.4907,5.45345 104.491,11.4535 110.491,11.4535"/>
<text text-anchor="middle" x="153.156" y="-63.3465" font-family="Times,serif" font-size="14.00">BooksController</text>
<polyline fill="none" stroke="black" points="98.4907,-56.5465 207.822,-56.5465 "/>
<text text-anchor="start" x="106.491" y="-41.3465" font-family="Times,serif" font-size="14.00">show</text>
<polyline fill="none" stroke="black" points="98.4907,-34.5465 207.822,-34.5465 "/>
<polyline fill="none" stroke="black" points="98.4907,-10.5465 207.822,-10.5465 "/>
<text text-anchor="start" x="106.491" y="4.65345" font-family="Times,serif" font-size="14.00">_layout</text>
</g>
<!-- ApplicationController&#45;&gt;BooksController -->
<g id="edge1" class="edge"><title>ApplicationController&#45;&gt;BooksController</title>
<path fill="none" stroke="black" d="M48.4816,-28.0083C65.0979,-28.8874 82.584,-29.8126 98.4042,-30.6496"/>
</g>
<!-- GroupsController -->
<g id="node4" class="node"><title>GroupsController</title>
<path fill="none" stroke="black" d="M-212.432,307.479C-212.432,307.479 -77.3764,307.479 -77.3764,307.479 -71.3764,307.479 -65.3764,301.479 -65.3764,295.479 -65.3764,295.479 -65.3764,61.4788 -65.3764,61.4788 -65.3764,55.4788 -71.3764,49.4788 -77.3764,49.4788 -77.3764,49.4788 -212.432,49.4788 -212.432,49.4788 -218.432,49.4788 -224.432,55.4788 -224.432,61.4788 -224.432,61.4788 -224.432,295.479 -224.432,295.479 -224.432,301.479 -218.432,307.479 -212.432,307.479"/>
<text text-anchor="middle" x="-144.904" y="64.6788" font-family="Times,serif" font-size="14.00">GroupsController</text>
<polyline fill="none" stroke="black" points="-224.432,71.4788 -65.3764,71.4788 "/>
<text text-anchor="start" x="-216.432" y="86.6788" font-family="Times,serif" font-size="14.00">autocomplete_book_title</text>
<text text-anchor="start" x="-216.432" y="100.679" font-family="Times,serif" font-size="14.00">autocomplete_user_name</text>
<text text-anchor="start" x="-216.432" y="114.679" font-family="Times,serif" font-size="14.00">create</text>
<text text-anchor="start" x="-216.432" y="128.679" font-family="Times,serif" font-size="14.00">displaybooksearch</text>
<text text-anchor="start" x="-216.432" y="142.679" font-family="Times,serif" font-size="14.00">displayusersearch</text>
<text text-anchor="start" x="-216.432" y="156.679" font-family="Times,serif" font-size="14.00">finish_book</text>
<text text-anchor="start" x="-216.432" y="170.679" font-family="Times,serif" font-size="14.00">list</text>
<text text-anchor="start" x="-216.432" y="184.679" font-family="Times,serif" font-size="14.00">new</text>
<text text-anchor="start" x="-216.432" y="198.679" font-family="Times,serif" font-size="14.00">searchbooks</text>
<text text-anchor="start" x="-216.432" y="212.679" font-family="Times,serif" font-size="14.00">searchusers</text>
<text text-anchor="start" x="-216.432" y="226.679" font-family="Times,serif" font-size="14.00">show</text>
<polyline fill="none" stroke="black" points="-224.432,233.479 -65.3764,233.479 "/>
<polyline fill="none" stroke="black" points="-224.432,257.479 -65.3764,257.479 "/>
<text text-anchor="start" x="-216.432" y="272.679" font-family="Times,serif" font-size="14.00">_layout</text>
<text text-anchor="start" x="-216.432" y="286.679" font-family="Times,serif" font-size="14.00">find_last_page_read</text>
<text text-anchor="start" x="-216.432" y="300.679" font-family="Times,serif" font-size="14.00">note_display</text>
</g>
<!-- ApplicationController&#45;&gt;GroupsController -->
<g id="edge2" class="edge"><title>ApplicationController&#45;&gt;GroupsController</title>
<path fill="none" stroke="black" d="M-53.3434,27.9198C-57.4825,34.726 -61.8588,41.9222 -66.3655,49.3328"/>
</g>
<!-- NotesController -->
<g id="node5" class="node"><title>NotesController</title>
<path fill="none" stroke="black" d="M-232.78,-163.765C-232.78,-163.765 -150.573,-163.765 -150.573,-163.765 -144.573,-163.765 -138.573,-169.765 -138.573,-175.765 -138.573,-175.765 -138.573,-297.765 -138.573,-297.765 -138.573,-303.765 -144.573,-309.765 -150.573,-309.765 -150.573,-309.765 -232.78,-309.765 -232.78,-309.765 -238.78,-309.765 -244.78,-303.765 -244.78,-297.765 -244.78,-297.765 -244.78,-175.765 -244.78,-175.765 -244.78,-169.765 -238.78,-163.765 -232.78,-163.765"/>
<text text-anchor="middle" x="-191.676" y="-294.565" font-family="Times,serif" font-size="14.00">NotesController</text>
<polyline fill="none" stroke="black" points="-244.78,-287.765 -138.573,-287.765 "/>
<text text-anchor="start" x="-236.78" y="-272.565" font-family="Times,serif" font-size="14.00">create</text>
<text text-anchor="start" x="-236.78" y="-258.565" font-family="Times,serif" font-size="14.00">destroy</text>
<text text-anchor="start" x="-236.78" y="-244.565" font-family="Times,serif" font-size="14.00">edit</text>
<text text-anchor="start" x="-236.78" y="-230.565" font-family="Times,serif" font-size="14.00">update</text>
<polyline fill="none" stroke="black" points="-244.78,-223.765 -138.573,-223.765 "/>
<polyline fill="none" stroke="black" points="-244.78,-199.765 -138.573,-199.765 "/>
<text text-anchor="start" x="-236.78" y="-184.565" font-family="Times,serif" font-size="14.00">_layout</text>
<text text-anchor="start" x="-236.78" y="-170.565" font-family="Times,serif" font-size="14.00">note_params</text>
</g>
<!-- ApplicationController&#45;&gt;NotesController -->
<g id="edge3" class="edge"><title>ApplicationController&#45;&gt;NotesController</title>
<path fill="none" stroke="black" d="M-63.4124,-76.5477C-86.036,-104.808 -114.217,-140.009 -138.397,-170.213"/>
</g>
<!-- RequestsController -->
<g id="node6" class="node"><title>RequestsController</title>
<path fill="none" stroke="black" d="M98.2013,-185.622C98.2013,-185.622 198.298,-185.622 198.298,-185.622 204.298,-185.622 210.298,-191.622 210.298,-197.622 210.298,-197.622 210.298,-291.622 210.298,-291.622 210.298,-297.622 204.298,-303.622 198.298,-303.622 198.298,-303.622 98.2013,-303.622 98.2013,-303.622 92.2013,-303.622 86.2013,-297.622 86.2013,-291.622 86.2013,-291.622 86.2013,-197.622 86.2013,-197.622 86.2013,-191.622 92.2013,-185.622 98.2013,-185.622"/>
<text text-anchor="middle" x="148.25" y="-288.422" font-family="Times,serif" font-size="14.00">RequestsController</text>
<polyline fill="none" stroke="black" points="86.2013,-281.622 210.298,-281.622 "/>
<text text-anchor="start" x="94.2013" y="-266.422" font-family="Times,serif" font-size="14.00">confirm</text>
<text text-anchor="start" x="94.2013" y="-252.422" font-family="Times,serif" font-size="14.00">create</text>
<text text-anchor="start" x="94.2013" y="-238.422" font-family="Times,serif" font-size="14.00">destroy</text>
<polyline fill="none" stroke="black" points="86.2013,-231.622 210.298,-231.622 "/>
<polyline fill="none" stroke="black" points="86.2013,-207.622 210.298,-207.622 "/>
<text text-anchor="start" x="94.2013" y="-192.422" font-family="Times,serif" font-size="14.00">_layout</text>
</g>
<!-- ApplicationController&#45;&gt;RequestsController -->
<g id="edge4" class="edge"><title>ApplicationController&#45;&gt;RequestsController</title>
<path fill="none" stroke="black" d="M18.6628,-76.514C43.8722,-109.217 76.4241,-151.445 102.596,-185.397"/>
</g>
<!-- SessionsController -->
<g id="node7" class="node"><title>SessionsController</title>
<path fill="none" stroke="black" d="M-72.7973,-193.534C-72.7973,-193.534 24.982,-193.534 24.982,-193.534 30.982,-193.534 36.982,-199.534 36.982,-205.534 36.982,-205.534 36.982,-285.534 36.982,-285.534 36.982,-291.534 30.982,-297.534 24.982,-297.534 24.982,-297.534 -72.7973,-297.534 -72.7973,-297.534 -78.7973,-297.534 -84.7973,-291.534 -84.7973,-285.534 -84.7973,-285.534 -84.7973,-205.534 -84.7973,-205.534 -84.7973,-199.534 -78.7973,-193.534 -72.7973,-193.534"/>
<text text-anchor="middle" x="-23.9077" y="-282.334" font-family="Times,serif" font-size="14.00">SessionsController</text>
<polyline fill="none" stroke="black" points="-84.7973,-275.534 36.982,-275.534 "/>
<text text-anchor="start" x="-76.7973" y="-260.334" font-family="Times,serif" font-size="14.00">create</text>
<text text-anchor="start" x="-76.7973" y="-246.334" font-family="Times,serif" font-size="14.00">destroy</text>
<polyline fill="none" stroke="black" points="-84.7973,-239.534 36.982,-239.534 "/>
<polyline fill="none" stroke="black" points="-84.7973,-215.534 36.982,-215.534 "/>
<text text-anchor="start" x="-76.7973" y="-200.334" font-family="Times,serif" font-size="14.00">_layout</text>
</g>
<!-- ApplicationController&#45;&gt;SessionsController -->
<g id="edge5" class="edge"><title>ApplicationController&#45;&gt;SessionsController</title>
<path fill="none" stroke="black" d="M-22.1331,-76.4501C-22.5032,-111.708 -22.9899,-158.088 -23.36,-193.353"/>
</g>
<!-- StaticPagesController -->
<g id="node8" class="node"><title>StaticPagesController</title>
<path fill="none" stroke="black" d="M-252.029,40.896C-252.029,40.896 -137.939,40.896 -137.939,40.896 -131.939,40.896 -125.939,34.896 -125.939,28.896 -125.939,28.896 -125.939,-65.104 -125.939,-65.104 -125.939,-71.104 -131.939,-77.104 -137.939,-77.104 -137.939,-77.104 -252.029,-77.104 -252.029,-77.104 -258.029,-77.104 -264.029,-71.104 -264.029,-65.104 -264.029,-65.104 -264.029,28.896 -264.029,28.896 -264.029,34.896 -258.029,40.896 -252.029,40.896"/>
<text text-anchor="middle" x="-194.984" y="-61.904" font-family="Times,serif" font-size="14.00">StaticPagesController</text>
<polyline fill="none" stroke="black" points="-264.029,-55.104 -125.939,-55.104 "/>
<text text-anchor="start" x="-256.029" y="-39.904" font-family="Times,serif" font-size="14.00">index</text>
<text text-anchor="start" x="-256.029" y="-25.904" font-family="Times,serif" font-size="14.00">invite</text>
<text text-anchor="start" x="-256.029" y="-11.904" font-family="Times,serif" font-size="14.00">sendinvite</text>
<polyline fill="none" stroke="black" points="-264.029,-5.10404 -125.939,-5.10404 "/>
<polyline fill="none" stroke="black" points="-264.029,18.896 -125.939,18.896 "/>
<text text-anchor="start" x="-256.029" y="34.096" font-family="Times,serif" font-size="14.00">_layout</text>
</g>
<!-- ApplicationController&#45;&gt;StaticPagesController -->
<g id="edge6" class="edge"><title>ApplicationController&#45;&gt;StaticPagesController</title>
<path fill="none" stroke="black" d="M-91.6138,-21.7983C-102.893,-21.3952 -114.563,-20.9781 -125.822,-20.5758"/>
</g>
<!-- UsersController -->
<g id="node9" class="node"><title>UsersController</title>
<path fill="none" stroke="black" d="M70.7012,273.976C70.7012,273.976 152.129,273.976 152.129,273.976 158.129,273.976 164.129,267.976 164.129,261.976 164.129,261.976 164.129,83.9759 164.129,83.9759 164.129,77.9759 158.129,71.9759 152.129,71.9759 152.129,71.9759 70.7012,71.9759 70.7012,71.9759 64.7012,71.9759 58.7012,77.9759 58.7012,83.9759 58.7012,83.9759 58.7012,261.976 58.7012,261.976 58.7012,267.976 64.7012,273.976 70.7012,273.976"/>
<text text-anchor="middle" x="111.415" y="87.1759" font-family="Times,serif" font-size="14.00">UsersController</text>
<polyline fill="none" stroke="black" points="58.7012,93.9759 164.129,93.9759 "/>
<text text-anchor="start" x="66.7012" y="109.176" font-family="Times,serif" font-size="14.00">destroy</text>
<text text-anchor="start" x="66.7012" y="123.176" font-family="Times,serif" font-size="14.00">edit</text>
<text text-anchor="start" x="66.7012" y="137.176" font-family="Times,serif" font-size="14.00">groups</text>
<text text-anchor="start" x="66.7012" y="151.176" font-family="Times,serif" font-size="14.00">index</text>
<text text-anchor="start" x="66.7012" y="165.176" font-family="Times,serif" font-size="14.00">notifications</text>
<text text-anchor="start" x="66.7012" y="179.176" font-family="Times,serif" font-size="14.00">show</text>
<text text-anchor="start" x="66.7012" y="193.176" font-family="Times,serif" font-size="14.00">update</text>
<polyline fill="none" stroke="black" points="58.7012,199.976 164.129,199.976 "/>
<polyline fill="none" stroke="black" points="58.7012,223.976 164.129,223.976 "/>
<text text-anchor="start" x="66.7012" y="239.176" font-family="Times,serif" font-size="14.00">_layout</text>
<text text-anchor="start" x="66.7012" y="253.176" font-family="Times,serif" font-size="14.00">genre_params</text>
<text text-anchor="start" x="66.7012" y="267.176" font-family="Times,serif" font-size="14.00">user_params</text>
</g>
<!-- ApplicationController&#45;&gt;UsersController -->
<g id="edge7" class="edge"><title>ApplicationController&#45;&gt;UsersController</title>
<path fill="none" stroke="black" d="M13.5326,27.7892C27.3087,48.223 43.4162,72.1147 58.541,94.5491"/>
</g>
</g>
</svg>
