<?xml version="1.0" encoding="UTF-8" standalone="no"?>
<!DOCTYPE svg PUBLIC "-//W3C//DTD SVG 1.1//EN"
 "http://www.w3.org/Graphics/SVG/1.1/DTD/svg11.dtd">
<!-- Generated by graphviz version 2.38.0 (20140413.2041)
 -->
<!-- Title: controllers_diagram Pages: 1 -->
<svg width="525pt" height="392pt"
 viewBox="0.00 0.00 525.44 391.77" xmlns="http://www.w3.org/2000/svg" xmlns:xlink="http://www.w3.org/1999/xlink">
<g id="graph0" class="graph" transform="scale(1 1) rotate(0) translate(189.751 201.5)">
<title>controllers_diagram</title>
<polygon fill="white" stroke="none" points="-189.751,190.273 -189.751,-201.5 335.688,-201.5 335.688,190.273 -189.751,190.273"/>
<!-- _diagram_info -->
<g id="node1" class="node"><title>_diagram_info</title>
<text text-anchor="start" x="132.312" y="-183.1" font-family="Times,serif" font-size="13.00">Controllers diagram</text>
<text text-anchor="start" x="132.312" y="-170.1" font-family="Times,serif" font-size="13.00">Date: Jul 15 2014 &#45; 16:46</text>
<text text-anchor="start" x="132.312" y="-157.1" font-family="Times,serif" font-size="13.00">Migration version: 20140715133313</text>
<text text-anchor="start" x="132.312" y="-144.1" font-family="Times,serif" font-size="13.00">Generated by RailRoady 1.1.1</text>
<text text-anchor="start" x="132.312" y="-131.1" font-family="Times,serif" font-size="13.00">http://railroady.prestonlee.com</text>
</g>
<!-- ApplicationController -->
<g id="node2" class="node"><title>ApplicationController</title>
<path fill="none" stroke="black" d="M-173.751,86.7797C-173.751,86.7797 -58.1094,86.7797 -58.1094,86.7797 -52.1094,86.7797 -46.1094,80.7797 -46.1094,74.7797 -46.1094,74.7797 -46.1094,-21.2203 -46.1094,-21.2203 -46.1094,-27.2203 -52.1094,-33.2203 -58.1094,-33.2203 -58.1094,-33.2203 -173.751,-33.2203 -173.751,-33.2203 -179.751,-33.2203 -185.751,-27.2203 -185.751,-21.2203 -185.751,-21.2203 -185.751,74.7797 -185.751,74.7797 -185.751,80.7797 -179.751,86.7797 -173.751,86.7797"/>
<text text-anchor="middle" x="-115.93" y="-18.0203" font-family="Times,serif" font-size="14.00">ApplicationController</text>
<polyline fill="none" stroke="black" points="-185.751,-11.2203 -46.1094,-11.2203 "/>
<polyline fill="none" stroke="black" points="-185.751,12.7797 -46.1094,12.7797 "/>
<polyline fill="none" stroke="black" points="-185.751,36.7797 -46.1094,36.7797 "/>
<text text-anchor="start" x="-177.751" y="51.9797" font-family="Times,serif" font-size="14.00">_layout</text>
<text text-anchor="start" x="-177.751" y="65.9797" font-family="Times,serif" font-size="14.00">current_user</text>
<text text-anchor="start" x="-177.751" y="79.9797" font-family="Times,serif" font-size="14.00">genre</text>
</g>
<!-- SessionsController -->
<g id="node3" class="node"><title>SessionsController</title>
<path fill="none" stroke="black" d="M45.2934,28.4851C45.2934,28.4851 143.073,28.4851 143.073,28.4851 149.073,28.4851 155.073,22.4851 155.073,16.4851 155.073,16.4851 155.073,-63.5149 155.073,-63.5149 155.073,-69.5149 149.073,-75.5149 143.073,-75.5149 143.073,-75.5149 45.2934,-75.5149 45.2934,-75.5149 39.2934,-75.5149 33.2934,-69.5149 33.2934,-63.5149 33.2934,-63.5149 33.2934,16.4851 33.2934,16.4851 33.2934,22.4851 39.2934,28.4851 45.2934,28.4851"/>
<text text-anchor="middle" x="94.183" y="-60.3149" font-family="Times,serif" font-size="14.00">SessionsController</text>
<polyline fill="none" stroke="black" points="33.2934,-53.5149 155.073,-53.5149 "/>
<text text-anchor="start" x="41.2934" y="-38.3149" font-family="Times,serif" font-size="14.00">create</text>
<text text-anchor="start" x="41.2934" y="-24.3149" font-family="Times,serif" font-size="14.00">destroy</text>
<polyline fill="none" stroke="black" points="33.2934,-17.5149 155.073,-17.5149 "/>
<polyline fill="none" stroke="black" points="33.2934,6.48512 155.073,6.48512 "/>
<text text-anchor="start" x="41.2934" y="21.6851" font-family="Times,serif" font-size="14.00">_layout</text>
</g>
<!-- ApplicationController&#45;&gt;SessionsController -->
<g id="edge1" class="edge"><title>ApplicationController&#45;&gt;SessionsController</title>
<path fill="none" stroke="black" d="M-45.9655,10.0323C-20.4184,3.91713 8.25655,-2.94677 32.9817,-8.86519"/>
</g>
<!-- StaticPagesController -->
<g id="node4" class="node"><title>StaticPagesController</title>
<path fill="none" stroke="black" d="M-75.0883,185.773C-75.0883,185.773 39.0015,185.773 39.0015,185.773 45.0015,185.773 51.0015,179.773 51.0015,173.773 51.0015,173.773 51.0015,107.773 51.0015,107.773 51.0015,101.773 45.0015,95.7731 39.0015,95.7731 39.0015,95.7731 -75.0883,95.7731 -75.0883,95.7731 -81.0883,95.7731 -87.0883,101.773 -87.0883,107.773 -87.0883,107.773 -87.0883,173.773 -87.0883,173.773 -87.0883,179.773 -81.0883,185.773 -75.0883,185.773"/>
<text text-anchor="middle" x="-18.0434" y="110.973" font-family="Times,serif" font-size="14.00">StaticPagesController</text>
<polyline fill="none" stroke="black" points="-87.0883,117.773 51.0015,117.773 "/>
<text text-anchor="start" x="-79.0883" y="132.973" font-family="Times,serif" font-size="14.00">index</text>
<polyline fill="none" stroke="black" points="-87.0883,139.773 51.0015,139.773 "/>
<polyline fill="none" stroke="black" points="-87.0883,163.773 51.0015,163.773 "/>
<text text-anchor="start" x="-79.0883" y="178.973" font-family="Times,serif" font-size="14.00">_layout</text>
</g>
<!-- ApplicationController&#45;&gt;StaticPagesController -->
<g id="edge2" class="edge"><title>ApplicationController&#45;&gt;StaticPagesController</title>
<path fill="none" stroke="black" d="M-64.4068,86.7808C-61.8275,89.7845 -59.2578,92.7771 -56.7264,95.725"/>
</g>
<!-- UsersController -->
<g id="node5" class="node"><title>UsersController</title>
<path fill="none" stroke="black" d="M-113.635,-46.3176C-113.635,-46.3176 -32.2077,-46.3176 -32.2077,-46.3176 -26.2077,-46.3176 -20.2077,-52.3176 -20.2077,-58.3176 -20.2077,-58.3176 -20.2077,-180.318 -20.2077,-180.318 -20.2077,-186.318 -26.2077,-192.318 -32.2077,-192.318 -32.2077,-192.318 -113.635,-192.318 -113.635,-192.318 -119.635,-192.318 -125.635,-186.318 -125.635,-180.318 -125.635,-180.318 -125.635,-58.3176 -125.635,-58.3176 -125.635,-52.3176 -119.635,-46.3176 -113.635,-46.3176"/>
<text text-anchor="middle" x="-72.9216" y="-177.118" font-family="Times,serif" font-size="14.00">UsersController</text>
<polyline fill="none" stroke="black" points="-125.635,-170.318 -20.2077,-170.318 "/>
<text text-anchor="start" x="-117.635" y="-155.118" font-family="Times,serif" font-size="14.00">dashboard</text>
<text text-anchor="start" x="-117.635" y="-141.118" font-family="Times,serif" font-size="14.00">edit</text>
<text text-anchor="start" x="-117.635" y="-127.118" font-family="Times,serif" font-size="14.00">show</text>
<text text-anchor="start" x="-117.635" y="-113.118" font-family="Times,serif" font-size="14.00">update</text>
<polyline fill="none" stroke="black" points="-125.635,-106.318 -20.2077,-106.318 "/>
<polyline fill="none" stroke="black" points="-125.635,-82.3176 -20.2077,-82.3176 "/>
<text text-anchor="start" x="-117.635" y="-67.1176" font-family="Times,serif" font-size="14.00">_layout</text>
<text text-anchor="start" x="-117.635" y="-53.1176" font-family="Times,serif" font-size="14.00">user_params</text>
</g>
<!-- ApplicationController&#45;&gt;UsersController -->
<g id="edge3" class="edge"><title>ApplicationController&#45;&gt;UsersController</title>
<path fill="none" stroke="black" d="M-98.1886,-33.4872C-96.9854,-37.5745 -95.7659,-41.7169 -94.546,-45.861"/>
</g>
</g>
</svg>
