<?xml version="1.0" encoding="UTF-8" standalone="no"?>
<!DOCTYPE svg PUBLIC "-//W3C//DTD SVG 1.1//EN"
 "http://www.w3.org/Graphics/SVG/1.1/DTD/svg11.dtd">
<!-- Generated by graphviz version 2.38.0 (20140413.2041)
 -->
<!-- Title: controllers_diagram Pages: 1 -->
<svg width="722pt" height="530pt"
 viewBox="0.00 0.00 722.28 529.61" xmlns="http://www.w3.org/2000/svg" xmlns:xlink="http://www.w3.org/1999/xlink">
<g id="graph0" class="graph" transform="scale(1 1) rotate(0) translate(237.591 253.105)">
<title>controllers_diagram</title>
<polygon fill="white" stroke="none" points="-237.591,276.5 -237.591,-253.105 484.688,-253.105 484.688,276.5 -237.591,276.5"/>
<!-- _diagram_info -->
<g id="node1" class="node"><title>_diagram_info</title>
<text text-anchor="start" x="281.312" y="213.9" font-family="Times,serif" font-size="13.00">Controllers diagram</text>
<text text-anchor="start" x="281.312" y="226.9" font-family="Times,serif" font-size="13.00">Date: Jul 21 2014 &#45; 15:54</text>
<text text-anchor="start" x="281.312" y="239.9" font-family="Times,serif" font-size="13.00">Migration version: 20140718151832</text>
<text text-anchor="start" x="281.312" y="252.9" font-family="Times,serif" font-size="13.00">Generated by RailRoady 1.1.1</text>
<text text-anchor="start" x="281.312" y="265.9" font-family="Times,serif" font-size="13.00">http://railroady.prestonlee.com</text>
</g>
<!-- ApplicationController -->
<g id="node2" class="node"><title>ApplicationController</title>
<path fill="none" stroke="black" d="M-72.1723,39.6923C-72.1723,39.6923 43.4693,39.6923 43.4693,39.6923 49.4693,39.6923 55.4693,33.6923 55.4693,27.6923 55.4693,27.6923 55.4693,-54.3077 55.4693,-54.3077 55.4693,-60.3077 49.4693,-66.3077 43.4693,-66.3077 43.4693,-66.3077 -72.1723,-66.3077 -72.1723,-66.3077 -78.1723,-66.3077 -84.1723,-60.3077 -84.1723,-54.3077 -84.1723,-54.3077 -84.1723,27.6923 -84.1723,27.6923 -84.1723,33.6923 -78.1723,39.6923 -72.1723,39.6923"/>
<text text-anchor="middle" x="-14.3515" y="-51.1077" font-family="Times,serif" font-size="14.00">ApplicationController</text>
<polyline fill="none" stroke="black" points="-84.1723,-44.3077 55.4693,-44.3077 "/>
<polyline fill="none" stroke="black" points="-84.1723,-20.3077 55.4693,-20.3077 "/>
<polyline fill="none" stroke="black" points="-84.1723,3.69234 55.4693,3.69234 "/>
<text text-anchor="start" x="-76.1723" y="18.8923" font-family="Times,serif" font-size="14.00">_layout</text>
<text text-anchor="start" x="-76.1723" y="32.8923" font-family="Times,serif" font-size="14.00">current_user</text>
</g>
<!-- GroupsController -->
<g id="node3" class="node"><title>GroupsController</title>
<path fill="none" stroke="black" d="M76.0948,233.451C76.0948,233.451 211.15,233.451 211.15,233.451 217.15,233.451 223.15,227.451 223.15,221.451 223.15,221.451 223.15,1.45127 223.15,1.45127 223.15,-4.54873 217.15,-10.5487 211.15,-10.5487 211.15,-10.5487 76.0948,-10.5487 76.0948,-10.5487 70.0948,-10.5487 64.0948,-4.54873 64.0948,1.45127 64.0948,1.45127 64.0948,221.451 64.0948,221.451 64.0948,227.451 70.0948,233.451 76.0948,233.451"/>
<text text-anchor="middle" x="143.623" y="4.65127" font-family="Times,serif" font-size="14.00">GroupsController</text>
<polyline fill="none" stroke="black" points="64.0948,11.4513 223.15,11.4513 "/>
<text text-anchor="start" x="72.0948" y="26.6513" font-family="Times,serif" font-size="14.00">autocomplete_book_title</text>
<text text-anchor="start" x="72.0948" y="40.6513" font-family="Times,serif" font-size="14.00">autocomplete_user_name</text>
<text text-anchor="start" x="72.0948" y="54.6513" font-family="Times,serif" font-size="14.00">create</text>
<text text-anchor="start" x="72.0948" y="68.6513" font-family="Times,serif" font-size="14.00">displaybooksearch</text>
<text text-anchor="start" x="72.0948" y="82.6513" font-family="Times,serif" font-size="14.00">displayusersearch</text>
<text text-anchor="start" x="72.0948" y="96.6513" font-family="Times,serif" font-size="14.00">finish_book</text>
<text text-anchor="start" x="72.0948" y="110.651" font-family="Times,serif" font-size="14.00">list</text>
<text text-anchor="start" x="72.0948" y="124.651" font-family="Times,serif" font-size="14.00">new</text>
<text text-anchor="start" x="72.0948" y="138.651" font-family="Times,serif" font-size="14.00">searchbooks</text>
<text text-anchor="start" x="72.0948" y="152.651" font-family="Times,serif" font-size="14.00">searchusers</text>
<text text-anchor="start" x="72.0948" y="166.651" font-family="Times,serif" font-size="14.00">show</text>
<polyline fill="none" stroke="black" points="64.0948,173.451 223.15,173.451 "/>
<polyline fill="none" stroke="black" points="64.0948,197.451 223.15,197.451 "/>
<text text-anchor="start" x="72.0948" y="212.651" font-family="Times,serif" font-size="14.00">_layout</text>
<text text-anchor="start" x="72.0948" y="226.651" font-family="Times,serif" font-size="14.00">note_display</text>
</g>
<!-- ApplicationController&#45;&gt;GroupsController -->
<g id="edge1" class="edge"><title>ApplicationController&#45;&gt;GroupsController</title>
<path fill="none" stroke="black" d="M53.102,39.9632C56.708,42.8111 60.3468,45.6848 63.9875,48.56"/>
</g>
<!-- NotesController -->
<g id="node4" class="node"><title>NotesController</title>
<path fill="none" stroke="black" d="M-56.7216,222.532C-56.7216,222.532 25.4854,222.532 25.4854,222.532 31.4854,222.532 37.4854,216.532 37.4854,210.532 37.4854,210.532 37.4854,116.532 37.4854,116.532 37.4854,110.532 31.4854,104.532 25.4854,104.532 25.4854,104.532 -56.7216,104.532 -56.7216,104.532 -62.7216,104.532 -68.7216,110.532 -68.7216,116.532 -68.7216,116.532 -68.7216,210.532 -68.7216,210.532 -68.7216,216.532 -62.7216,222.532 -56.7216,222.532"/>
<text text-anchor="middle" x="-15.6181" y="119.732" font-family="Times,serif" font-size="14.00">NotesController</text>
<polyline fill="none" stroke="black" points="-68.7216,126.532 37.4854,126.532 "/>
<text text-anchor="start" x="-60.7216" y="141.732" font-family="Times,serif" font-size="14.00">create</text>
<text text-anchor="start" x="-60.7216" y="155.732" font-family="Times,serif" font-size="14.00">destroy</text>
<polyline fill="none" stroke="black" points="-68.7216,162.532 37.4854,162.532 "/>
<polyline fill="none" stroke="black" points="-68.7216,186.532 37.4854,186.532 "/>
<text text-anchor="start" x="-60.7216" y="201.732" font-family="Times,serif" font-size="14.00">_layout</text>
<text text-anchor="start" x="-60.7216" y="215.732" font-family="Times,serif" font-size="14.00">note_params</text>
</g>
<!-- ApplicationController&#45;&gt;NotesController -->
<g id="edge2" class="edge"><title>ApplicationController&#45;&gt;NotesController</title>
<path fill="none" stroke="black" d="M-14.7315,39.7501C-14.8773,60.0975 -15.0444,83.4362 -15.194,104.324"/>
</g>
<!-- RequestsController -->
<g id="node5" class="node"><title>RequestsController</title>
<path fill="none" stroke="black" d="M-221.591,-78.4706C-221.591,-78.4706 -121.495,-78.4706 -121.495,-78.4706 -115.495,-78.4706 -109.495,-84.4706 -109.495,-90.4706 -109.495,-90.4706 -109.495,-184.471 -109.495,-184.471 -109.495,-190.471 -115.495,-196.471 -121.495,-196.471 -121.495,-196.471 -221.591,-196.471 -221.591,-196.471 -227.591,-196.471 -233.591,-190.471 -233.591,-184.471 -233.591,-184.471 -233.591,-90.4706 -233.591,-90.4706 -233.591,-84.4706 -227.591,-78.4706 -221.591,-78.4706"/>
<text text-anchor="middle" x="-171.543" y="-181.271" font-family="Times,serif" font-size="14.00">RequestsController</text>
<polyline fill="none" stroke="black" points="-233.591,-174.471 -109.495,-174.471 "/>
<text text-anchor="start" x="-225.591" y="-159.271" font-family="Times,serif" font-size="14.00">confirm</text>
<text text-anchor="start" x="-225.591" y="-145.271" font-family="Times,serif" font-size="14.00">create</text>
<text text-anchor="start" x="-225.591" y="-131.271" font-family="Times,serif" font-size="14.00">destroy</text>
<polyline fill="none" stroke="black" points="-233.591,-124.471 -109.495,-124.471 "/>
<polyline fill="none" stroke="black" points="-233.591,-100.471 -109.495,-100.471 "/>
<text text-anchor="start" x="-225.591" y="-85.2706" font-family="Times,serif" font-size="14.00">_layout</text>
</g>
<!-- ApplicationController&#45;&gt;RequestsController -->
<g id="edge3" class="edge"><title>ApplicationController&#45;&gt;RequestsController</title>
<path fill="none" stroke="black" d="M-81.4708,-66.3241C-90.6499,-73.5744 -100.042,-80.9934 -109.133,-88.1738"/>
</g>
<!-- SessionsController -->
<g id="node6" class="node"><title>SessionsController</title>
<path fill="none" stroke="black" d="M95.4553,-84.5252C95.4553,-84.5252 193.235,-84.5252 193.235,-84.5252 199.235,-84.5252 205.235,-90.5252 205.235,-96.5252 205.235,-96.5252 205.235,-176.525 205.235,-176.525 205.235,-182.525 199.235,-188.525 193.235,-188.525 193.235,-188.525 95.4553,-188.525 95.4553,-188.525 89.4553,-188.525 83.4553,-182.525 83.4553,-176.525 83.4553,-176.525 83.4553,-96.5252 83.4553,-96.5252 83.4553,-90.5252 89.4553,-84.5252 95.4553,-84.5252"/>
<text text-anchor="middle" x="144.345" y="-173.325" font-family="Times,serif" font-size="14.00">SessionsController</text>
<polyline fill="none" stroke="black" points="83.4553,-166.525 205.235,-166.525 "/>
<text text-anchor="start" x="91.4553" y="-151.325" font-family="Times,serif" font-size="14.00">create</text>
<text text-anchor="start" x="91.4553" y="-137.325" font-family="Times,serif" font-size="14.00">destroy</text>
<polyline fill="none" stroke="black" points="83.4553,-130.525 205.235,-130.525 "/>
<polyline fill="none" stroke="black" points="83.4553,-106.525 205.235,-106.525 "/>
<text text-anchor="start" x="91.4553" y="-91.3252" font-family="Times,serif" font-size="14.00">_layout</text>
</g>
<!-- ApplicationController&#45;&gt;SessionsController -->
<g id="edge4" class="edge"><title>ApplicationController&#45;&gt;SessionsController</title>
<path fill="none" stroke="black" d="M54.3321,-66.636C63.8817,-74.0507 73.6412,-81.6283 83.0437,-88.9288"/>
</g>
<!-- StaticPagesController -->
<g id="node7" class="node"><title>StaticPagesController</title>
<path fill="none" stroke="black" d="M-70.491,-130.605C-70.491,-130.605 43.5988,-130.605 43.5988,-130.605 49.5988,-130.605 55.5988,-136.605 55.5988,-142.605 55.5988,-142.605 55.5988,-236.605 55.5988,-236.605 55.5988,-242.605 49.5988,-248.605 43.5988,-248.605 43.5988,-248.605 -70.491,-248.605 -70.491,-248.605 -76.491,-248.605 -82.491,-242.605 -82.491,-236.605 -82.491,-236.605 -82.491,-142.605 -82.491,-142.605 -82.491,-136.605 -76.491,-130.605 -70.491,-130.605"/>
<text text-anchor="middle" x="-13.4461" y="-233.405" font-family="Times,serif" font-size="14.00">StaticPagesController</text>
<polyline fill="none" stroke="black" points="-82.491,-226.605 55.5988,-226.605 "/>
<text text-anchor="start" x="-74.491" y="-211.405" font-family="Times,serif" font-size="14.00">index</text>
<text text-anchor="start" x="-74.491" y="-197.405" font-family="Times,serif" font-size="14.00">invite</text>
<text text-anchor="start" x="-74.491" y="-183.405" font-family="Times,serif" font-size="14.00">sendinvite</text>
<polyline fill="none" stroke="black" points="-82.491,-176.605 55.5988,-176.605 "/>
<polyline fill="none" stroke="black" points="-82.491,-152.605 55.5988,-152.605 "/>
<text text-anchor="start" x="-74.491" y="-137.405" font-family="Times,serif" font-size="14.00">_layout</text>
</g>
<!-- ApplicationController&#45;&gt;StaticPagesController -->
<g id="edge5" class="edge"><title>ApplicationController&#45;&gt;StaticPagesController</title>
<path fill="none" stroke="black" d="M-14.0774,-66.6811C-13.9738,-86.8489 -13.8554,-109.909 -13.7493,-130.566"/>
</g>
<!-- UsersController -->
<g id="node8" class="node"><title>UsersController</title>
<path fill="none" stroke="black" d="M-212.945,204.254C-212.945,204.254 -131.517,204.254 -131.517,204.254 -125.517,204.254 -119.517,198.254 -119.517,192.254 -119.517,192.254 -119.517,28.2537 -119.517,28.2537 -119.517,22.2537 -125.517,16.2537 -131.517,16.2537 -131.517,16.2537 -212.945,16.2537 -212.945,16.2537 -218.945,16.2537 -224.945,22.2537 -224.945,28.2537 -224.945,28.2537 -224.945,192.254 -224.945,192.254 -224.945,198.254 -218.945,204.254 -212.945,204.254"/>
<text text-anchor="middle" x="-172.231" y="31.4537" font-family="Times,serif" font-size="14.00">UsersController</text>
<polyline fill="none" stroke="black" points="-224.945,38.2537 -119.517,38.2537 "/>
<text text-anchor="start" x="-216.945" y="53.4537" font-family="Times,serif" font-size="14.00">dashboard</text>
<text text-anchor="start" x="-216.945" y="67.4537" font-family="Times,serif" font-size="14.00">edit</text>
<text text-anchor="start" x="-216.945" y="81.4537" font-family="Times,serif" font-size="14.00">groups</text>
<text text-anchor="start" x="-216.945" y="95.4537" font-family="Times,serif" font-size="14.00">index</text>
<text text-anchor="start" x="-216.945" y="109.454" font-family="Times,serif" font-size="14.00">show</text>
<text text-anchor="start" x="-216.945" y="123.454" font-family="Times,serif" font-size="14.00">update</text>
<polyline fill="none" stroke="black" points="-224.945,130.254 -119.517,130.254 "/>
<polyline fill="none" stroke="black" points="-224.945,154.254 -119.517,154.254 "/>
<text text-anchor="start" x="-216.945" y="169.454" font-family="Times,serif" font-size="14.00">_layout</text>
<text text-anchor="start" x="-216.945" y="183.454" font-family="Times,serif" font-size="14.00">genre_params</text>
<text text-anchor="start" x="-216.945" y="197.454" font-family="Times,serif" font-size="14.00">user_params</text>
</g>
<!-- ApplicationController&#45;&gt;UsersController -->
<g id="edge6" class="edge"><title>ApplicationController&#45;&gt;UsersController</title>
<path fill="none" stroke="black" d="M-82.223,39.8106C-94.5922,49.4911 -107.331,59.4611 -119.193,68.7443"/>
</g>
</g>
</svg>
