<?xml version="1.0" encoding="UTF-8" standalone="no"?>
<!DOCTYPE svg PUBLIC "-//W3C//DTD SVG 1.1//EN"
 "http://www.w3.org/Graphics/SVG/1.1/DTD/svg11.dtd">
<!-- Generated by graphviz version 2.38.0 (20140413.2041)
 -->
<!-- Title: controllers_diagram Pages: 1 -->
<svg width="660pt" height="526pt"
 viewBox="0.00 0.00 659.82 525.63" xmlns="http://www.w3.org/2000/svg" xmlns:xlink="http://www.w3.org/1999/xlink">
<g id="graph0" class="graph" transform="scale(1 1) rotate(0) translate(226.132 299.5)">
<title>controllers_diagram</title>
<polygon fill="white" stroke="none" points="-226.132,226.128 -226.132,-299.5 433.688,-299.5 433.688,226.128 -226.132,226.128"/>
<!-- _diagram_info -->
<g id="node1" class="node"><title>_diagram_info</title>
<text text-anchor="start" x="230.312" y="-281.1" font-family="Times,serif" font-size="13.00">Controllers diagram</text>
<text text-anchor="start" x="230.312" y="-268.1" font-family="Times,serif" font-size="13.00">Date: Jul 18 2014 &#45; 11:19</text>
<text text-anchor="start" x="230.312" y="-255.1" font-family="Times,serif" font-size="13.00">Migration version: 20140718151832</text>
<text text-anchor="start" x="230.312" y="-242.1" font-family="Times,serif" font-size="13.00">Generated by RailRoady 1.1.1</text>
<text text-anchor="start" x="230.312" y="-229.1" font-family="Times,serif" font-size="13.00">http://railroady.prestonlee.com</text>
</g>
<!-- ApplicationController -->
<g id="node2" class="node"><title>ApplicationController</title>
<path fill="none" stroke="black" d="M-61.2467,53.1169C-61.2467,53.1169 54.3949,53.1169 54.3949,53.1169 60.3949,53.1169 66.3949,47.1169 66.3949,41.1169 66.3949,41.1169 66.3949,-40.8831 66.3949,-40.8831 66.3949,-46.8831 60.3949,-52.8831 54.3949,-52.8831 54.3949,-52.8831 -61.2467,-52.8831 -61.2467,-52.8831 -67.2467,-52.8831 -73.2467,-46.8831 -73.2467,-40.8831 -73.2467,-40.8831 -73.2467,41.1169 -73.2467,41.1169 -73.2467,47.1169 -67.2467,53.1169 -61.2467,53.1169"/>
<text text-anchor="middle" x="-3.42587" y="-37.6831" font-family="Times,serif" font-size="14.00">ApplicationController</text>
<polyline fill="none" stroke="black" points="-73.2467,-30.8831 66.3949,-30.8831 "/>
<polyline fill="none" stroke="black" points="-73.2467,-6.88309 66.3949,-6.88309 "/>
<polyline fill="none" stroke="black" points="-73.2467,17.1169 66.3949,17.1169 "/>
<text text-anchor="start" x="-65.2467" y="32.3169" font-family="Times,serif" font-size="14.00">_layout</text>
<text text-anchor="start" x="-65.2467" y="46.3169" font-family="Times,serif" font-size="14.00">current_user</text>
</g>
<!-- GroupsController -->
<g id="node3" class="node"><title>GroupsController</title>
<path fill="none" stroke="black" d="M86.7411,189.052C86.7411,189.052 221.797,189.052 221.797,189.052 227.797,189.052 233.797,183.052 233.797,177.052 233.797,177.052 233.797,55.0516 233.797,55.0516 233.797,49.0516 227.797,43.0516 221.797,43.0516 221.797,43.0516 86.7411,43.0516 86.7411,43.0516 80.7411,43.0516 74.7411,49.0516 74.7411,55.0516 74.7411,55.0516 74.7411,177.052 74.7411,177.052 74.7411,183.052 80.7411,189.052 86.7411,189.052"/>
<text text-anchor="middle" x="154.269" y="58.2516" font-family="Times,serif" font-size="14.00">GroupsController</text>
<polyline fill="none" stroke="black" points="74.7411,65.0516 233.797,65.0516 "/>
<text text-anchor="start" x="82.7411" y="80.2516" font-family="Times,serif" font-size="14.00">autocomplete_user_name</text>
<text text-anchor="start" x="82.7411" y="94.2516" font-family="Times,serif" font-size="14.00">create</text>
<text text-anchor="start" x="82.7411" y="108.252" font-family="Times,serif" font-size="14.00">list</text>
<text text-anchor="start" x="82.7411" y="122.252" font-family="Times,serif" font-size="14.00">new</text>
<text text-anchor="start" x="82.7411" y="136.252" font-family="Times,serif" font-size="14.00">show</text>
<polyline fill="none" stroke="black" points="74.7411,143.052 233.797,143.052 "/>
<polyline fill="none" stroke="black" points="74.7411,167.052 233.797,167.052 "/>
<text text-anchor="start" x="82.7411" y="182.252" font-family="Times,serif" font-size="14.00">_layout</text>
</g>
<!-- ApplicationController&#45;&gt;GroupsController -->
<g id="edge1" class="edge"><title>ApplicationController&#45;&gt;GroupsController</title>
<path fill="none" stroke="black" d="M66.6597,51.6427C69.292,53.5779 71.9374,55.5228 74.5842,57.4687"/>
</g>
<!-- NotesController -->
<g id="node4" class="node"><title>NotesController</title>
<path fill="none" stroke="black" d="M-45.0883,221.628C-45.0883,221.628 37.1187,221.628 37.1187,221.628 43.1187,221.628 49.1187,215.628 49.1187,209.628 49.1187,209.628 49.1187,115.628 49.1187,115.628 49.1187,109.628 43.1187,103.628 37.1187,103.628 37.1187,103.628 -45.0883,103.628 -45.0883,103.628 -51.0883,103.628 -57.0883,109.628 -57.0883,115.628 -57.0883,115.628 -57.0883,209.628 -57.0883,209.628 -57.0883,215.628 -51.0883,221.628 -45.0883,221.628"/>
<text text-anchor="middle" x="-3.98479" y="118.828" font-family="Times,serif" font-size="14.00">NotesController</text>
<polyline fill="none" stroke="black" points="-57.0883,125.628 49.1187,125.628 "/>
<text text-anchor="start" x="-49.0883" y="140.828" font-family="Times,serif" font-size="14.00">create</text>
<text text-anchor="start" x="-49.0883" y="154.828" font-family="Times,serif" font-size="14.00">destroy</text>
<polyline fill="none" stroke="black" points="-57.0883,161.628 49.1187,161.628 "/>
<polyline fill="none" stroke="black" points="-57.0883,185.628 49.1187,185.628 "/>
<text text-anchor="start" x="-49.0883" y="200.828" font-family="Times,serif" font-size="14.00">_layout</text>
<text text-anchor="start" x="-49.0883" y="214.828" font-family="Times,serif" font-size="14.00">note_params</text>
</g>
<!-- ApplicationController&#45;&gt;NotesController -->
<g id="edge2" class="edge"><title>ApplicationController&#45;&gt;NotesController</title>
<path fill="none" stroke="black" d="M-3.60888,53.3293C-3.66396,69.3437 -3.72474,87.0145 -3.78107,103.394"/>
</g>
<!-- RequestsController -->
<g id="node5" class="node"><title>RequestsController</title>
<path fill="none" stroke="black" d="M-210.132,-56.8426C-210.132,-56.8426 -110.035,-56.8426 -110.035,-56.8426 -104.035,-56.8426 -98.0352,-62.8426 -98.0352,-68.8426 -98.0352,-68.8426 -98.0352,-162.843 -98.0352,-162.843 -98.0352,-168.843 -104.035,-174.843 -110.035,-174.843 -110.035,-174.843 -210.132,-174.843 -210.132,-174.843 -216.132,-174.843 -222.132,-168.843 -222.132,-162.843 -222.132,-162.843 -222.132,-68.8426 -222.132,-68.8426 -222.132,-62.8426 -216.132,-56.8426 -210.132,-56.8426"/>
<text text-anchor="middle" x="-160.084" y="-159.643" font-family="Times,serif" font-size="14.00">RequestsController</text>
<polyline fill="none" stroke="black" points="-222.132,-152.843 -98.0352,-152.843 "/>
<text text-anchor="start" x="-214.132" y="-137.643" font-family="Times,serif" font-size="14.00">confirm</text>
<text text-anchor="start" x="-214.132" y="-123.643" font-family="Times,serif" font-size="14.00">create</text>
<text text-anchor="start" x="-214.132" y="-109.643" font-family="Times,serif" font-size="14.00">destroy</text>
<polyline fill="none" stroke="black" points="-222.132,-102.843 -98.0352,-102.843 "/>
<polyline fill="none" stroke="black" points="-222.132,-78.8426 -98.0352,-78.8426 "/>
<text text-anchor="start" x="-214.132" y="-63.6426" font-family="Times,serif" font-size="14.00">_layout</text>
</g>
<!-- ApplicationController&#45;&gt;RequestsController -->
<g id="edge3" class="edge"><title>ApplicationController&#45;&gt;RequestsController</title>
<path fill="none" stroke="black" d="M-73.5071,-51.7579C-81.6537,-57.7881 -89.9207,-63.9074 -97.9503,-69.851"/>
</g>
<!-- SessionsController -->
<g id="node6" class="node"><title>SessionsController</title>
<path fill="none" stroke="black" d="M105.812,-63.2634C105.812,-63.2634 203.592,-63.2634 203.592,-63.2634 209.592,-63.2634 215.592,-69.2634 215.592,-75.2634 215.592,-75.2634 215.592,-155.263 215.592,-155.263 215.592,-161.263 209.592,-167.263 203.592,-167.263 203.592,-167.263 105.812,-167.263 105.812,-167.263 99.8124,-167.263 93.8124,-161.263 93.8124,-155.263 93.8124,-155.263 93.8124,-75.2634 93.8124,-75.2634 93.8124,-69.2634 99.8124,-63.2634 105.812,-63.2634"/>
<text text-anchor="middle" x="154.702" y="-152.063" font-family="Times,serif" font-size="14.00">SessionsController</text>
<polyline fill="none" stroke="black" points="93.8124,-145.263 215.592,-145.263 "/>
<text text-anchor="start" x="101.812" y="-130.063" font-family="Times,serif" font-size="14.00">create</text>
<text text-anchor="start" x="101.812" y="-116.063" font-family="Times,serif" font-size="14.00">destroy</text>
<polyline fill="none" stroke="black" points="93.8124,-109.263 215.592,-109.263 "/>
<polyline fill="none" stroke="black" points="93.8124,-85.2634 215.592,-85.2634 "/>
<text text-anchor="start" x="101.812" y="-70.0634" font-family="Times,serif" font-size="14.00">_layout</text>
</g>
<!-- ApplicationController&#45;&gt;SessionsController -->
<g id="edge4" class="edge"><title>ApplicationController&#45;&gt;SessionsController</title>
<path fill="none" stroke="black" d="M66.8522,-51.1625C75.7605,-57.6626 84.8195,-64.2726 93.5692,-70.6569"/>
</g>
<!-- StaticPagesController -->
<g id="node7" class="node"><title>StaticPagesController</title>
<path fill="none" stroke="black" d="M-59.7481,-103.393C-59.7481,-103.393 54.3418,-103.393 54.3418,-103.393 60.3418,-103.393 66.3418,-109.393 66.3418,-115.393 66.3418,-115.393 66.3418,-209.393 66.3418,-209.393 66.3418,-215.393 60.3418,-221.393 54.3418,-221.393 54.3418,-221.393 -59.7481,-221.393 -59.7481,-221.393 -65.7481,-221.393 -71.7481,-215.393 -71.7481,-209.393 -71.7481,-209.393 -71.7481,-115.393 -71.7481,-115.393 -71.7481,-109.393 -65.7481,-103.393 -59.7481,-103.393"/>
<text text-anchor="middle" x="-2.70315" y="-206.193" font-family="Times,serif" font-size="14.00">StaticPagesController</text>
<polyline fill="none" stroke="black" points="-71.7481,-199.393 66.3418,-199.393 "/>
<text text-anchor="start" x="-63.7481" y="-184.193" font-family="Times,serif" font-size="14.00">index</text>
<text text-anchor="start" x="-63.7481" y="-170.193" font-family="Times,serif" font-size="14.00">invite</text>
<text text-anchor="start" x="-63.7481" y="-156.193" font-family="Times,serif" font-size="14.00">sendinvite</text>
<polyline fill="none" stroke="black" points="-71.7481,-149.393 66.3418,-149.393 "/>
<polyline fill="none" stroke="black" points="-71.7481,-125.393 66.3418,-125.393 "/>
<text text-anchor="start" x="-63.7481" y="-110.193" font-family="Times,serif" font-size="14.00">_layout</text>
</g>
<!-- ApplicationController&#45;&gt;StaticPagesController -->
<g id="edge5" class="edge"><title>ApplicationController&#45;&gt;StaticPagesController</title>
<path fill="none" stroke="black" d="M-3.18923,-53.0949C-3.11801,-69.1091 -3.03942,-86.7798 -2.96658,-103.159"/>
</g>
<!-- UsersController -->
<g id="node8" class="node"><title>UsersController</title>
<path fill="none" stroke="black" d="M-201.238,202.453C-201.238,202.453 -119.81,202.453 -119.81,202.453 -113.81,202.453 -107.81,196.453 -107.81,190.453 -107.81,190.453 -107.81,40.4527 -107.81,40.4527 -107.81,34.4527 -113.81,28.4527 -119.81,28.4527 -119.81,28.4527 -201.238,28.4527 -201.238,28.4527 -207.238,28.4527 -213.238,34.4527 -213.238,40.4527 -213.238,40.4527 -213.238,190.453 -213.238,190.453 -213.238,196.453 -207.238,202.453 -201.238,202.453"/>
<text text-anchor="middle" x="-160.524" y="43.6527" font-family="Times,serif" font-size="14.00">UsersController</text>
<polyline fill="none" stroke="black" points="-213.238,50.4527 -107.81,50.4527 "/>
<text text-anchor="start" x="-205.238" y="65.6527" font-family="Times,serif" font-size="14.00">dashboard</text>
<text text-anchor="start" x="-205.238" y="79.6527" font-family="Times,serif" font-size="14.00">edit</text>
<text text-anchor="start" x="-205.238" y="93.6527" font-family="Times,serif" font-size="14.00">groups</text>
<text text-anchor="start" x="-205.238" y="107.653" font-family="Times,serif" font-size="14.00">show</text>
<text text-anchor="start" x="-205.238" y="121.653" font-family="Times,serif" font-size="14.00">update</text>
<polyline fill="none" stroke="black" points="-213.238,128.453 -107.81,128.453 "/>
<polyline fill="none" stroke="black" points="-213.238,152.453 -107.81,152.453 "/>
<text text-anchor="start" x="-205.238" y="167.653" font-family="Times,serif" font-size="14.00">_layout</text>
<text text-anchor="start" x="-205.238" y="181.653" font-family="Times,serif" font-size="14.00">genre_params</text>
<text text-anchor="start" x="-205.238" y="195.653" font-family="Times,serif" font-size="14.00">user_params</text>
</g>
<!-- ApplicationController&#45;&gt;UsersController -->
<g id="edge6" class="edge"><title>ApplicationController&#45;&gt;UsersController</title>
<path fill="none" stroke="black" d="M-73.7041,51.7127C-85.1415,60.1096 -96.8154,68.6802 -107.741,76.7016"/>
</g>
</g>
</svg>
