<?xml version="1.0" encoding="UTF-8" standalone="no"?>
<!DOCTYPE svg PUBLIC "-//W3C//DTD SVG 1.1//EN"
 "http://www.w3.org/Graphics/SVG/1.1/DTD/svg11.dtd">
<!-- Generated by graphviz version 2.38.0 (20140413.2041)
 -->
<!-- Title: controllers_diagram Pages: 1 -->
<svg width="700pt" height="612pt"
 viewBox="0.00 0.00 699.87 612.10" xmlns="http://www.w3.org/2000/svg" xmlns:xlink="http://www.w3.org/1999/xlink">
<g id="graph0" class="graph" transform="scale(1 1) rotate(0) translate(268.178 299.713)">
<title>controllers_diagram</title>
<polygon fill="white" stroke="none" points="-268.178,312.388 -268.178,-299.713 431.688,-299.713 431.688,312.388 -268.178,312.388"/>
<!-- _diagram_info -->
<g id="node1" class="node"><title>_diagram_info</title>
<text text-anchor="start" x="228.312" y="160.9" font-family="Times,serif" font-size="13.00">Controllers diagram</text>
<text text-anchor="start" x="228.312" y="173.9" font-family="Times,serif" font-size="13.00">Date: Jul 23 2014 &#45; 09:48</text>
<text text-anchor="start" x="228.312" y="186.9" font-family="Times,serif" font-size="13.00">Migration version: 20140722193943</text>
<text text-anchor="start" x="228.312" y="199.9" font-family="Times,serif" font-size="13.00">Generated by RailRoady 1.1.1</text>
<text text-anchor="start" x="228.312" y="212.9" font-family="Times,serif" font-size="13.00">http://railroady.prestonlee.com</text>
</g>
<!-- ApplicationController -->
<g id="node2" class="node"><title>ApplicationController</title>
<path fill="none" stroke="black" d="M-79.4642,42.9312C-79.4642,42.9312 36.1774,42.9312 36.1774,42.9312 42.1774,42.9312 48.1774,36.9312 48.1774,30.9312 48.1774,30.9312 48.1774,-51.0688 48.1774,-51.0688 48.1774,-57.0688 42.1774,-63.0688 36.1774,-63.0688 36.1774,-63.0688 -79.4642,-63.0688 -79.4642,-63.0688 -85.4642,-63.0688 -91.4642,-57.0688 -91.4642,-51.0688 -91.4642,-51.0688 -91.4642,30.9312 -91.4642,30.9312 -91.4642,36.9312 -85.4642,42.9312 -79.4642,42.9312"/>
<text text-anchor="middle" x="-21.6434" y="-47.8688" font-family="Times,serif" font-size="14.00">ApplicationController</text>
<polyline fill="none" stroke="black" points="-91.4642,-41.0688 48.1774,-41.0688 "/>
<polyline fill="none" stroke="black" points="-91.4642,-17.0688 48.1774,-17.0688 "/>
<polyline fill="none" stroke="black" points="-91.4642,6.93116 48.1774,6.93116 "/>
<text text-anchor="start" x="-83.4642" y="22.1312" font-family="Times,serif" font-size="14.00">_layout</text>
<text text-anchor="start" x="-83.4642" y="36.1312" font-family="Times,serif" font-size="14.00">current_user</text>
</g>
<!-- BooksController -->
<g id="node3" class="node"><title>BooksController</title>
<path fill="none" stroke="black" d="M110.424,23.0934C110.424,23.0934 195.755,23.0934 195.755,23.0934 201.755,23.0934 207.755,17.0934 207.755,11.0934 207.755,11.0934 207.755,-54.9066 207.755,-54.9066 207.755,-60.9066 201.755,-66.9066 195.755,-66.9066 195.755,-66.9066 110.424,-66.9066 110.424,-66.9066 104.424,-66.9066 98.4237,-60.9066 98.4237,-54.9066 98.4237,-54.9066 98.4237,11.0934 98.4237,11.0934 98.4237,17.0934 104.424,23.0934 110.424,23.0934"/>
<text text-anchor="middle" x="153.089" y="-51.7066" font-family="Times,serif" font-size="14.00">BooksController</text>
<polyline fill="none" stroke="black" points="98.4237,-44.9066 207.755,-44.9066 "/>
<text text-anchor="start" x="106.424" y="-29.7066" font-family="Times,serif" font-size="14.00">show</text>
<polyline fill="none" stroke="black" points="98.4237,-22.9066 207.755,-22.9066 "/>
<polyline fill="none" stroke="black" points="98.4237,1.09335 207.755,1.09335 "/>
<text text-anchor="start" x="106.424" y="16.2934" font-family="Times,serif" font-size="14.00">_layout</text>
</g>
<!-- ApplicationController&#45;&gt;BooksController -->
<g id="edge1" class="edge"><title>ApplicationController&#45;&gt;BooksController</title>
<path fill="none" stroke="black" d="M48.4203,-14.8155C65.0357,-15.9412 82.5209,-17.1258 98.3402,-18.1975"/>
</g>
<!-- GroupsController -->
<g id="node4" class="node"><title>GroupsController</title>
<path fill="none" stroke="black" d="M-212.933,307.888C-212.933,307.888 -77.8768,307.888 -77.8768,307.888 -71.8768,307.888 -65.8768,301.888 -65.8768,295.888 -65.8768,295.888 -65.8768,75.8882 -65.8768,75.8882 -65.8768,69.8882 -71.8768,63.8882 -77.8768,63.8882 -77.8768,63.8882 -212.933,63.8882 -212.933,63.8882 -218.933,63.8882 -224.933,69.8882 -224.933,75.8882 -224.933,75.8882 -224.933,295.888 -224.933,295.888 -224.933,301.888 -218.933,307.888 -212.933,307.888"/>
<text text-anchor="middle" x="-145.405" y="79.0882" font-family="Times,serif" font-size="14.00">GroupsController</text>
<polyline fill="none" stroke="black" points="-224.933,85.8882 -65.8768,85.8882 "/>
<text text-anchor="start" x="-216.933" y="101.088" font-family="Times,serif" font-size="14.00">autocomplete_book_title</text>
<text text-anchor="start" x="-216.933" y="115.088" font-family="Times,serif" font-size="14.00">autocomplete_user_name</text>
<text text-anchor="start" x="-216.933" y="129.088" font-family="Times,serif" font-size="14.00">create</text>
<text text-anchor="start" x="-216.933" y="143.088" font-family="Times,serif" font-size="14.00">displaybooksearch</text>
<text text-anchor="start" x="-216.933" y="157.088" font-family="Times,serif" font-size="14.00">displayusersearch</text>
<text text-anchor="start" x="-216.933" y="171.088" font-family="Times,serif" font-size="14.00">finish_book</text>
<text text-anchor="start" x="-216.933" y="185.088" font-family="Times,serif" font-size="14.00">list</text>
<text text-anchor="start" x="-216.933" y="199.088" font-family="Times,serif" font-size="14.00">new</text>
<text text-anchor="start" x="-216.933" y="213.088" font-family="Times,serif" font-size="14.00">searchbooks</text>
<text text-anchor="start" x="-216.933" y="227.088" font-family="Times,serif" font-size="14.00">searchusers</text>
<text text-anchor="start" x="-216.933" y="241.088" font-family="Times,serif" font-size="14.00">show</text>
<polyline fill="none" stroke="black" points="-224.933,247.888 -65.8768,247.888 "/>
<polyline fill="none" stroke="black" points="-224.933,271.888 -65.8768,271.888 "/>
<text text-anchor="start" x="-216.933" y="287.088" font-family="Times,serif" font-size="14.00">_layout</text>
<text text-anchor="start" x="-216.933" y="301.088" font-family="Times,serif" font-size="14.00">note_display</text>
</g>
<!-- ApplicationController&#45;&gt;GroupsController -->
<g id="edge2" class="edge"><title>ApplicationController&#45;&gt;GroupsController</title>
<path fill="none" stroke="black" d="M-55.135,42.96C-59.287,49.5341 -63.6567,56.4529 -68.1416,63.5539"/>
</g>
<!-- NotesController -->
<g id="node5" class="node"><title>NotesController</title>
<path fill="none" stroke="black" d="M-232.293,-149.213C-232.293,-149.213 -150.086,-149.213 -150.086,-149.213 -144.086,-149.213 -138.086,-155.213 -138.086,-161.213 -138.086,-161.213 -138.086,-283.213 -138.086,-283.213 -138.086,-289.213 -144.086,-295.213 -150.086,-295.213 -150.086,-295.213 -232.293,-295.213 -232.293,-295.213 -238.293,-295.213 -244.293,-289.213 -244.293,-283.213 -244.293,-283.213 -244.293,-161.213 -244.293,-161.213 -244.293,-155.213 -238.293,-149.213 -232.293,-149.213"/>
<text text-anchor="middle" x="-191.189" y="-280.013" font-family="Times,serif" font-size="14.00">NotesController</text>
<polyline fill="none" stroke="black" points="-244.293,-273.213 -138.086,-273.213 "/>
<text text-anchor="start" x="-236.293" y="-258.013" font-family="Times,serif" font-size="14.00">create</text>
<text text-anchor="start" x="-236.293" y="-244.013" font-family="Times,serif" font-size="14.00">destroy</text>
<text text-anchor="start" x="-236.293" y="-230.013" font-family="Times,serif" font-size="14.00">edit</text>
<text text-anchor="start" x="-236.293" y="-216.013" font-family="Times,serif" font-size="14.00">update</text>
<polyline fill="none" stroke="black" points="-244.293,-209.213 -138.086,-209.213 "/>
<polyline fill="none" stroke="black" points="-244.293,-185.213 -138.086,-185.213 "/>
<text text-anchor="start" x="-236.293" y="-170.013" font-family="Times,serif" font-size="14.00">_layout</text>
<text text-anchor="start" x="-236.293" y="-156.013" font-family="Times,serif" font-size="14.00">note_params</text>
</g>
<!-- ApplicationController&#45;&gt;NotesController -->
<g id="edge3" class="edge"><title>ApplicationController&#45;&gt;NotesController</title>
<path fill="none" stroke="black" d="M-64.2081,-63.328C-86.5729,-91.312 -114.2,-125.88 -137.967,-155.619"/>
</g>
<!-- RequestsController -->
<g id="node6" class="node"><title>RequestsController</title>
<path fill="none" stroke="black" d="M98.5495,-170.24C98.5495,-170.24 198.646,-170.24 198.646,-170.24 204.646,-170.24 210.646,-176.24 210.646,-182.24 210.646,-182.24 210.646,-276.24 210.646,-276.24 210.646,-282.24 204.646,-288.24 198.646,-288.24 198.646,-288.24 98.5495,-288.24 98.5495,-288.24 92.5495,-288.24 86.5495,-282.24 86.5495,-276.24 86.5495,-276.24 86.5495,-182.24 86.5495,-182.24 86.5495,-176.24 92.5495,-170.24 98.5495,-170.24"/>
<text text-anchor="middle" x="148.598" y="-273.04" font-family="Times,serif" font-size="14.00">RequestsController</text>
<polyline fill="none" stroke="black" points="86.5495,-266.24 210.646,-266.24 "/>
<text text-anchor="start" x="94.5495" y="-251.04" font-family="Times,serif" font-size="14.00">confirm</text>
<text text-anchor="start" x="94.5495" y="-237.04" font-family="Times,serif" font-size="14.00">create</text>
<text text-anchor="start" x="94.5495" y="-223.04" font-family="Times,serif" font-size="14.00">destroy</text>
<polyline fill="none" stroke="black" points="86.5495,-216.24 210.646,-216.24 "/>
<polyline fill="none" stroke="black" points="86.5495,-192.24 210.646,-192.24 "/>
<text text-anchor="start" x="94.5495" y="-177.04" font-family="Times,serif" font-size="14.00">_layout</text>
</g>
<!-- ApplicationController&#45;&gt;RequestsController -->
<g id="edge4" class="edge"><title>ApplicationController&#45;&gt;RequestsController</title>
<path fill="none" stroke="black" d="M19.5673,-63.124C44.6605,-95.4295 76.7647,-136.761 102.672,-170.114"/>
</g>
<!-- SessionsController -->
<g id="node7" class="node"><title>SessionsController</title>
<path fill="none" stroke="black" d="M-71.9201,-176.001C-71.9201,-176.001 25.8592,-176.001 25.8592,-176.001 31.8592,-176.001 37.8592,-182.001 37.8592,-188.001 37.8592,-188.001 37.8592,-268.001 37.8592,-268.001 37.8592,-274.001 31.8592,-280.001 25.8592,-280.001 25.8592,-280.001 -71.9201,-280.001 -71.9201,-280.001 -77.9201,-280.001 -83.9201,-274.001 -83.9201,-268.001 -83.9201,-268.001 -83.9201,-188.001 -83.9201,-188.001 -83.9201,-182.001 -77.9201,-176.001 -71.9201,-176.001"/>
<text text-anchor="middle" x="-23.0304" y="-264.801" font-family="Times,serif" font-size="14.00">SessionsController</text>
<polyline fill="none" stroke="black" points="-83.9201,-258.001 37.8592,-258.001 "/>
<text text-anchor="start" x="-75.9201" y="-242.801" font-family="Times,serif" font-size="14.00">create</text>
<text text-anchor="start" x="-75.9201" y="-228.801" font-family="Times,serif" font-size="14.00">destroy</text>
<polyline fill="none" stroke="black" points="-83.9201,-222.001 37.8592,-222.001 "/>
<polyline fill="none" stroke="black" points="-83.9201,-198.001 37.8592,-198.001 "/>
<text text-anchor="start" x="-75.9201" y="-182.801" font-family="Times,serif" font-size="14.00">_layout</text>
</g>
<!-- ApplicationController&#45;&gt;SessionsController -->
<g id="edge5" class="edge"><title>ApplicationController&#45;&gt;SessionsController</title>
<path fill="none" stroke="black" d="M-21.9809,-63.1024C-22.199,-97.3725 -22.4816,-141.769 -22.6986,-175.861"/>
</g>
<!-- StaticPagesController -->
<g id="node8" class="node"><title>StaticPagesController</title>
<path fill="none" stroke="black" d="M-252.178,51.0885C-252.178,51.0885 -138.088,51.0885 -138.088,51.0885 -132.088,51.0885 -126.088,45.0885 -126.088,39.0885 -126.088,39.0885 -126.088,-54.9115 -126.088,-54.9115 -126.088,-60.9115 -132.088,-66.9115 -138.088,-66.9115 -138.088,-66.9115 -252.178,-66.9115 -252.178,-66.9115 -258.178,-66.9115 -264.178,-60.9115 -264.178,-54.9115 -264.178,-54.9115 -264.178,39.0885 -264.178,39.0885 -264.178,45.0885 -258.178,51.0885 -252.178,51.0885"/>
<text text-anchor="middle" x="-195.133" y="-51.7115" font-family="Times,serif" font-size="14.00">StaticPagesController</text>
<polyline fill="none" stroke="black" points="-264.178,-44.9115 -126.088,-44.9115 "/>
<text text-anchor="start" x="-256.178" y="-29.7115" font-family="Times,serif" font-size="14.00">index</text>
<text text-anchor="start" x="-256.178" y="-15.7115" font-family="Times,serif" font-size="14.00">invite</text>
<text text-anchor="start" x="-256.178" y="-1.7115" font-family="Times,serif" font-size="14.00">sendinvite</text>
<polyline fill="none" stroke="black" points="-264.178,5.0885 -126.088,5.0885 "/>
<polyline fill="none" stroke="black" points="-264.178,29.0885 -126.088,29.0885 "/>
<text text-anchor="start" x="-256.178" y="44.2885" font-family="Times,serif" font-size="14.00">_layout</text>
</g>
<!-- ApplicationController&#45;&gt;StaticPagesController -->
<g id="edge6" class="edge"><title>ApplicationController&#45;&gt;StaticPagesController</title>
<path fill="none" stroke="black" d="M-91.7082,-9.19758C-102.993,-9.05725 -114.67,-8.91206 -125.934,-8.77198"/>
</g>
<!-- UsersController -->
<g id="node9" class="node"><title>UsersController</title>
<path fill="none" stroke="black" d="M70.8494,274.866C70.8494,274.866 152.277,274.866 152.277,274.866 158.277,274.866 164.277,268.866 164.277,262.866 164.277,262.866 164.277,98.8656 164.277,98.8656 164.277,92.8656 158.277,86.8656 152.277,86.8656 152.277,86.8656 70.8494,86.8656 70.8494,86.8656 64.8494,86.8656 58.8494,92.8656 58.8494,98.8656 58.8494,98.8656 58.8494,262.866 58.8494,262.866 58.8494,268.866 64.8494,274.866 70.8494,274.866"/>
<text text-anchor="middle" x="111.563" y="102.066" font-family="Times,serif" font-size="14.00">UsersController</text>
<polyline fill="none" stroke="black" points="58.8494,108.866 164.277,108.866 "/>
<text text-anchor="start" x="66.8494" y="124.066" font-family="Times,serif" font-size="14.00">destroy</text>
<text text-anchor="start" x="66.8494" y="138.066" font-family="Times,serif" font-size="14.00">edit</text>
<text text-anchor="start" x="66.8494" y="152.066" font-family="Times,serif" font-size="14.00">groups</text>
<text text-anchor="start" x="66.8494" y="166.066" font-family="Times,serif" font-size="14.00">index</text>
<text text-anchor="start" x="66.8494" y="180.066" font-family="Times,serif" font-size="14.00">show</text>
<text text-anchor="start" x="66.8494" y="194.066" font-family="Times,serif" font-size="14.00">update</text>
<polyline fill="none" stroke="black" points="58.8494,200.866 164.277,200.866 "/>
<polyline fill="none" stroke="black" points="58.8494,224.866 164.277,224.866 "/>
<text text-anchor="start" x="66.8494" y="240.066" font-family="Times,serif" font-size="14.00">_layout</text>
<text text-anchor="start" x="66.8494" y="254.066" font-family="Times,serif" font-size="14.00">genre_params</text>
<text text-anchor="start" x="66.8494" y="268.066" font-family="Times,serif" font-size="14.00">user_params</text>
</g>
<!-- ApplicationController&#45;&gt;UsersController -->
<g id="edge7" class="edge"><title>ApplicationController&#45;&gt;UsersController</title>
<path fill="none" stroke="black" d="M15.4621,43.117C28.857,62.3168 44.2466,84.3759 58.7282,105.133"/>
</g>
</g>
</svg>
