<?xml version="1.0" encoding="UTF-8" standalone="no"?>
<!DOCTYPE svg PUBLIC "-//W3C//DTD SVG 1.1//EN"
 "http://www.w3.org/Graphics/SVG/1.1/DTD/svg11.dtd">
<!-- Generated by graphviz version 2.38.0 (20140413.2041)
 -->
<!-- Title: controllers_diagram Pages: 1 -->
<svg width="484pt" height="384pt"
 viewBox="0.00 0.00 484.05 384.49" xmlns="http://www.w3.org/2000/svg" xmlns:xlink="http://www.w3.org/1999/xlink">
<g id="graph0" class="graph" transform="scale(1 1) rotate(0) translate(183.603 169.993)">
<title>controllers_diagram</title>
<polygon fill="white" stroke="none" points="-183.603,214.5 -183.603,-169.993 300.45,-169.993 300.45,214.5 -183.603,214.5"/>
<!-- _diagram_info -->
<g id="node1" class="node"><title>_diagram_info</title>
<text text-anchor="start" x="97.5503" y="-149.1" font-family="Times,serif" font-size="13.00">Controllers diagram</text>
<text text-anchor="start" x="97.5503" y="-136.1" font-family="Times,serif" font-size="13.00">Date: Jul 15 2014 &#45; 09:20</text>
<text text-anchor="start" x="97.5503" y="-123.1" font-family="Times,serif" font-size="13.00">Migration version: 20140714181147</text>
<text text-anchor="start" x="97.5503" y="-110.1" font-family="Times,serif" font-size="13.00">Generated by RailRoady 1.1.1</text>
<text text-anchor="start" x="97.5503" y="-97.1" font-family="Times,serif" font-size="13.00">http://railroady.prestonlee.com</text>
</g>
<!-- ApplicationController -->
<g id="node2" class="node"><title>ApplicationController</title>
<path fill="none" stroke="black" d="M-167.603,98.4767C-167.603,98.4767 -51.9616,98.4767 -51.9616,98.4767 -45.9616,98.4767 -39.9616,92.4767 -39.9616,86.4767 -39.9616,86.4767 -39.9616,4.47668 -39.9616,4.47668 -39.9616,-1.52332 -45.9616,-7.52332 -51.9616,-7.52332 -51.9616,-7.52332 -167.603,-7.52332 -167.603,-7.52332 -173.603,-7.52332 -179.603,-1.52332 -179.603,4.47668 -179.603,4.47668 -179.603,86.4767 -179.603,86.4767 -179.603,92.4767 -173.603,98.4767 -167.603,98.4767"/>
<text text-anchor="middle" x="-109.782" y="7.67668" font-family="Times,serif" font-size="14.00">ApplicationController</text>
<polyline fill="none" stroke="black" points="-179.603,14.4767 -39.9616,14.4767 "/>
<polyline fill="none" stroke="black" points="-179.603,38.4767 -39.9616,38.4767 "/>
<polyline fill="none" stroke="black" points="-179.603,62.4767 -39.9616,62.4767 "/>
<text text-anchor="start" x="-171.603" y="77.6767" font-family="Times,serif" font-size="14.00">_layout</text>
<text text-anchor="start" x="-171.603" y="91.6767" font-family="Times,serif" font-size="14.00">current_user</text>
</g>
<!-- SessionsController -->
<g id="node3" class="node"><title>SessionsController</title>
<path fill="none" stroke="black" d="M43.1583,60.3824C43.1583,60.3824 140.938,60.3824 140.938,60.3824 146.938,60.3824 152.938,54.3824 152.938,48.3824 152.938,48.3824 152.938,-31.6176 152.938,-31.6176 152.938,-37.6176 146.938,-43.6176 140.938,-43.6176 140.938,-43.6176 43.1583,-43.6176 43.1583,-43.6176 37.1583,-43.6176 31.1583,-37.6176 31.1583,-31.6176 31.1583,-31.6176 31.1583,48.3824 31.1583,48.3824 31.1583,54.3824 37.1583,60.3824 43.1583,60.3824"/>
<text text-anchor="middle" x="92.048" y="-28.4176" font-family="Times,serif" font-size="14.00">SessionsController</text>
<polyline fill="none" stroke="black" points="31.1583,-21.6176 152.938,-21.6176 "/>
<text text-anchor="start" x="39.1583" y="-6.41755" font-family="Times,serif" font-size="14.00">create</text>
<text text-anchor="start" x="39.1583" y="7.58245" font-family="Times,serif" font-size="14.00">destroy</text>
<polyline fill="none" stroke="black" points="31.1583,14.3824 152.938,14.3824 "/>
<polyline fill="none" stroke="black" points="31.1583,38.3824 152.938,38.3824 "/>
<text text-anchor="start" x="39.1583" y="53.5824" font-family="Times,serif" font-size="14.00">_layout</text>
</g>
<!-- ApplicationController&#45;&gt;SessionsController -->
<g id="edge1" class="edge"><title>ApplicationController&#45;&gt;SessionsController</title>
<path fill="none" stroke="black" d="M-39.7584,32.607C-16.7598,28.3801 8.60777,23.7178 30.8952,19.6217"/>
</g>
<!-- StaticPagesController -->
<g id="node4" class="node"><title>StaticPagesController</title>
<path fill="none" stroke="black" d="M-96.2563,210C-96.2563,210 17.8336,210 17.8336,210 23.8336,210 29.8336,204 29.8336,198 29.8336,198 29.8336,132 29.8336,132 29.8336,126 23.8336,120 17.8336,120 17.8336,120 -96.2563,120 -96.2563,120 -102.256,120 -108.256,126 -108.256,132 -108.256,132 -108.256,198 -108.256,198 -108.256,204 -102.256,210 -96.2563,210"/>
<text text-anchor="middle" x="-39.2113" y="135.2" font-family="Times,serif" font-size="14.00">StaticPagesController</text>
<polyline fill="none" stroke="black" points="-108.256,142 29.8336,142 "/>
<text text-anchor="start" x="-100.256" y="157.2" font-family="Times,serif" font-size="14.00">index</text>
<polyline fill="none" stroke="black" points="-108.256,164 29.8336,164 "/>
<polyline fill="none" stroke="black" points="-108.256,188 29.8336,188 "/>
<text text-anchor="start" x="-100.256" y="203.2" font-family="Times,serif" font-size="14.00">_layout</text>
</g>
<!-- ApplicationController&#45;&gt;StaticPagesController -->
<g id="edge2" class="edge"><title>ApplicationController&#45;&gt;StaticPagesController</title>
<path fill="none" stroke="black" d="M-78.418,98.5972C-74.2214,105.705 -69.9499,112.939 -65.8449,119.892"/>
</g>
<!-- UsersController -->
<g id="node5" class="node"><title>UsersController</title>
<path fill="none" stroke="black" d="M-120.813,-19.4931C-120.813,-19.4931 -39.3854,-19.4931 -39.3854,-19.4931 -33.3854,-19.4931 -27.3854,-25.4931 -27.3854,-31.4931 -27.3854,-31.4931 -27.3854,-153.493 -27.3854,-153.493 -27.3854,-159.493 -33.3854,-165.493 -39.3854,-165.493 -39.3854,-165.493 -120.813,-165.493 -120.813,-165.493 -126.813,-165.493 -132.813,-159.493 -132.813,-153.493 -132.813,-153.493 -132.813,-31.4931 -132.813,-31.4931 -132.813,-25.4931 -126.813,-19.4931 -120.813,-19.4931"/>
<text text-anchor="middle" x="-80.0993" y="-150.293" font-family="Times,serif" font-size="14.00">UsersController</text>
<polyline fill="none" stroke="black" points="-132.813,-143.493 -27.3854,-143.493 "/>
<text text-anchor="start" x="-124.813" y="-128.293" font-family="Times,serif" font-size="14.00">dashboard</text>
<text text-anchor="start" x="-124.813" y="-114.293" font-family="Times,serif" font-size="14.00">edit</text>
<text text-anchor="start" x="-124.813" y="-100.293" font-family="Times,serif" font-size="14.00">show</text>
<text text-anchor="start" x="-124.813" y="-86.2931" font-family="Times,serif" font-size="14.00">update</text>
<polyline fill="none" stroke="black" points="-132.813,-79.4931 -27.3854,-79.4931 "/>
<polyline fill="none" stroke="black" points="-132.813,-55.4931 -27.3854,-55.4931 "/>
<text text-anchor="start" x="-124.813" y="-40.2931" font-family="Times,serif" font-size="14.00">_layout</text>
<text text-anchor="start" x="-124.813" y="-26.2931" font-family="Times,serif" font-size="14.00">user_params</text>
</g>
<!-- ApplicationController&#45;&gt;UsersController -->
<g id="edge3" class="edge"><title>ApplicationController&#45;&gt;UsersController</title>
<path fill="none" stroke="black" d="M-98.3062,-7.86603C-97.4905,-11.6575 -96.6604,-15.5155 -95.8267,-19.3909"/>
</g>
</g>
</svg>
