<?xml version="1.0" encoding="UTF-8" standalone="no"?>
<!DOCTYPE svg PUBLIC "-//W3C//DTD SVG 1.1//EN"
 "http://www.w3.org/Graphics/SVG/1.1/DTD/svg11.dtd">
<!-- Generated by graphviz version 2.38.0 (20140413.2041)
 -->
<!-- Title: models_diagram Pages: 1 -->
<svg width="559pt" height="313pt"
 viewBox="0.00 0.00 559.45 313.00" xmlns="http://www.w3.org/2000/svg" xmlns:xlink="http://www.w3.org/1999/xlink">
<g id="graph0" class="graph" transform="scale(1 1) rotate(0) translate(4 309)">
<title>models_diagram</title>
<polygon fill="white" stroke="none" points="-4,4 -4,-309 555.455,-309 555.455,4 -4,4"/>
<!-- _diagram_info -->
<g id="node1" class="node"><title>_diagram_info</title>
<text text-anchor="start" x="8" y="-290.6" font-family="Times,serif" font-size="13.00">Models diagram</text>
<text text-anchor="start" x="8" y="-277.6" font-family="Times,serif" font-size="13.00">Date: Jul 15 2014 &#45; 09:20</text>
<text text-anchor="start" x="8" y="-264.6" font-family="Times,serif" font-size="13.00">Migration version: 20140714181147</text>
<text text-anchor="start" x="8" y="-251.6" font-family="Times,serif" font-size="13.00">Generated by RailRoady 1.1.1</text>
<text text-anchor="start" x="8" y="-238.6" font-family="Times,serif" font-size="13.00">http://railroady.prestonlee.com</text>
</g>
<!-- Book -->
<g id="node2" class="node"><title>Book</title>
<ellipse fill="none" stroke="black" cx="50.4497" cy="-104" rx="29.0429" ry="18"/>
<text text-anchor="middle" x="50.4497" y="-99.8" font-family="Times,serif" font-size="14.00">Book</text>
</g>
<!-- Group -->
<g id="node3" class="node"><title>Group</title>
<ellipse fill="none" stroke="black" cx="238.45" cy="-177" rx="32.9081" ry="18"/>
<text text-anchor="middle" x="238.45" y="-172.8" font-family="Times,serif" font-size="14.00">Group</text>
</g>
<!-- Group&#45;&gt;Book -->
<g id="edge3" class="edge"><title>Group&#45;&gt;Book</title>
<path fill="none" stroke="#33bc49" d="M203.292,-164.18C172.714,-153.701 127.333,-137.671 88.4497,-122 85.9695,-121 83.4124,-119.935 80.8524,-118.843"/>
<ellipse fill="none" stroke="#33bc49" cx="207.335" cy="-165.56" rx="4.00001" ry="4.00001"/>
<ellipse fill="#33bc49" stroke="#33bc49" cx="76.9059" cy="-117.125" rx="4.00002" ry="4.00002"/>
</g>
<!-- Note -->
<g id="node4" class="node"><title>Note</title>
<ellipse fill="none" stroke="black" cx="509.45" cy="-104" rx="27.0958" ry="18"/>
<text text-anchor="middle" x="509.45" y="-99.8" font-family="Times,serif" font-size="14.00">Note</text>
</g>
<!-- Group&#45;&gt;Note -->
<g id="edge4" class="edge"><title>Group&#45;&gt;Note</title>
<path fill="none" stroke="#823850" d="M276.939,-168.207C333.81,-156.515 437.445,-134.474 473.45,-122 475.311,-121.355 477.204,-120.643 479.099,-119.887"/>
<ellipse fill="none" stroke="#823850" cx="272.819" cy="-169.052" rx="4.00001" ry="4.00001"/>
<polygon fill="#823850" stroke="#823850" points="479.268,-119.814 490.232,-119.974 483.857,-117.829 488.446,-115.844 488.446,-115.844 488.446,-115.844 483.857,-117.829 486.66,-111.714 479.268,-119.814 479.268,-119.814"/>
</g>
<!-- Request -->
<g id="node5" class="node"><title>Request</title>
<ellipse fill="none" stroke="black" cx="354.45" cy="-18" rx="38.6955" ry="18"/>
<text text-anchor="middle" x="354.45" y="-13.8" font-family="Times,serif" font-size="14.00">Request</text>
</g>
<!-- Group&#45;&gt;Request -->
<g id="edge2" class="edge"><title>Group&#45;&gt;Request</title>
<path fill="none" stroke="#df73e4" d="M236.357,-150.984C235.964,-131.78 238.162,-105.361 250.45,-86 266.131,-61.2916 294.581,-43.905 317.766,-33.0457"/>
<ellipse fill="none" stroke="#df73e4" cx="236.518" cy="-154.992" rx="4" ry="4"/>
<ellipse fill="#df73e4" stroke="#df73e4" cx="321.438" cy="-31.3913" rx="4.00002" ry="4.00002"/>
</g>
<!-- User -->
<g id="node6" class="node"><title>User</title>
<ellipse fill="none" stroke="black" cx="286.45" cy="-104" rx="27" ry="18"/>
<text text-anchor="middle" x="286.45" y="-99.8" font-family="Times,serif" font-size="14.00">User</text>
</g>
<!-- Group&#45;&gt;User -->
<g id="edge6" class="edge"><title>Group&#45;&gt;User</title>
<path fill="none" stroke="#adb4cc" d="M255.034,-151.469C259.821,-144.388 265.044,-136.662 269.833,-129.579"/>
<polygon fill="#adb4cc" stroke="#adb4cc" points="254.942,-151.605 245.614,-157.369 252.142,-155.747 249.342,-159.889 249.342,-159.889 249.342,-159.889 252.142,-155.747 253.07,-162.409 254.942,-151.605 254.942,-151.605"/>
<polygon fill="#adb4cc" stroke="#adb4cc" points="270,-129.332 279.329,-123.568 272.8,-125.189 275.601,-121.047 275.601,-121.047 275.601,-121.047 272.8,-125.189 271.873,-118.527 270,-129.332 270,-129.332"/>
</g>
<!-- GroupsUser -->
<g id="node8" class="node"><title>GroupsUser</title>
<ellipse fill="none" stroke="black" cx="150.45" cy="-104" rx="52.6865" ry="18"/>
<text text-anchor="middle" x="150.45" y="-99.8" font-family="Times,serif" font-size="14.00">GroupsUser</text>
</g>
<!-- Group&#45;&gt;GroupsUser -->
<g id="edge5" class="edge"><title>Group&#45;&gt;GroupsUser</title>
<path fill="none" stroke="#613d4c" d="M214.125,-156.375C202.958,-147.364 189.66,-136.636 178.112,-127.319"/>
<ellipse fill="none" stroke="#613d4c" cx="217.528" cy="-159.12" rx="4.00002" ry="4.00002"/>
<polygon fill="#613d4c" stroke="#613d4c" points="177.851,-127.108 172.894,-117.327 173.96,-123.969 170.069,-120.829 170.069,-120.829 170.069,-120.829 173.96,-123.969 167.243,-124.331 177.851,-127.108 177.851,-127.108"/>
</g>
<!-- User&#45;&gt;Request -->
<g id="edge10" class="edge"><title>User&#45;&gt;Request</title>
<path fill="none" stroke="#a1533f" d="M304.014,-81.3024C313.493,-69.594 325.215,-55.1138 334.972,-43.0608"/>
<ellipse fill="none" stroke="#a1533f" cx="301.439" cy="-84.4841" rx="4.00002" ry="4.00002"/>
<polygon fill="#a1533f" stroke="#a1533f" points="335.069,-42.9405 344.859,-37.9995 338.215,-39.0543 341.361,-35.1681 341.361,-35.1681 341.361,-35.1681 338.215,-39.0543 337.864,-32.3367 335.069,-42.9405 335.069,-42.9405"/>
</g>
<!-- User&#45;&gt;Request -->
<g id="edge12" class="edge"><title>User&#45;&gt;Request</title>
<path fill="none" stroke="#668411" d="M310.075,-84.636C315.798,-79.5877 321.645,-73.8749 326.45,-68 332.246,-60.9135 337.541,-52.4723 341.929,-44.6094"/>
<ellipse fill="none" stroke="#668411" cx="307.016" cy="-87.2379" rx="4.00002" ry="4.00002"/>
<polygon fill="#668411" stroke="#668411" points="341.94,-44.5881 350.611,-37.8748 344.289,-40.1743 346.638,-35.7605 346.638,-35.7605 346.638,-35.7605 344.289,-40.1743 342.666,-33.6462 341.94,-44.5881 341.94,-44.5881"/>
<text text-anchor="middle" x="382.095" y="-56.8" font-family="Times,serif" font-size="14.00">reverse_requests</text>
</g>
<!-- User&#45;&gt;User -->
<g id="edge11" class="edge"><title>User&#45;&gt;User</title>
<path fill="none" stroke="#6e381e" d="M323.393,-106.972C328.239,-106.463 331.45,-105.472 331.45,-104 331.45,-102.528 328.239,-101.537 323.393,-101.028"/>
<polygon fill="#6e381e" stroke="#6e381e" points="323.237,-106.978 313.069,-102.871 318.241,-107.173 313.245,-107.368 313.245,-107.368 313.245,-107.368 318.241,-107.173 313.42,-111.864 323.237,-106.978 323.237,-106.978"/>
<polygon fill="#6e381e" stroke="#6e381e" points="323.237,-101.022 313.42,-96.1358 318.241,-100.827 313.245,-100.632 313.245,-100.632 313.245,-100.632 318.241,-100.827 313.069,-105.129 323.237,-101.022 323.237,-101.022"/>
<text text-anchor="middle" x="360.995" y="-99.8" font-family="Times,serif" font-size="14.00">requesteds</text>
</g>
<!-- User&#45;&gt;User -->
<g id="edge13" class="edge"><title>User&#45;&gt;User</title>
<path fill="none" stroke="#ea90f7" d="M322.506,-109.983C353.4,-112.011 390.54,-110.017 390.54,-104 390.54,-97.9829 353.4,-95.9886 322.506,-98.0172"/>
<polygon fill="#ea90f7" stroke="#ea90f7" points="322.297,-109.966 312.702,-104.656 317.314,-109.553 312.331,-109.141 312.331,-109.141 312.331,-109.141 317.314,-109.553 311.96,-113.625 322.297,-109.966 322.297,-109.966"/>
<polygon fill="#ea90f7" stroke="#ea90f7" points="322.297,-98.0344 311.96,-94.3747 317.314,-98.4469 312.331,-98.8593 312.331,-98.8593 312.331,-98.8593 317.314,-98.4469 312.702,-103.344 322.297,-98.0344 322.297,-98.0344"/>
<text text-anchor="middle" x="418.916" y="-99.8" font-family="Times,serif" font-size="14.00">requesters</text>
</g>
<!-- UsersGroup -->
<g id="node9" class="node"><title>UsersGroup</title>
<ellipse fill="none" stroke="black" cx="245.45" cy="-18" rx="52.6865" ry="18"/>
<text text-anchor="middle" x="245.45" y="-13.8" font-family="Times,serif" font-size="14.00">UsersGroup</text>
</g>
<!-- User&#45;&gt;UsersGroup -->
<g id="edge14" class="edge"><title>User&#45;&gt;UsersGroup</title>
<path fill="none" stroke="#2bea81" d="M274.791,-79.1136C269.577,-68.431 263.419,-55.8144 258.094,-44.9049"/>
<ellipse fill="none" stroke="#2bea81" cx="276.595" cy="-82.8096" rx="4.00002" ry="4.00002"/>
<polygon fill="#2bea81" stroke="#2bea81" points="258.06,-44.8354 257.717,-33.8749 255.867,-40.3421 253.673,-35.8487 253.673,-35.8487 253.673,-35.8487 255.867,-40.3421 249.629,-37.8226 258.06,-44.8354 258.06,-44.8354"/>
</g>
<!-- ActiveRecord::Base -->
<g id="node7" class="node"><title>ActiveRecord::Base</title>
<ellipse fill="none" stroke="black" cx="306.45" cy="-268.5" rx="81.1422" ry="18"/>
<text text-anchor="middle" x="306.45" y="-264.3" font-family="Times,serif" font-size="14.00">ActiveRecord::Base</text>
</g>
<!-- ActiveRecord::Base&#45;&gt;Book -->
<g id="edge1" class="edge"><title>ActiveRecord::Base&#45;&gt;Book</title>
<path fill="none" stroke="black" d="M280.968,-251.325C229.874,-218.892 115.888,-146.538 70.0729,-117.456"/>
</g>
<!-- ActiveRecord::Base&#45;&gt;Group -->
<g id="edge7" class="edge"><title>ActiveRecord::Base&#45;&gt;Group</title>
<path fill="none" stroke="black" d="M293.659,-250.666C281.271,-234.361 262.628,-209.823 250.498,-193.857"/>
</g>
<!-- ActiveRecord::Base&#45;&gt;Note -->
<g id="edge8" class="edge"><title>ActiveRecord::Base&#45;&gt;Note</title>
<path fill="none" stroke="black" d="M327.032,-251.024C367.25,-218.83 455.567,-148.132 492.592,-118.494"/>
</g>
<!-- ActiveRecord::Base&#45;&gt;Request -->
<g id="edge9" class="edge"><title>ActiveRecord::Base&#45;&gt;Request</title>
<path fill="none" stroke="black" d="M355.416,-254.02C413.077,-235.182 505.99,-194.821 545.45,-122 579.777,-58.6512 456.215,-32.4687 391.513,-23.2766"/>
</g>
<!-- ActiveRecord::Base&#45;&gt;User -->
<g id="edge15" class="edge"><title>ActiveRecord::Base&#45;&gt;User</title>
<path fill="none" stroke="black" d="M304.347,-250.417C300.516,-219.289 292.439,-153.663 288.584,-122.343"/>
</g>
</g>
</svg>
