<?xml version="1.0" encoding="UTF-8" standalone="no"?>
<!DOCTYPE svg PUBLIC "-//W3C//DTD SVG 1.1//EN"
 "http://www.w3.org/Graphics/SVG/1.1/DTD/svg11.dtd">
<!-- Generated by graphviz version 2.38.0 (20140413.2041)
 -->
<!-- Title: models_diagram Pages: 1 -->
<svg width="847pt" height="648pt"
 viewBox="0.00 0.00 846.52 648.00" xmlns="http://www.w3.org/2000/svg" xmlns:xlink="http://www.w3.org/1999/xlink">
<g id="graph0" class="graph" transform="scale(1 1) rotate(0) translate(4 644)">
<title>models_diagram</title>
<polygon fill="white" stroke="none" points="-4,4 -4,-644 842.522,-644 842.522,4 -4,4"/>
<!-- _diagram_info -->
<g id="node1" class="node"><title>_diagram_info</title>
<text text-anchor="start" x="13.8176" y="-625.6" font-family="Times,serif" font-size="13.00">Models diagram</text>
<text text-anchor="start" x="13.8176" y="-612.6" font-family="Times,serif" font-size="13.00">Date: Jul 15 2014 &#45; 16:46</text>
<text text-anchor="start" x="13.8176" y="-599.6" font-family="Times,serif" font-size="13.00">Migration version: 20140715133313</text>
<text text-anchor="start" x="13.8176" y="-586.6" font-family="Times,serif" font-size="13.00">Generated by RailRoady 1.1.1</text>
<text text-anchor="start" x="13.8176" y="-573.6" font-family="Times,serif" font-size="13.00">http://railroady.prestonlee.com</text>
</g>
<!-- Book -->
<g id="node2" class="node"><title>Book</title>
<path fill="none" stroke="black" d="M12,-228.5C12,-228.5 121.011,-228.5 121.011,-228.5 127.011,-228.5 133.011,-234.5 133.011,-240.5 133.011,-240.5 133.011,-358.5 133.011,-358.5 133.011,-364.5 127.011,-370.5 121.011,-370.5 121.011,-370.5 12,-370.5 12,-370.5 6,-370.5 0,-364.5 0,-358.5 0,-358.5 0,-240.5 0,-240.5 0,-234.5 6,-228.5 12,-228.5"/>
<text text-anchor="middle" x="66.5054" y="-355.3" font-family="Times,serif" font-size="14.00">Book</text>
<polyline fill="none" stroke="black" points="0,-348.5 133.011,-348.5 "/>
<text text-anchor="start" x="8" y="-333.3" font-family="Times,serif" font-size="14.00">id :integer</text>
<text text-anchor="start" x="8" y="-319.3" font-family="Times,serif" font-size="14.00">group_id :integer</text>
<text text-anchor="start" x="8" y="-305.3" font-family="Times,serif" font-size="14.00">created_at :datetime</text>
<text text-anchor="start" x="8" y="-291.3" font-family="Times,serif" font-size="14.00">updated_at :datetime</text>
<text text-anchor="start" x="8" y="-277.3" font-family="Times,serif" font-size="14.00">title :string</text>
<text text-anchor="start" x="8" y="-263.3" font-family="Times,serif" font-size="14.00">isbn :string</text>
<text text-anchor="start" x="8" y="-249.3" font-family="Times,serif" font-size="14.00">summary :text</text>
<text text-anchor="start" x="8" y="-235.3" font-family="Times,serif" font-size="14.00">author :string</text>
</g>
<!-- Group -->
<g id="node3" class="node"><title>Group</title>
<path fill="none" stroke="black" d="M258,-457.5C258,-457.5 367.011,-457.5 367.011,-457.5 373.011,-457.5 379.011,-463.5 379.011,-469.5 379.011,-469.5 379.011,-517.5 379.011,-517.5 379.011,-523.5 373.011,-529.5 367.011,-529.5 367.011,-529.5 258,-529.5 258,-529.5 252,-529.5 246,-523.5 246,-517.5 246,-517.5 246,-469.5 246,-469.5 246,-463.5 252,-457.5 258,-457.5"/>
<text text-anchor="middle" x="312.505" y="-514.3" font-family="Times,serif" font-size="14.00">Group</text>
<polyline fill="none" stroke="black" points="246,-507.5 379.011,-507.5 "/>
<text text-anchor="start" x="254" y="-492.3" font-family="Times,serif" font-size="14.00">id :integer</text>
<text text-anchor="start" x="254" y="-478.3" font-family="Times,serif" font-size="14.00">created_at :datetime</text>
<text text-anchor="start" x="254" y="-464.3" font-family="Times,serif" font-size="14.00">updated_at :datetime</text>
</g>
<!-- Group&#45;&gt;Book -->
<g id="edge3" class="edge"><title>Group&#45;&gt;Book</title>
<path fill="none" stroke="#3cc205" d="M237.961,-472.011C205.773,-460.51 169.228,-443.62 141.505,-420 127.601,-408.153 115.432,-393.067 105.169,-377.634"/>
<ellipse fill="none" stroke="#3cc205" cx="241.834" cy="-473.359" rx="4.00001" ry="4.00001"/>
<ellipse fill="#3cc205" stroke="#3cc205" cx="102.755" cy="-373.891" rx="4.00002" ry="4.00002"/>
</g>
<!-- Note -->
<g id="node4" class="node"><title>Note</title>
<path fill="none" stroke="black" d="M163,-242.5C163,-242.5 272.011,-242.5 272.011,-242.5 278.011,-242.5 284.011,-248.5 284.011,-254.5 284.011,-254.5 284.011,-344.5 284.011,-344.5 284.011,-350.5 278.011,-356.5 272.011,-356.5 272.011,-356.5 163,-356.5 163,-356.5 157,-356.5 151,-350.5 151,-344.5 151,-344.5 151,-254.5 151,-254.5 151,-248.5 157,-242.5 163,-242.5"/>
<text text-anchor="middle" x="217.505" y="-341.3" font-family="Times,serif" font-size="14.00">Note</text>
<polyline fill="none" stroke="black" points="151,-334.5 284.011,-334.5 "/>
<text text-anchor="start" x="159" y="-319.3" font-family="Times,serif" font-size="14.00">id :integer</text>
<text text-anchor="start" x="159" y="-305.3" font-family="Times,serif" font-size="14.00">group_id :integer</text>
<text text-anchor="start" x="159" y="-291.3" font-family="Times,serif" font-size="14.00">pagenumber :string</text>
<text text-anchor="start" x="159" y="-277.3" font-family="Times,serif" font-size="14.00">body :text</text>
<text text-anchor="start" x="159" y="-263.3" font-family="Times,serif" font-size="14.00">created_at :datetime</text>
<text text-anchor="start" x="159" y="-249.3" font-family="Times,serif" font-size="14.00">updated_at :datetime</text>
</g>
<!-- Group&#45;&gt;Note -->
<g id="edge4" class="edge"><title>Group&#45;&gt;Note</title>
<path fill="none" stroke="#6715be" d="M291.367,-449.777C279.16,-425.107 263.554,-393.568 249.835,-365.84"/>
<ellipse fill="none" stroke="#6715be" cx="293.307" cy="-453.699" rx="4.00002" ry="4.00002"/>
<polygon fill="#6715be" stroke="#6715be" points="249.697,-365.562 249.296,-354.603 247.48,-361.08 245.263,-356.599 245.263,-356.599 245.263,-356.599 247.48,-361.08 241.229,-358.595 249.697,-365.562 249.697,-365.562"/>
</g>
<!-- Request -->
<g id="node5" class="node"><title>Request</title>
<path fill="none" stroke="black" d="M488.61,-0.5C488.61,-0.5 598.4,-0.5 598.4,-0.5 604.4,-0.5 610.4,-6.5 610.4,-12.5 610.4,-12.5 610.4,-116.5 610.4,-116.5 610.4,-122.5 604.4,-128.5 598.4,-128.5 598.4,-128.5 488.61,-128.5 488.61,-128.5 482.61,-128.5 476.61,-122.5 476.61,-116.5 476.61,-116.5 476.61,-12.5 476.61,-12.5 476.61,-6.5 482.61,-0.5 488.61,-0.5"/>
<text text-anchor="middle" x="543.505" y="-113.3" font-family="Times,serif" font-size="14.00">Request</text>
<polyline fill="none" stroke="black" points="476.61,-106.5 610.4,-106.5 "/>
<text text-anchor="start" x="484.61" y="-91.3" font-family="Times,serif" font-size="14.00">id :integer</text>
<text text-anchor="start" x="484.61" y="-77.3" font-family="Times,serif" font-size="14.00">status :boolean</text>
<text text-anchor="start" x="484.61" y="-63.3" font-family="Times,serif" font-size="14.00">created_at :datetime</text>
<text text-anchor="start" x="484.61" y="-49.3" font-family="Times,serif" font-size="14.00">updated_at :datetime</text>
<text text-anchor="start" x="484.61" y="-35.3" font-family="Times,serif" font-size="14.00">requested_id :integer</text>
<text text-anchor="start" x="484.61" y="-21.3" font-family="Times,serif" font-size="14.00">requester_id :integer</text>
<text text-anchor="start" x="484.61" y="-7.3" font-family="Times,serif" font-size="14.00">group_id :integer</text>
</g>
<!-- Group&#45;&gt;Request -->
<g id="edge2" class="edge"><title>Group&#45;&gt;Request</title>
<path fill="none" stroke="#403cc0" d="M309.474,-448.936C305.096,-373.008 300.602,-220.549 331.505,-179 369.939,-127.326 411.752,-161.232 467.505,-129 468.157,-128.624 468.808,-128.241 469.459,-127.854"/>
<ellipse fill="none" stroke="#403cc0" cx="309.739" cy="-453.37" rx="4" ry="4"/>
<ellipse fill="#403cc0" stroke="#403cc0" cx="473.022" cy="-125.629" rx="4.00002" ry="4.00002"/>
</g>
<!-- User -->
<g id="node6" class="node"><title>User</title>
<path fill="none" stroke="black" d="M475.893,-179.5C475.893,-179.5 619.118,-179.5 619.118,-179.5 625.118,-179.5 631.118,-185.5 631.118,-191.5 631.118,-191.5 631.118,-407.5 631.118,-407.5 631.118,-413.5 625.118,-419.5 619.118,-419.5 619.118,-419.5 475.893,-419.5 475.893,-419.5 469.893,-419.5 463.893,-413.5 463.893,-407.5 463.893,-407.5 463.893,-191.5 463.893,-191.5 463.893,-185.5 469.893,-179.5 475.893,-179.5"/>
<text text-anchor="middle" x="547.505" y="-404.3" font-family="Times,serif" font-size="14.00">User</text>
<polyline fill="none" stroke="black" points="463.893,-397.5 631.118,-397.5 "/>
<text text-anchor="start" x="471.893" y="-382.3" font-family="Times,serif" font-size="14.00">id :integer</text>
<text text-anchor="start" x="471.893" y="-368.3" font-family="Times,serif" font-size="14.00">fname :string</text>
<text text-anchor="start" x="471.893" y="-354.3" font-family="Times,serif" font-size="14.00">lname :string</text>
<text text-anchor="start" x="471.893" y="-340.3" font-family="Times,serif" font-size="14.00">email :string</text>
<text text-anchor="start" x="471.893" y="-326.3" font-family="Times,serif" font-size="14.00">created_at :datetime</text>
<text text-anchor="start" x="471.893" y="-312.3" font-family="Times,serif" font-size="14.00">updated_at :datetime</text>
<text text-anchor="start" x="471.893" y="-298.3" font-family="Times,serif" font-size="14.00">provider :string</text>
<text text-anchor="start" x="471.893" y="-284.3" font-family="Times,serif" font-size="14.00">uid :string</text>
<text text-anchor="start" x="471.893" y="-270.3" font-family="Times,serif" font-size="14.00">name :string</text>
<text text-anchor="start" x="471.893" y="-256.3" font-family="Times,serif" font-size="14.00">oauth_token :string</text>
<text text-anchor="start" x="471.893" y="-242.3" font-family="Times,serif" font-size="14.00">oauth_expires_at :datetime</text>
<text text-anchor="start" x="471.893" y="-228.3" font-family="Times,serif" font-size="14.00">image :string</text>
<text text-anchor="start" x="471.893" y="-214.3" font-family="Times,serif" font-size="14.00">gender :string</text>
<text text-anchor="start" x="471.893" y="-200.3" font-family="Times,serif" font-size="14.00">location :string</text>
<text text-anchor="start" x="471.893" y="-186.3" font-family="Times,serif" font-size="14.00">birthday :date</text>
</g>
<!-- Group&#45;&gt;User -->
<g id="edge6" class="edge"><title>Group&#45;&gt;User</title>
<path fill="none" stroke="#c529ef" d="M388.257,-461.89C411.179,-450.643 435.544,-436.541 455.505,-420 455.77,-419.781 456.034,-419.561 456.298,-419.34"/>
<polygon fill="#c529ef" stroke="#c529ef" points="388.239,-461.899 377.276,-462.159 383.729,-464.058 379.219,-466.217 379.219,-466.217 379.219,-466.217 383.729,-464.058 381.162,-470.276 388.239,-461.899 388.239,-461.899"/>
<polygon fill="#c529ef" stroke="#c529ef" points="456.351,-419.293 466.836,-416.079 460.109,-415.995 463.867,-412.697 463.867,-412.697 463.867,-412.697 460.109,-415.995 460.899,-409.315 456.351,-419.293 456.351,-419.293"/>
</g>
<!-- GroupsUser -->
<g id="node8" class="node"><title>GroupsUser</title>
<ellipse fill="none" stroke="black" cx="393.505" cy="-299.5" rx="52.6865" ry="18"/>
<text text-anchor="middle" x="393.505" y="-295.3" font-family="Times,serif" font-size="14.00">GroupsUser</text>
</g>
<!-- Group&#45;&gt;GroupsUser -->
<g id="edge5" class="edge"><title>Group&#45;&gt;GroupsUser</title>
<path fill="none" stroke="#4eeddb" d="M330.535,-449.764C346.354,-412.267 368.864,-358.909 382.248,-327.184"/>
<ellipse fill="none" stroke="#4eeddb" cx="328.917" cy="-453.599" rx="4.00002" ry="4.00002"/>
<polygon fill="#4eeddb" stroke="#4eeddb" points="382.366,-326.905 390.399,-319.441 384.309,-322.299 386.253,-317.692 386.253,-317.692 386.253,-317.692 384.309,-322.299 382.106,-315.943 382.366,-326.905 382.366,-326.905"/>
</g>
<!-- User&#45;&gt;Request -->
<g id="edge10" class="edge"><title>User&#45;&gt;Request</title>
<path fill="none" stroke="#d4ee52" d="M590.661,-171.254C590.486,-163.051 589.505,-154.912 587.505,-147 586.785,-144.15 585.943,-141.291 585.001,-138.44"/>
<ellipse fill="none" stroke="#d4ee52" cx="590.617" cy="-175.472" rx="4" ry="4"/>
<polygon fill="#d4ee52" stroke="#d4ee52" points="584.904,-138.177 585.663,-127.238 583.173,-133.487 581.441,-128.796 581.441,-128.796 581.441,-128.796 583.173,-133.487 577.22,-130.355 584.904,-138.177 584.904,-138.177"/>
</g>
<!-- User&#45;&gt;Request -->
<g id="edge12" class="edge"><title>User&#45;&gt;Request</title>
<path fill="none" stroke="#7cb459" d="M486.761,-171.034C486.803,-162.942 487.867,-154.883 490.215,-147 491.104,-144.018 492.14,-141.043 493.298,-138.09"/>
<ellipse fill="none" stroke="#7cb459" cx="486.907" cy="-175.135" rx="4" ry="4"/>
<polygon fill="#7cb459" stroke="#7cb459" points="493.375,-137.915 501.503,-130.554 495.377,-133.334 497.379,-128.752 497.379,-128.752 497.379,-128.752 495.377,-133.334 493.256,-126.95 493.375,-137.915 493.375,-137.915"/>
<text text-anchor="middle" x="536.15" y="-149.8" font-family="Times,serif" font-size="14.00">reverse_requests</text>
</g>
<!-- User&#45;&gt;User -->
<g id="edge11" class="edge"><title>User&#45;&gt;User</title>
<path fill="none" stroke="#8f71cf" d="M640.896,-308.168C646.051,-306.06 649.118,-303.17 649.118,-299.5 649.118,-295.83 646.051,-292.94 640.896,-290.832"/>
<polygon fill="#8f71cf" stroke="#8f71cf" points="640.858,-308.179 630.021,-306.501 636.038,-309.509 631.218,-310.838 631.218,-310.838 631.218,-310.838 636.038,-309.509 632.415,-315.176 640.858,-308.179 640.858,-308.179"/>
<polygon fill="#8f71cf" stroke="#8f71cf" points="640.858,-290.821 632.415,-283.824 636.038,-289.491 631.218,-288.162 631.218,-288.162 631.218,-288.162 636.038,-289.491 630.021,-292.499 640.858,-290.821 640.858,-290.821"/>
<text text-anchor="middle" x="678.663" y="-295.3" font-family="Times,serif" font-size="14.00">requesteds</text>
</g>
<!-- User&#45;&gt;User -->
<g id="edge13" class="edge"><title>User&#45;&gt;User</title>
<path fill="none" stroke="#66e5b9" d="M641.701,-325.372C677.364,-325.555 708.208,-316.931 708.208,-299.5 708.208,-282.069 677.364,-273.445 641.701,-273.628"/>
<polygon fill="#66e5b9" stroke="#66e5b9" points="641.532,-325.368 631.663,-320.589 636.534,-325.227 631.536,-325.087 631.536,-325.087 631.536,-325.087 636.534,-325.227 631.41,-329.585 641.532,-325.368 641.532,-325.368"/>
<polygon fill="#66e5b9" stroke="#66e5b9" points="641.532,-273.632 631.41,-269.415 636.534,-273.773 631.536,-273.913 631.536,-273.913 631.536,-273.913 636.534,-273.773 631.663,-278.411 641.532,-273.632 641.532,-273.632"/>
<text text-anchor="middle" x="736.583" y="-295.3" font-family="Times,serif" font-size="14.00">requesters</text>
</g>
<!-- UsersGroup -->
<g id="node9" class="node"><title>UsersGroup</title>
<ellipse fill="none" stroke="black" cx="681.505" cy="-64.5" rx="52.6865" ry="18"/>
<text text-anchor="middle" x="681.505" y="-60.3" font-family="Times,serif" font-size="14.00">UsersGroup</text>
</g>
<!-- User&#45;&gt;UsersGroup -->
<g id="edge14" class="edge"><title>User&#45;&gt;UsersGroup</title>
<path fill="none" stroke="#3a1c42" d="M620.176,-172.141C637.842,-141.422 654.979,-111.624 666.626,-91.3726"/>
<ellipse fill="none" stroke="#3a1c42" cx="618.07" cy="-175.802" rx="4.00002" ry="4.00002"/>
<polygon fill="#3a1c42" stroke="#3a1c42" points="666.741,-91.172 675.628,-84.7468 669.234,-86.8376 671.727,-82.5033 671.727,-82.5033 671.727,-82.5033 669.234,-86.8376 667.826,-80.2598 666.741,-91.172 666.741,-91.172"/>
</g>
<!-- Genre -->
<g id="node10" class="node"><title>Genre</title>
<ellipse fill="none" stroke="black" cx="426.505" cy="-64.5" rx="31.9219" ry="18"/>
<text text-anchor="middle" x="426.505" y="-60.3" font-family="Times,serif" font-size="14.00">Genre</text>
</g>
<!-- User&#45;&gt;Genre -->
<g id="edge15" class="edge"><title>User&#45;&gt;Genre</title>
<path fill="none" stroke="#7ba11a" d="M481.863,-172.099C465.382,-140.361 449.413,-109.611 438.897,-89.3612"/>
<ellipse fill="none" stroke="#7ba11a" cx="483.744" cy="-175.72" rx="4.00002" ry="4.00002"/>
<ellipse fill="#7ba11a" stroke="#7ba11a" cx="436.987" cy="-85.684" rx="4.00002" ry="4.00002"/>
</g>
<!-- ActiveRecord::Base -->
<g id="node7" class="node"><title>ActiveRecord::Base</title>
<ellipse fill="none" stroke="black" cx="312.505" cy="-603.5" rx="81.1422" ry="18"/>
<text text-anchor="middle" x="312.505" y="-599.3" font-family="Times,serif" font-size="14.00">ActiveRecord::Base</text>
</g>
<!-- ActiveRecord::Base&#45;&gt;Book -->
<g id="edge1" class="edge"><title>ActiveRecord::Base&#45;&gt;Book</title>
<path fill="none" stroke="black" d="M283.803,-586.349C261.982,-573.124 232.131,-552.907 210.505,-530 165.623,-482.456 127.027,-418.882 101.122,-370.702"/>
</g>
<!-- ActiveRecord::Base&#45;&gt;Group -->
<g id="edge7" class="edge"><title>ActiveRecord::Base&#45;&gt;Group</title>
<path fill="none" stroke="black" d="M312.505,-585.148C312.505,-570.241 312.505,-548.28 312.505,-529.707"/>
</g>
<!-- ActiveRecord::Base&#45;&gt;Note -->
<g id="edge8" class="edge"><title>ActiveRecord::Base&#45;&gt;Note</title>
<path fill="none" stroke="black" d="M287.726,-586.345C270.145,-573.393 247.749,-553.528 236.505,-530 210.39,-475.349 208.53,-405.007 211.364,-356.685"/>
</g>
<!-- ActiveRecord::Base&#45;&gt;Request -->
<g id="edge9" class="edge"><title>ActiveRecord::Base&#45;&gt;Request</title>
<path fill="none" stroke="black" d="M390.981,-598.586C501.836,-588.336 700.864,-551.532 791.505,-420 852.284,-331.803 855.81,-264.66 791.505,-179 743.712,-115.334 689.767,-166.429 619.505,-129 616.47,-127.383 613.446,-125.632 610.448,-123.776"/>
</g>
<!-- ActiveRecord::Base&#45;&gt;User -->
<g id="edge16" class="edge"><title>ActiveRecord::Base&#45;&gt;User</title>
<path fill="none" stroke="black" d="M331.984,-585.914C347.999,-571.823 370.848,-550.651 388.505,-530 417.722,-495.83 446.639,-456.295 471.639,-419.768"/>
</g>
</g>
</svg>
