<?xml version="1.0" encoding="UTF-8" standalone="no"?>
<!DOCTYPE svg PUBLIC "-//W3C//DTD SVG 1.1//EN"
 "http://www.w3.org/Graphics/SVG/1.1/DTD/svg11.dtd">
<!-- Generated by graphviz version 2.38.0 (20140413.2041)
 -->
<!-- Title: models_diagram Pages: 1 -->
<svg width="595pt" height="313pt"
 viewBox="0.00 0.00 595.25 313.00" xmlns="http://www.w3.org/2000/svg" xmlns:xlink="http://www.w3.org/1999/xlink">
<g id="graph0" class="graph" transform="scale(1 1) rotate(0) translate(4 309)">
<title>models_diagram</title>
<polygon fill="white" stroke="none" points="-4,4 -4,-309 591.249,-309 591.249,4 -4,4"/>
<!-- _diagram_info -->
<g id="node1" class="node"><title>_diagram_info</title>
<text text-anchor="start" x="86.5828" y="-290.6" font-family="Times,serif" font-size="13.00">Models diagram</text>
<text text-anchor="start" x="86.5828" y="-277.6" font-family="Times,serif" font-size="13.00">Date: Jul 15 2014 &#45; 16:46</text>
<text text-anchor="start" x="86.5828" y="-264.6" font-family="Times,serif" font-size="13.00">Migration version: 20140715133313</text>
<text text-anchor="start" x="86.5828" y="-251.6" font-family="Times,serif" font-size="13.00">Generated by RailRoady 1.1.1</text>
<text text-anchor="start" x="86.5828" y="-238.6" font-family="Times,serif" font-size="13.00">http://railroady.prestonlee.com</text>
</g>
<!-- Book -->
<g id="node2" class="node"><title>Book</title>
<ellipse fill="none" stroke="black" cx="29.2705" cy="-104" rx="29.0429" ry="18"/>
<text text-anchor="middle" x="29.2705" y="-99.8" font-family="Times,serif" font-size="14.00">Book</text>
</g>
<!-- Genre -->
<g id="node3" class="node"><title>Genre</title>
<ellipse fill="none" stroke="black" cx="487.271" cy="-18" rx="31.9219" ry="18"/>
<text text-anchor="middle" x="487.271" y="-13.8" font-family="Times,serif" font-size="14.00">Genre</text>
</g>
<!-- Group -->
<g id="node4" class="node"><title>Group</title>
<ellipse fill="none" stroke="black" cx="198.271" cy="-177" rx="32.9081" ry="18"/>
<text text-anchor="middle" x="198.271" y="-172.8" font-family="Times,serif" font-size="14.00">Group</text>
</g>
<!-- Group&#45;&gt;Book -->
<g id="edge4" class="edge"><title>Group&#45;&gt;Book</title>
<path fill="none" stroke="#610c7d" d="M159.073,-169.586C133.355,-164.321 99.5611,-155.346 72.2705,-141 64.3851,-136.855 56.6433,-131.074 49.9497,-125.356"/>
<ellipse fill="none" stroke="#610c7d" cx="163.195" cy="-170.396" rx="4.00001" ry="4.00001"/>
<ellipse fill="#610c7d" stroke="#610c7d" cx="46.623" cy="-122.386" rx="4.00002" ry="4.00002"/>
</g>
<!-- Note -->
<g id="node5" class="node"><title>Note</title>
<ellipse fill="none" stroke="black" cx="488.271" cy="-104" rx="27.0958" ry="18"/>
<text text-anchor="middle" x="488.271" y="-99.8" font-family="Times,serif" font-size="14.00">Note</text>
</g>
<!-- Group&#45;&gt;Note -->
<g id="edge5" class="edge"><title>Group&#45;&gt;Note</title>
<path fill="none" stroke="#1c3fc1" d="M237.861,-170.496C288.482,-162.802 378.421,-146.91 452.271,-122 454.137,-121.37 456.034,-120.67 457.932,-119.923"/>
<ellipse fill="none" stroke="#1c3fc1" cx="233.738" cy="-171.113" rx="4.00001" ry="4.00001"/>
<polygon fill="#1c3fc1" stroke="#1c3fc1" points="458.099,-119.851 469.064,-120.039 462.693,-117.878 467.288,-115.905 467.288,-115.905 467.288,-115.905 462.693,-117.878 465.511,-111.77 458.099,-119.851 458.099,-119.851"/>
</g>
<!-- Request -->
<g id="node6" class="node"><title>Request</title>
<ellipse fill="none" stroke="black" cx="169.271" cy="-18" rx="38.6955" ry="18"/>
<text text-anchor="middle" x="169.271" y="-13.8" font-family="Times,serif" font-size="14.00">Request</text>
</g>
<!-- Group&#45;&gt;Request -->
<g id="edge3" class="edge"><title>Group&#45;&gt;Request</title>
<path fill="none" stroke="#7c4942" d="M161.825,-164.986C141.301,-156.704 117.413,-143.091 105.271,-122 88.3002,-92.5225 118.241,-59.2277 142.64,-38.6744"/>
<ellipse fill="none" stroke="#7c4942" cx="165.757" cy="-166.481" rx="4.00001" ry="4.00001"/>
<ellipse fill="#7c4942" stroke="#7c4942" cx="145.91" cy="-36.0087" rx="4.00002" ry="4.00002"/>
</g>
<!-- User -->
<g id="node7" class="node"><title>User</title>
<ellipse fill="none" stroke="black" cx="265.271" cy="-104" rx="27" ry="18"/>
<text text-anchor="middle" x="265.271" y="-99.8" font-family="Times,serif" font-size="14.00">User</text>
</g>
<!-- Group&#45;&gt;User -->
<g id="edge7" class="edge"><title>Group&#45;&gt;User</title>
<path fill="none" stroke="#f934c5" d="M219.917,-153.061C227.697,-144.817 236.456,-135.534 244.188,-127.341"/>
<polygon fill="#f934c5" stroke="#f934c5" points="219.672,-153.321 209.536,-157.506 216.24,-156.958 212.809,-160.594 212.809,-160.594 212.809,-160.594 216.24,-156.958 216.081,-163.683 219.672,-153.321 219.672,-153.321"/>
<polygon fill="#f934c5" stroke="#f934c5" points="244.357,-127.162 254.493,-122.978 247.788,-123.526 251.22,-119.889 251.22,-119.889 251.22,-119.889 247.788,-123.526 247.947,-116.801 244.357,-127.162 244.357,-127.162"/>
</g>
<!-- GroupsUser -->
<g id="node9" class="node"><title>GroupsUser</title>
<ellipse fill="none" stroke="black" cx="167.271" cy="-104" rx="52.6865" ry="18"/>
<text text-anchor="middle" x="167.271" y="-99.8" font-family="Times,serif" font-size="14.00">GroupsUser</text>
</g>
<!-- Group&#45;&gt;GroupsUser -->
<g id="edge6" class="edge"><title>Group&#45;&gt;GroupsUser</title>
<path fill="none" stroke="#9f1c6f" d="M187.67,-151.721C184.822,-145.199 181.729,-138.114 178.832,-131.479"/>
<ellipse fill="none" stroke="#9f1c6f" cx="189.323" cy="-155.508" rx="4.00002" ry="4.00002"/>
<polygon fill="#9f1c6f" stroke="#9f1c6f" points="178.781,-131.363 178.904,-120.398 176.78,-126.781 174.78,-122.198 174.78,-122.198 174.78,-122.198 176.78,-126.781 170.656,-123.999 178.781,-131.363 178.781,-131.363"/>
</g>
<!-- User&#45;&gt;Genre -->
<g id="edge16" class="edge"><title>User&#45;&gt;Genre</title>
<path fill="none" stroke="#133764" d="M295.698,-91.4868C337.08,-75.8289 410.853,-47.9147 453.771,-31.6756"/>
<ellipse fill="none" stroke="#133764" cx="291.933" cy="-92.9113" rx="4.00001" ry="4.00001"/>
<ellipse fill="#133764" stroke="#133764" cx="457.67" cy="-30.2004" rx="4.00001" ry="4.00001"/>
</g>
<!-- User&#45;&gt;Request -->
<g id="edge11" class="edge"><title>User&#45;&gt;Request</title>
<path fill="none" stroke="#833c4a" d="M262.47,-77.7279C260.471,-69.3848 257.065,-60.5686 251.271,-54 241.287,-42.6823 227.014,-34.9086 213.167,-29.621"/>
<ellipse fill="none" stroke="#833c4a" cx="263.275" cy="-81.8855" rx="4.00001" ry="4.00001"/>
<polygon fill="#833c4a" stroke="#833c4a" points="213.155,-29.6172 205.179,-22.0924 208.431,-27.9809 203.706,-26.3446 203.706,-26.3446 203.706,-26.3446 208.431,-27.9809 202.233,-30.5969 213.155,-29.6172 213.155,-29.6172"/>
</g>
<!-- User&#45;&gt;Request -->
<g id="edge13" class="edge"><title>User&#45;&gt;Request</title>
<path fill="none" stroke="#fddb15" d="M237.004,-88.9898C234.417,-87.9096 231.814,-86.8937 229.271,-86 196.811,-74.5936 175.293,-95.0089 153.981,-68 148.664,-61.2622 149.512,-52.6587 152.638,-44.5469"/>
<ellipse fill="none" stroke="#fddb15" cx="240.979" cy="-90.7474" rx="4.00002" ry="4.00002"/>
<polygon fill="#fddb15" stroke="#fddb15" points="152.724,-44.3722 161.164,-37.371 154.923,-39.8819 157.123,-35.3916 157.123,-35.3916 157.123,-35.3916 154.923,-39.8819 153.081,-33.4121 152.724,-44.3722 152.724,-44.3722"/>
<text text-anchor="middle" x="199.916" y="-56.8" font-family="Times,serif" font-size="14.00">reverse_requests</text>
</g>
<!-- User&#45;&gt;User -->
<g id="edge12" class="edge"><title>User&#45;&gt;User</title>
<path fill="none" stroke="#769d3c" d="M302.214,-106.972C307.06,-106.463 310.271,-105.472 310.271,-104 310.271,-102.528 307.06,-101.537 302.214,-101.028"/>
<polygon fill="#769d3c" stroke="#769d3c" points="302.058,-106.978 291.89,-102.871 297.062,-107.173 292.065,-107.368 292.065,-107.368 292.065,-107.368 297.062,-107.173 292.241,-111.864 302.058,-106.978 302.058,-106.978"/>
<polygon fill="#769d3c" stroke="#769d3c" points="302.058,-101.022 292.241,-96.1358 297.062,-100.827 292.065,-100.632 292.065,-100.632 292.065,-100.632 297.062,-100.827 291.89,-105.129 302.058,-101.022 302.058,-101.022"/>
<text text-anchor="middle" x="339.815" y="-99.8" font-family="Times,serif" font-size="14.00">requesteds</text>
</g>
<!-- User&#45;&gt;User -->
<g id="edge14" class="edge"><title>User&#45;&gt;User</title>
<path fill="none" stroke="#9cbb5a" d="M301.327,-109.983C332.221,-112.011 369.36,-110.017 369.36,-104 369.36,-97.9829 332.221,-95.9886 301.327,-98.0172"/>
<polygon fill="#9cbb5a" stroke="#9cbb5a" points="301.118,-109.966 291.523,-104.656 296.135,-109.553 291.152,-109.141 291.152,-109.141 291.152,-109.141 296.135,-109.553 290.781,-113.625 301.118,-109.966 301.118,-109.966"/>
<polygon fill="#9cbb5a" stroke="#9cbb5a" points="301.118,-98.0344 290.781,-94.3747 296.135,-98.4469 291.152,-98.8593 291.152,-98.8593 291.152,-98.8593 296.135,-98.4469 291.523,-103.344 301.118,-98.0344 301.118,-98.0344"/>
<text text-anchor="middle" x="397.736" y="-99.8" font-family="Times,serif" font-size="14.00">requesters</text>
</g>
<!-- UsersGroup -->
<g id="node10" class="node"><title>UsersGroup</title>
<ellipse fill="none" stroke="black" cx="290.271" cy="-18" rx="52.6865" ry="18"/>
<text text-anchor="middle" x="290.271" y="-13.8" font-family="Times,serif" font-size="14.00">UsersGroup</text>
</g>
<!-- User&#45;&gt;UsersGroup -->
<g id="edge15" class="edge"><title>User&#45;&gt;UsersGroup</title>
<path fill="none" stroke="#8de940" d="M273.097,-78.3818C274.177,-74.9007 275.262,-71.3631 276.271,-68 278.388,-60.9398 280.61,-53.2853 282.645,-46.1711"/>
<ellipse fill="none" stroke="#8de940" cx="271.815" cy="-82.4755" rx="4.00001" ry="4.00001"/>
<polygon fill="#8de940" stroke="#8de940" points="282.725,-45.8865 289.785,-37.4957 284.091,-41.0765 285.456,-36.2666 285.456,-36.2666 285.456,-36.2666 284.091,-41.0765 281.128,-35.0376 282.725,-45.8865 282.725,-45.8865"/>
</g>
<!-- ActiveRecord::Base -->
<g id="node8" class="node"><title>ActiveRecord::Base</title>
<ellipse fill="none" stroke="black" cx="385.271" cy="-268.5" rx="81.1422" ry="18"/>
<text text-anchor="middle" x="385.271" y="-264.3" font-family="Times,serif" font-size="14.00">ActiveRecord::Base</text>
</g>
<!-- ActiveRecord::Base&#45;&gt;Book -->
<g id="edge1" class="edge"><title>ActiveRecord::Base&#45;&gt;Book</title>
<path fill="none" stroke="black" d="M349.273,-252.198C332.948,-245.545 313.299,-237.933 295.271,-232 234.545,-212.016 215.146,-219.912 156.271,-195 113.31,-176.822 103.234,-169.455 66.2705,-141 58.1744,-134.768 49.9517,-126.947 43.3206,-120.189"/>
</g>
<!-- ActiveRecord::Base&#45;&gt;Genre -->
<g id="edge2" class="edge"><title>ActiveRecord::Base&#45;&gt;Genre</title>
<path fill="none" stroke="black" d="M463.588,-263.29C498.11,-257.054 535.671,-243.339 557.271,-214 599.43,-156.734 594.656,-114.491 557.271,-54 548.27,-39.4369 531.172,-30.7307 516.128,-25.6438"/>
</g>
<!-- ActiveRecord::Base&#45;&gt;Group -->
<g id="edge8" class="edge"><title>ActiveRecord::Base&#45;&gt;Group</title>
<path fill="none" stroke="black" d="M352.698,-251.91C315.445,-234.081 255.338,-205.313 222.168,-189.438"/>
</g>
<!-- ActiveRecord::Base&#45;&gt;Note -->
<g id="edge9" class="edge"><title>ActiveRecord::Base&#45;&gt;Note</title>
<path fill="none" stroke="black" d="M396.099,-250.417C416.139,-218.8 458.738,-151.592 478.197,-120.893"/>
</g>
<!-- ActiveRecord::Base&#45;&gt;Request -->
<g id="edge10" class="edge"><title>ActiveRecord::Base&#45;&gt;Request</title>
<path fill="none" stroke="black" d="M413.696,-251.564C467.43,-219.478 574.232,-145.108 524.271,-86 481.207,-35.052 293.314,-50.8143 228.271,-36 219.228,-33.9405 209.518,-31.3174 200.637,-28.7517"/>
</g>
<!-- ActiveRecord::Base&#45;&gt;User -->
<g id="edge17" class="edge"><title>ActiveRecord::Base&#45;&gt;User</title>
<path fill="none" stroke="black" d="M372.655,-250.417C349.187,-218.637 299.165,-150.899 276.659,-120.421"/>
</g>
</g>
</svg>
