<?xml version="1.0" encoding="UTF-8" standalone="no"?>
<!DOCTYPE svg PUBLIC "-//W3C//DTD SVG 1.1//EN"
 "http://www.w3.org/Graphics/SVG/1.1/DTD/svg11.dtd">
<!-- Generated by graphviz version 2.38.0 (20140413.2041)
 -->
<!-- Title: models_diagram Pages: 1 -->
<svg width="918pt" height="858pt"
 viewBox="0.00 0.00 917.53 858.00" xmlns="http://www.w3.org/2000/svg" xmlns:xlink="http://www.w3.org/1999/xlink">
<g id="graph0" class="graph" transform="scale(1 1) rotate(0) translate(4 854)">
<title>models_diagram</title>
<polygon fill="white" stroke="none" points="-4,4 -4,-854 913.532,-854 913.532,4 -4,4"/>
<!-- _diagram_info -->
<g id="node1" class="node"><title>_diagram_info</title>
<text text-anchor="start" x="310.111" y="-835.6" font-family="Times,serif" font-size="13.00">Models diagram</text>
<text text-anchor="start" x="310.111" y="-822.6" font-family="Times,serif" font-size="13.00">Date: Jul 18 2014 &#45; 13:37</text>
<text text-anchor="start" x="310.111" y="-809.6" font-family="Times,serif" font-size="13.00">Migration version: 20140718151832</text>
<text text-anchor="start" x="310.111" y="-796.6" font-family="Times,serif" font-size="13.00">Generated by RailRoady 1.1.1</text>
<text text-anchor="start" x="310.111" y="-783.6" font-family="Times,serif" font-size="13.00">http://railroady.prestonlee.com</text>
</g>
<!-- Book -->
<g id="node2" class="node"><title>Book</title>
<path fill="none" stroke="black" d="M12,-347.5C12,-347.5 129.597,-347.5 129.597,-347.5 135.597,-347.5 141.597,-353.5 141.597,-359.5 141.597,-359.5 141.597,-575.5 141.597,-575.5 141.597,-581.5 135.597,-587.5 129.597,-587.5 129.597,-587.5 12,-587.5 12,-587.5 6,-587.5 0,-581.5 0,-575.5 0,-575.5 0,-359.5 0,-359.5 0,-353.5 6,-347.5 12,-347.5"/>
<text text-anchor="middle" x="70.7983" y="-572.3" font-family="Times,serif" font-size="14.00">Book</text>
<polyline fill="none" stroke="black" points="0,-565.5 141.597,-565.5 "/>
<text text-anchor="start" x="8" y="-550.3" font-family="Times,serif" font-size="14.00">id :integer</text>
<text text-anchor="start" x="8" y="-536.3" font-family="Times,serif" font-size="14.00">group_id :integer</text>
<text text-anchor="start" x="8" y="-522.3" font-family="Times,serif" font-size="14.00">created_at :datetime</text>
<text text-anchor="start" x="8" y="-508.3" font-family="Times,serif" font-size="14.00">updated_at :datetime</text>
<text text-anchor="start" x="8" y="-494.3" font-family="Times,serif" font-size="14.00">title :string</text>
<text text-anchor="start" x="8" y="-480.3" font-family="Times,serif" font-size="14.00">isbn :string</text>
<text text-anchor="start" x="8" y="-466.3" font-family="Times,serif" font-size="14.00">summary :text</text>
<text text-anchor="start" x="8" y="-452.3" font-family="Times,serif" font-size="14.00">author :string</text>
<text text-anchor="start" x="8" y="-438.3" font-family="Times,serif" font-size="14.00">publisher :string</text>
<text text-anchor="start" x="8" y="-424.3" font-family="Times,serif" font-size="14.00">pagecount :integer</text>
<text text-anchor="start" x="8" y="-410.3" font-family="Times,serif" font-size="14.00">imagelinklarge :string</text>
<text text-anchor="start" x="8" y="-396.3" font-family="Times,serif" font-size="14.00">imagelinksmall :string</text>
<text text-anchor="start" x="8" y="-382.3" font-family="Times,serif" font-size="14.00">datepublished :string</text>
<text text-anchor="start" x="8" y="-368.3" font-family="Times,serif" font-size="14.00">buylink :string</text>
<text text-anchor="start" x="8" y="-354.3" font-family="Times,serif" font-size="14.00">previewlink :string</text>
</g>
<!-- Genre -->
<g id="node3" class="node"><title>Genre</title>
<path fill="none" stroke="black" d="M659.293,-0.5C659.293,-0.5 768.304,-0.5 768.304,-0.5 774.304,-0.5 780.304,-6.5 780.304,-12.5 780.304,-12.5 780.304,-256.5 780.304,-256.5 780.304,-262.5 774.304,-268.5 768.304,-268.5 768.304,-268.5 659.293,-268.5 659.293,-268.5 653.293,-268.5 647.293,-262.5 647.293,-256.5 647.293,-256.5 647.293,-12.5 647.293,-12.5 647.293,-6.5 653.293,-0.5 659.293,-0.5"/>
<text text-anchor="middle" x="713.798" y="-253.3" font-family="Times,serif" font-size="14.00">Genre</text>
<polyline fill="none" stroke="black" points="647.293,-246.5 780.304,-246.5 "/>
<text text-anchor="start" x="655.293" y="-231.3" font-family="Times,serif" font-size="14.00">id :integer</text>
<text text-anchor="start" x="655.293" y="-217.3" font-family="Times,serif" font-size="14.00">classic :integer</text>
<text text-anchor="start" x="655.293" y="-203.3" font-family="Times,serif" font-size="14.00">comedy :integer</text>
<text text-anchor="start" x="655.293" y="-189.3" font-family="Times,serif" font-size="14.00">comic :integer</text>
<text text-anchor="start" x="655.293" y="-175.3" font-family="Times,serif" font-size="14.00">educational :integer</text>
<text text-anchor="start" x="655.293" y="-161.3" font-family="Times,serif" font-size="14.00">historical :integer</text>
<text text-anchor="start" x="655.293" y="-147.3" font-family="Times,serif" font-size="14.00">memoir :integer</text>
<text text-anchor="start" x="655.293" y="-133.3" font-family="Times,serif" font-size="14.00">mystery :integer</text>
<text text-anchor="start" x="655.293" y="-119.3" font-family="Times,serif" font-size="14.00">nonfiction :integer</text>
<text text-anchor="start" x="655.293" y="-105.3" font-family="Times,serif" font-size="14.00">poetry :integer</text>
<text text-anchor="start" x="655.293" y="-91.3" font-family="Times,serif" font-size="14.00">pulp :integer</text>
<text text-anchor="start" x="655.293" y="-77.3" font-family="Times,serif" font-size="14.00">romance :integer</text>
<text text-anchor="start" x="655.293" y="-63.3" font-family="Times,serif" font-size="14.00">scifi :integer</text>
<text text-anchor="start" x="655.293" y="-49.3" font-family="Times,serif" font-size="14.00">shortstory :integer</text>
<text text-anchor="start" x="655.293" y="-35.3" font-family="Times,serif" font-size="14.00">created_at :datetime</text>
<text text-anchor="start" x="655.293" y="-21.3" font-family="Times,serif" font-size="14.00">updated_at :datetime</text>
<text text-anchor="start" x="655.293" y="-7.3" font-family="Times,serif" font-size="14.00">user_id :integer</text>
</g>
<!-- Group -->
<g id="node4" class="node"><title>Group</title>
<path fill="none" stroke="black" d="M235.293,-653.5C235.293,-653.5 344.304,-653.5 344.304,-653.5 350.304,-653.5 356.304,-659.5 356.304,-665.5 356.304,-665.5 356.304,-727.5 356.304,-727.5 356.304,-733.5 350.304,-739.5 344.304,-739.5 344.304,-739.5 235.293,-739.5 235.293,-739.5 229.293,-739.5 223.293,-733.5 223.293,-727.5 223.293,-727.5 223.293,-665.5 223.293,-665.5 223.293,-659.5 229.293,-653.5 235.293,-653.5"/>
<text text-anchor="middle" x="289.798" y="-724.3" font-family="Times,serif" font-size="14.00">Group</text>
<polyline fill="none" stroke="black" points="223.293,-717.5 356.304,-717.5 "/>
<text text-anchor="start" x="231.293" y="-702.3" font-family="Times,serif" font-size="14.00">id :integer</text>
<text text-anchor="start" x="231.293" y="-688.3" font-family="Times,serif" font-size="14.00">created_at :datetime</text>
<text text-anchor="start" x="231.293" y="-674.3" font-family="Times,serif" font-size="14.00">updated_at :datetime</text>
<text text-anchor="start" x="231.293" y="-660.3" font-family="Times,serif" font-size="14.00">status :boolean</text>
</g>
<!-- Group&#45;&gt;Book -->
<g id="edge4" class="edge"><title>Group&#45;&gt;Book</title>
<path fill="none" stroke="#48fde0" d="M215.679,-672.545C194.52,-663.369 172.656,-651.069 155.798,-635 143.473,-623.252 132.63,-609.326 123.178,-594.608"/>
<ellipse fill="none" stroke="#48fde0" cx="219.435" cy="-674.117" rx="4.00002" ry="4.00002"/>
<ellipse fill="#48fde0" stroke="#48fde0" cx="121.049" cy="-591.19" rx="4.00002" ry="4.00002"/>
</g>
<!-- Note -->
<g id="node5" class="node"><title>Note</title>
<path fill="none" stroke="black" d="M669.293,-403.5C669.293,-403.5 778.304,-403.5 778.304,-403.5 784.304,-403.5 790.304,-409.5 790.304,-415.5 790.304,-415.5 790.304,-519.5 790.304,-519.5 790.304,-525.5 784.304,-531.5 778.304,-531.5 778.304,-531.5 669.293,-531.5 669.293,-531.5 663.293,-531.5 657.293,-525.5 657.293,-519.5 657.293,-519.5 657.293,-415.5 657.293,-415.5 657.293,-409.5 663.293,-403.5 669.293,-403.5"/>
<text text-anchor="middle" x="723.798" y="-516.3" font-family="Times,serif" font-size="14.00">Note</text>
<polyline fill="none" stroke="black" points="657.293,-509.5 790.304,-509.5 "/>
<text text-anchor="start" x="665.293" y="-494.3" font-family="Times,serif" font-size="14.00">id :integer</text>
<text text-anchor="start" x="665.293" y="-480.3" font-family="Times,serif" font-size="14.00">group_id :integer</text>
<text text-anchor="start" x="665.293" y="-466.3" font-family="Times,serif" font-size="14.00">pagenumber :integer</text>
<text text-anchor="start" x="665.293" y="-452.3" font-family="Times,serif" font-size="14.00">body :text</text>
<text text-anchor="start" x="665.293" y="-438.3" font-family="Times,serif" font-size="14.00">created_at :datetime</text>
<text text-anchor="start" x="665.293" y="-424.3" font-family="Times,serif" font-size="14.00">updated_at :datetime</text>
<text text-anchor="start" x="665.293" y="-410.3" font-family="Times,serif" font-size="14.00">user_id :integer</text>
</g>
<!-- Group&#45;&gt;Note -->
<g id="edge5" class="edge"><title>Group&#45;&gt;Note</title>
<path fill="none" stroke="#300b29" d="M364.73,-686.519C456.498,-674.243 605.141,-649.824 648.798,-616 673.074,-597.192 690.153,-568.373 701.814,-541.183"/>
<ellipse fill="none" stroke="#300b29" cx="360.547" cy="-687.073" rx="4.00001" ry="4.00001"/>
<polygon fill="#300b29" stroke="#300b29" points="701.926,-540.907 709.879,-533.357 703.821,-536.28 705.715,-531.652 705.715,-531.652 705.715,-531.652 703.821,-536.28 701.55,-529.948 701.926,-540.907 701.926,-540.907"/>
</g>
<!-- Request -->
<g id="node6" class="node"><title>Request</title>
<path fill="none" stroke="black" d="M241.903,-70.5C241.903,-70.5 351.693,-70.5 351.693,-70.5 357.693,-70.5 363.693,-76.5 363.693,-82.5 363.693,-82.5 363.693,-186.5 363.693,-186.5 363.693,-192.5 357.693,-198.5 351.693,-198.5 351.693,-198.5 241.903,-198.5 241.903,-198.5 235.903,-198.5 229.903,-192.5 229.903,-186.5 229.903,-186.5 229.903,-82.5 229.903,-82.5 229.903,-76.5 235.903,-70.5 241.903,-70.5"/>
<text text-anchor="middle" x="296.798" y="-183.3" font-family="Times,serif" font-size="14.00">Request</text>
<polyline fill="none" stroke="black" points="229.903,-176.5 363.693,-176.5 "/>
<text text-anchor="start" x="237.903" y="-161.3" font-family="Times,serif" font-size="14.00">id :integer</text>
<text text-anchor="start" x="237.903" y="-147.3" font-family="Times,serif" font-size="14.00">status :boolean</text>
<text text-anchor="start" x="237.903" y="-133.3" font-family="Times,serif" font-size="14.00">created_at :datetime</text>
<text text-anchor="start" x="237.903" y="-119.3" font-family="Times,serif" font-size="14.00">updated_at :datetime</text>
<text text-anchor="start" x="237.903" y="-105.3" font-family="Times,serif" font-size="14.00">requested_id :integer</text>
<text text-anchor="start" x="237.903" y="-91.3" font-family="Times,serif" font-size="14.00">requester_id :integer</text>
<text text-anchor="start" x="237.903" y="-77.3" font-family="Times,serif" font-size="14.00">group_id :integer</text>
</g>
<!-- Group&#45;&gt;Request -->
<g id="edge3" class="edge"><title>Group&#45;&gt;Request</title>
<path fill="none" stroke="#761c0a" d="M217.177,-651.99C205.696,-641.703 195.438,-629.676 188.798,-616 131.148,-497.255 154.101,-446.358 188.798,-319 199.775,-278.71 222.094,-238.247 243.608,-205.608"/>
<ellipse fill="none" stroke="#761c0a" cx="220.24" cy="-654.61" rx="4.00002" ry="4.00002"/>
<ellipse fill="#761c0a" stroke="#761c0a" cx="245.959" cy="-202.091" rx="4.00002" ry="4.00002"/>
</g>
<!-- User -->
<g id="node7" class="node"><title>User</title>
<path fill="none" stroke="black" d="M333.186,-319.5C333.186,-319.5 476.411,-319.5 476.411,-319.5 482.411,-319.5 488.411,-325.5 488.411,-331.5 488.411,-331.5 488.411,-603.5 488.411,-603.5 488.411,-609.5 482.411,-615.5 476.411,-615.5 476.411,-615.5 333.186,-615.5 333.186,-615.5 327.186,-615.5 321.186,-609.5 321.186,-603.5 321.186,-603.5 321.186,-331.5 321.186,-331.5 321.186,-325.5 327.186,-319.5 333.186,-319.5"/>
<text text-anchor="middle" x="404.798" y="-600.3" font-family="Times,serif" font-size="14.00">User</text>
<polyline fill="none" stroke="black" points="321.186,-593.5 488.411,-593.5 "/>
<text text-anchor="start" x="329.186" y="-578.3" font-family="Times,serif" font-size="14.00">id :integer</text>
<text text-anchor="start" x="329.186" y="-564.3" font-family="Times,serif" font-size="14.00">fname :string</text>
<text text-anchor="start" x="329.186" y="-550.3" font-family="Times,serif" font-size="14.00">lname :string</text>
<text text-anchor="start" x="329.186" y="-536.3" font-family="Times,serif" font-size="14.00">email :string</text>
<text text-anchor="start" x="329.186" y="-522.3" font-family="Times,serif" font-size="14.00">created_at :datetime</text>
<text text-anchor="start" x="329.186" y="-508.3" font-family="Times,serif" font-size="14.00">updated_at :datetime</text>
<text text-anchor="start" x="329.186" y="-494.3" font-family="Times,serif" font-size="14.00">provider :string</text>
<text text-anchor="start" x="329.186" y="-480.3" font-family="Times,serif" font-size="14.00">uid :string</text>
<text text-anchor="start" x="329.186" y="-466.3" font-family="Times,serif" font-size="14.00">name :string</text>
<text text-anchor="start" x="329.186" y="-452.3" font-family="Times,serif" font-size="14.00">oauth_token :string</text>
<text text-anchor="start" x="329.186" y="-438.3" font-family="Times,serif" font-size="14.00">oauth_expires_at :datetime</text>
<text text-anchor="start" x="329.186" y="-424.3" font-family="Times,serif" font-size="14.00">image :string</text>
<text text-anchor="start" x="329.186" y="-410.3" font-family="Times,serif" font-size="14.00">gender :string</text>
<text text-anchor="start" x="329.186" y="-396.3" font-family="Times,serif" font-size="14.00">location :string</text>
<text text-anchor="start" x="329.186" y="-382.3" font-family="Times,serif" font-size="14.00">description :text</text>
<text text-anchor="start" x="329.186" y="-368.3" font-family="Times,serif" font-size="14.00">fav_books :text</text>
<text text-anchor="start" x="329.186" y="-354.3" font-family="Times,serif" font-size="14.00">fav_genres :text</text>
<text text-anchor="start" x="329.186" y="-340.3" font-family="Times,serif" font-size="14.00">fav_authors :text</text>
<text text-anchor="start" x="329.186" y="-326.3" font-family="Times,serif" font-size="14.00">age :integer</text>
</g>
<!-- Group&#45;&gt;User -->
<g id="edge7" class="edge"><title>Group&#45;&gt;User</title>
<path fill="none" stroke="#951e05" d="M315.733,-644.308C318.845,-638.164 322.136,-631.668 325.547,-624.935"/>
<polygon fill="#951e05" stroke="#951e05" points="315.679,-644.414 307.145,-651.301 313.419,-648.875 311.159,-653.335 311.159,-653.335 311.159,-653.335 313.419,-648.875 315.174,-655.369 315.679,-644.414 315.679,-644.414"/>
<polygon fill="#951e05" stroke="#951e05" points="325.748,-624.539 334.281,-617.652 328.008,-620.078 330.267,-615.618 330.267,-615.618 330.267,-615.618 328.008,-620.078 326.253,-613.584 325.748,-624.539 325.748,-624.539"/>
</g>
<!-- GroupsUser -->
<g id="node9" class="node"><title>GroupsUser</title>
<ellipse fill="none" stroke="black" cx="250.798" cy="-467.5" rx="52.6865" ry="18"/>
<text text-anchor="middle" x="250.798" y="-463.3" font-family="Times,serif" font-size="14.00">GroupsUser</text>
</g>
<!-- Group&#45;&gt;GroupsUser -->
<g id="edge6" class="edge"><title>Group&#45;&gt;GroupsUser</title>
<path fill="none" stroke="#6e7d37" d="M281.195,-645.425C273.27,-599.298 261.809,-532.587 255.465,-495.662"/>
<ellipse fill="none" stroke="#6e7d37" cx="281.877" cy="-649.393" rx="4.00001" ry="4.00001"/>
<polygon fill="#6e7d37" stroke="#6e7d37" points="255.438,-495.503 258.179,-484.885 254.591,-490.575 253.744,-485.647 253.744,-485.647 253.744,-485.647 254.591,-490.575 249.309,-486.409 255.438,-495.503 255.438,-495.503"/>
</g>
<!-- User&#45;&gt;Genre -->
<g id="edge16" class="edge"><title>User&#45;&gt;Genre</title>
<path fill="none" stroke="#b67241" d="M494.02,-370.926C540.893,-320.716 597.587,-259.985 641.653,-212.782"/>
<ellipse fill="none" stroke="#b67241" cx="491.148" cy="-374.003" rx="4.00002" ry="4.00002"/>
<ellipse fill="#b67241" stroke="#b67241" cx="644.506" cy="-209.726" rx="4.00002" ry="4.00002"/>
</g>
<!-- User&#45;&gt;Request -->
<g id="edge11" class="edge"><title>User&#45;&gt;Request</title>
<path fill="none" stroke="#ac640b" d="M399.86,-311.487C397.393,-303.046 394.403,-294.825 390.798,-287 386.065,-276.724 379.658,-277.997 372.798,-269 358.43,-250.157 344.88,-228.312 333.312,-207.819"/>
<ellipse fill="none" stroke="#ac640b" cx="400.932" cy="-315.436" rx="4.00001" ry="4.00001"/>
<polygon fill="#ac640b" stroke="#ac640b" points="333.17,-207.564 332.243,-196.637 330.74,-203.194 328.31,-198.824 328.31,-198.824 328.31,-198.824 330.74,-203.194 324.377,-201.011 333.17,-207.564 333.17,-207.564"/>
</g>
<!-- User&#45;&gt;Request -->
<g id="edge13" class="edge"><title>User&#45;&gt;Request</title>
<path fill="none" stroke="#498f89" d="M315.919,-322.838C314.882,-321.546 313.841,-320.267 312.798,-319 305.345,-309.948 298.182,-311.754 293.508,-301 281.161,-272.59 279.795,-238.763 282.351,-209.117"/>
<ellipse fill="none" stroke="#498f89" cx="318.602" cy="-326.243" rx="4.00002" ry="4.00002"/>
<polygon fill="#498f89" stroke="#498f89" points="282.387,-208.769 287.884,-199.281 282.897,-203.796 283.408,-198.822 283.408,-198.822 283.408,-198.822 282.897,-203.796 278.931,-198.362 282.387,-208.769 282.387,-208.769"/>
<text text-anchor="middle" x="339.443" y="-289.8" font-family="Times,serif" font-size="14.00">reverse_requests</text>
</g>
<!-- User&#45;&gt;User -->
<g id="edge12" class="edge"><title>User&#45;&gt;User</title>
<path fill="none" stroke="#a76298" d="M498.189,-477.927C503.344,-475.391 506.411,-471.915 506.411,-467.5 506.411,-463.085 503.344,-459.609 498.189,-457.073"/>
<polygon fill="#a76298" stroke="#a76298" points="498.002,-477.989 487.094,-476.868 493.257,-479.564 488.511,-481.139 488.511,-481.139 488.511,-481.139 493.257,-479.564 489.929,-485.41 498.002,-477.989 498.002,-477.989"/>
<polygon fill="#a76298" stroke="#a76298" points="498.002,-457.011 489.929,-449.59 493.257,-455.436 488.511,-453.861 488.511,-453.861 488.511,-453.861 493.257,-455.436 487.094,-458.132 498.002,-457.011 498.002,-457.011"/>
<text text-anchor="middle" x="535.956" y="-463.3" font-family="Times,serif" font-size="14.00">requesteds</text>
</g>
<!-- User&#45;&gt;User -->
<g id="edge14" class="edge"><title>User&#45;&gt;User</title>
<path fill="none" stroke="#e0931c" d="M498.994,-498.622C534.657,-498.841 565.5,-488.467 565.5,-467.5 565.5,-446.533 534.657,-436.159 498.994,-436.378"/>
<polygon fill="#e0931c" stroke="#e0931c" points="498.824,-498.616 488.981,-493.781 493.827,-498.447 488.829,-498.279 488.829,-498.279 488.829,-498.279 493.827,-498.447 488.678,-502.776 498.824,-498.616 498.824,-498.616"/>
<polygon fill="#e0931c" stroke="#e0931c" points="498.824,-436.384 488.678,-432.224 493.827,-436.553 488.829,-436.721 488.829,-436.721 488.829,-436.721 493.827,-436.553 488.981,-441.219 498.824,-436.384 498.824,-436.384"/>
<text text-anchor="middle" x="593.876" y="-463.3" font-family="Times,serif" font-size="14.00">requesters</text>
</g>
<!-- UsersGroup -->
<g id="node10" class="node"><title>UsersGroup</title>
<ellipse fill="none" stroke="black" cx="434.798" cy="-134.5" rx="52.6865" ry="18"/>
<text text-anchor="middle" x="434.798" y="-130.3" font-family="Times,serif" font-size="14.00">UsersGroup</text>
</g>
<!-- User&#45;&gt;UsersGroup -->
<g id="edge15" class="edge"><title>User&#45;&gt;UsersGroup</title>
<path fill="none" stroke="#9acdc2" d="M418.865,-311.301C424.008,-254.556 429.298,-196.191 432.304,-163.025"/>
<ellipse fill="none" stroke="#9acdc2" cx="418.493" cy="-315.407" rx="4" ry="4"/>
<polygon fill="#9acdc2" stroke="#9acdc2" points="432.329,-162.742 437.714,-153.189 432.781,-157.763 433.232,-152.783 433.232,-152.783 433.232,-152.783 432.781,-157.763 428.75,-152.377 432.329,-162.742 432.329,-162.742"/>
</g>
<!-- ActiveRecord::Base -->
<g id="node8" class="node"><title>ActiveRecord::Base</title>
<ellipse fill="none" stroke="black" cx="608.798" cy="-813.5" rx="81.1422" ry="18"/>
<text text-anchor="middle" x="608.798" y="-809.3" font-family="Times,serif" font-size="14.00">ActiveRecord::Base</text>
</g>
<!-- ActiveRecord::Base&#45;&gt;Book -->
<g id="edge1" class="edge"><title>ActiveRecord::Base&#45;&gt;Book</title>
<path fill="none" stroke="black" d="M575.284,-796.919C558.634,-789.792 538.011,-781.869 518.798,-777 386.434,-743.453 328.087,-814.726 213.798,-740 160.403,-705.089 125.672,-643.431 103.826,-587.688"/>
</g>
<!-- ActiveRecord::Base&#45;&gt;Genre -->
<g id="edge2" class="edge"><title>ActiveRecord::Base&#45;&gt;Genre</title>
<path fill="none" stroke="black" d="M680.634,-804.957C738.781,-797.193 814.003,-782.813 832.798,-759 962.767,-594.334 901.353,-485.26 832.798,-287 821.868,-255.391 801.319,-225.359 780.334,-200.496"/>
</g>
<!-- ActiveRecord::Base&#45;&gt;Group -->
<g id="edge8" class="edge"><title>ActiveRecord::Base&#45;&gt;Group</title>
<path fill="none" stroke="black" d="M571.712,-797.471C555.523,-791.014 536.281,-783.479 518.798,-777 464.44,-756.854 402.277,-735.37 356.447,-719.822"/>
</g>
<!-- ActiveRecord::Base&#45;&gt;Note -->
<g id="edge9" class="edge"><title>ActiveRecord::Base&#45;&gt;Note</title>
<path fill="none" stroke="black" d="M614.501,-795.441C630.364,-747.991 675.614,-612.635 702.661,-531.729"/>
</g>
<!-- ActiveRecord::Base&#45;&gt;Request -->
<g id="edge10" class="edge"><title>ActiveRecord::Base&#45;&gt;Request</title>
<path fill="none" stroke="black" d="M634.249,-796.287C677.99,-766.714 765.979,-699.314 799.798,-616 824.622,-554.846 843.67,-368.308 799.798,-319 736.293,-247.625 452.453,-321.749 372.798,-269 347.783,-252.434 330.076,-224.647 318.086,-198.7"/>
</g>
<!-- ActiveRecord::Base&#45;&gt;User -->
<g id="edge17" class="edge"><title>ActiveRecord::Base&#45;&gt;User</title>
<path fill="none" stroke="black" d="M598.682,-795.441C578.462,-761.345 531.325,-681.859 488.593,-609.801"/>
</g>
</g>
</svg>
