<?xml version="1.0" encoding="UTF-8" standalone="no"?>
<!DOCTYPE svg PUBLIC "-//W3C//DTD SVG 1.1//EN"
 "http://www.w3.org/Graphics/SVG/1.1/DTD/svg11.dtd">
<!-- Generated by graphviz version 2.38.0 (20140413.2041)
 -->
<!-- Title: models_diagram Pages: 1 -->
<svg width="792pt" height="550pt"
 viewBox="0.00 0.00 791.92 550.00" xmlns="http://www.w3.org/2000/svg" xmlns:xlink="http://www.w3.org/1999/xlink">
<g id="graph0" class="graph" transform="scale(1 1) rotate(0) translate(4 546)">
<title>models_diagram</title>
<polygon fill="white" stroke="none" points="-4,4 -4,-546 787.923,-546 787.923,4 -4,4"/>
<!-- _diagram_info -->
<g id="node1" class="node"><title>_diagram_info</title>
<text text-anchor="start" x="80.8176" y="-527.6" font-family="Times,serif" font-size="13.00">Models diagram</text>
<text text-anchor="start" x="80.8176" y="-514.6" font-family="Times,serif" font-size="13.00">Date: Jul 14 2014 &#45; 10:43</text>
<text text-anchor="start" x="80.8176" y="-501.6" font-family="Times,serif" font-size="13.00">Migration version: 20140714143509</text>
<text text-anchor="start" x="80.8176" y="-488.6" font-family="Times,serif" font-size="13.00">Generated by RailRoady 1.1.1</text>
<text text-anchor="start" x="80.8176" y="-475.6" font-family="Times,serif" font-size="13.00">http://railroady.prestonlee.com</text>
</g>
<!-- Book -->
<g id="node2" class="node"><title>Book</title>
<path fill="none" stroke="black" d="M12,-179.5C12,-179.5 121.011,-179.5 121.011,-179.5 127.011,-179.5 133.011,-185.5 133.011,-191.5 133.011,-191.5 133.011,-309.5 133.011,-309.5 133.011,-315.5 127.011,-321.5 121.011,-321.5 121.011,-321.5 12,-321.5 12,-321.5 6,-321.5 0,-315.5 0,-309.5 0,-309.5 0,-191.5 0,-191.5 0,-185.5 6,-179.5 12,-179.5"/>
<text text-anchor="middle" x="66.5054" y="-306.3" font-family="Times,serif" font-size="14.00">Book</text>
<polyline fill="none" stroke="black" points="0,-299.5 133.011,-299.5 "/>
<text text-anchor="start" x="8" y="-284.3" font-family="Times,serif" font-size="14.00">id :integer</text>
<text text-anchor="start" x="8" y="-270.3" font-family="Times,serif" font-size="14.00">group_id :integer</text>
<text text-anchor="start" x="8" y="-256.3" font-family="Times,serif" font-size="14.00">created_at :datetime</text>
<text text-anchor="start" x="8" y="-242.3" font-family="Times,serif" font-size="14.00">updated_at :datetime</text>
<text text-anchor="start" x="8" y="-228.3" font-family="Times,serif" font-size="14.00">title :string</text>
<text text-anchor="start" x="8" y="-214.3" font-family="Times,serif" font-size="14.00">isbn :string</text>
<text text-anchor="start" x="8" y="-200.3" font-family="Times,serif" font-size="14.00">summary :text</text>
<text text-anchor="start" x="8" y="-186.3" font-family="Times,serif" font-size="14.00">author :string</text>
</g>
<!-- Group -->
<g id="node3" class="node"><title>Group</title>
<path fill="none" stroke="black" d="M230,-359.5C230,-359.5 339.011,-359.5 339.011,-359.5 345.011,-359.5 351.011,-365.5 351.011,-371.5 351.011,-371.5 351.011,-419.5 351.011,-419.5 351.011,-425.5 345.011,-431.5 339.011,-431.5 339.011,-431.5 230,-431.5 230,-431.5 224,-431.5 218,-425.5 218,-419.5 218,-419.5 218,-371.5 218,-371.5 218,-365.5 224,-359.5 230,-359.5"/>
<text text-anchor="middle" x="284.505" y="-416.3" font-family="Times,serif" font-size="14.00">Group</text>
<polyline fill="none" stroke="black" points="218,-409.5 351.011,-409.5 "/>
<text text-anchor="start" x="226" y="-394.3" font-family="Times,serif" font-size="14.00">id :integer</text>
<text text-anchor="start" x="226" y="-380.3" font-family="Times,serif" font-size="14.00">created_at :datetime</text>
<text text-anchor="start" x="226" y="-366.3" font-family="Times,serif" font-size="14.00">updated_at :datetime</text>
</g>
<!-- Group&#45;&gt;Book -->
<g id="edge3" class="edge"><title>Group&#45;&gt;Book</title>
<path fill="none" stroke="#de0c50" d="M210.471,-361.98C187.57,-350.618 162.785,-336.932 141.505,-322 140.897,-321.573 140.289,-321.142 139.681,-320.706"/>
<ellipse fill="none" stroke="#de0c50" cx="214.241" cy="-363.826" rx="4.00002" ry="4.00002"/>
<ellipse fill="#de0c50" stroke="#de0c50" cx="136.392" cy="-318.263" rx="4.00002" ry="4.00002"/>
</g>
<!-- Note -->
<g id="node4" class="node"><title>Note</title>
<path fill="none" stroke="black" d="M627,-193.5C627,-193.5 736.011,-193.5 736.011,-193.5 742.011,-193.5 748.011,-199.5 748.011,-205.5 748.011,-205.5 748.011,-295.5 748.011,-295.5 748.011,-301.5 742.011,-307.5 736.011,-307.5 736.011,-307.5 627,-307.5 627,-307.5 621,-307.5 615,-301.5 615,-295.5 615,-295.5 615,-205.5 615,-205.5 615,-199.5 621,-193.5 627,-193.5"/>
<text text-anchor="middle" x="681.505" y="-292.3" font-family="Times,serif" font-size="14.00">Note</text>
<polyline fill="none" stroke="black" points="615,-285.5 748.011,-285.5 "/>
<text text-anchor="start" x="623" y="-270.3" font-family="Times,serif" font-size="14.00">id :integer</text>
<text text-anchor="start" x="623" y="-256.3" font-family="Times,serif" font-size="14.00">group_id :integer</text>
<text text-anchor="start" x="623" y="-242.3" font-family="Times,serif" font-size="14.00">pagenumber :string</text>
<text text-anchor="start" x="623" y="-228.3" font-family="Times,serif" font-size="14.00">body :text</text>
<text text-anchor="start" x="623" y="-214.3" font-family="Times,serif" font-size="14.00">created_at :datetime</text>
<text text-anchor="start" x="623" y="-200.3" font-family="Times,serif" font-size="14.00">updated_at :datetime</text>
</g>
<!-- Group&#45;&gt;Note -->
<g id="edge4" class="edge"><title>Group&#45;&gt;Note</title>
<path fill="none" stroke="#57d2ee" d="M359.309,-378.167C452.697,-357.702 600.973,-324.937 606.505,-322 611.122,-319.549 615.663,-316.738 620.086,-313.681"/>
<ellipse fill="none" stroke="#57d2ee" cx="355.195" cy="-379.068" rx="4.00001" ry="4.00001"/>
<polygon fill="#57d2ee" stroke="#57d2ee" points="620.382,-313.463 631.102,-311.152 624.407,-310.496 628.432,-307.529 628.432,-307.529 628.432,-307.529 624.407,-310.496 625.762,-303.907 620.382,-313.463 620.382,-313.463"/>
</g>
<!-- Request -->
<g id="node5" class="node"><title>Request</title>
<path fill="none" stroke="black" d="M388.61,-0.5C388.61,-0.5 498.4,-0.5 498.4,-0.5 504.4,-0.5 510.4,-6.5 510.4,-12.5 510.4,-12.5 510.4,-116.5 510.4,-116.5 510.4,-122.5 504.4,-128.5 498.4,-128.5 498.4,-128.5 388.61,-128.5 388.61,-128.5 382.61,-128.5 376.61,-122.5 376.61,-116.5 376.61,-116.5 376.61,-12.5 376.61,-12.5 376.61,-6.5 382.61,-0.5 388.61,-0.5"/>
<text text-anchor="middle" x="443.505" y="-113.3" font-family="Times,serif" font-size="14.00">Request</text>
<polyline fill="none" stroke="black" points="376.61,-106.5 510.4,-106.5 "/>
<text text-anchor="start" x="384.61" y="-91.3" font-family="Times,serif" font-size="14.00">id :integer</text>
<text text-anchor="start" x="384.61" y="-77.3" font-family="Times,serif" font-size="14.00">status :boolean</text>
<text text-anchor="start" x="384.61" y="-63.3" font-family="Times,serif" font-size="14.00">created_at :datetime</text>
<text text-anchor="start" x="384.61" y="-49.3" font-family="Times,serif" font-size="14.00">updated_at :datetime</text>
<text text-anchor="start" x="384.61" y="-35.3" font-family="Times,serif" font-size="14.00">requested_id :integer</text>
<text text-anchor="start" x="384.61" y="-21.3" font-family="Times,serif" font-size="14.00">requester_id :integer</text>
<text text-anchor="start" x="384.61" y="-7.3" font-family="Times,serif" font-size="14.00">group_id :integer</text>
</g>
<!-- Group&#45;&gt;Request -->
<g id="edge2" class="edge"><title>Group&#45;&gt;Request</title>
<path fill="none" stroke="#173483" d="M278.623,-351.025C274.564,-305.327 274.299,-232.746 303.505,-179 320.74,-147.284 339.429,-151.686 367.505,-129 368.333,-128.331 369.165,-127.658 370,-126.98"/>
<ellipse fill="none" stroke="#173483" cx="279.033" cy="-355.253" rx="4" ry="4"/>
<ellipse fill="#173483" stroke="#173483" cx="373.366" cy="-124.24" rx="4.00002" ry="4.00002"/>
</g>
<!-- User -->
<g id="node6" class="node"><title>User</title>
<path fill="none" stroke="black" d="M325,-193.5C325,-193.5 434.011,-193.5 434.011,-193.5 440.011,-193.5 446.011,-199.5 446.011,-205.5 446.011,-205.5 446.011,-295.5 446.011,-295.5 446.011,-301.5 440.011,-307.5 434.011,-307.5 434.011,-307.5 325,-307.5 325,-307.5 319,-307.5 313,-301.5 313,-295.5 313,-295.5 313,-205.5 313,-205.5 313,-199.5 319,-193.5 325,-193.5"/>
<text text-anchor="middle" x="379.505" y="-292.3" font-family="Times,serif" font-size="14.00">User</text>
<polyline fill="none" stroke="black" points="313,-285.5 446.011,-285.5 "/>
<text text-anchor="start" x="321" y="-270.3" font-family="Times,serif" font-size="14.00">id :integer</text>
<text text-anchor="start" x="321" y="-256.3" font-family="Times,serif" font-size="14.00">fname :string</text>
<text text-anchor="start" x="321" y="-242.3" font-family="Times,serif" font-size="14.00">lname :string</text>
<text text-anchor="start" x="321" y="-228.3" font-family="Times,serif" font-size="14.00">email :string</text>
<text text-anchor="start" x="321" y="-214.3" font-family="Times,serif" font-size="14.00">created_at :datetime</text>
<text text-anchor="start" x="321" y="-200.3" font-family="Times,serif" font-size="14.00">updated_at :datetime</text>
</g>
<!-- Group&#45;&gt;User -->
<g id="edge6" class="edge"><title>Group&#45;&gt;User</title>
<path fill="none" stroke="#1ca21e" d="M313.739,-350.495C320.984,-339.59 328.897,-327.679 336.644,-316.017"/>
<polygon fill="#1ca21e" stroke="#1ca21e" points="313.522,-350.822 304.24,-356.662 310.755,-354.987 307.989,-359.152 307.989,-359.152 307.989,-359.152 310.755,-354.987 311.737,-361.642 313.522,-350.822 313.522,-350.822"/>
<polygon fill="#1ca21e" stroke="#1ca21e" points="336.711,-315.917 345.993,-310.078 339.477,-311.752 342.244,-307.588 342.244,-307.588 342.244,-307.588 339.477,-311.752 338.496,-305.098 336.711,-315.917 336.711,-315.917"/>
</g>
<!-- GroupsUser -->
<g id="node8" class="node"><title>GroupsUser</title>
<ellipse fill="none" stroke="black" cx="203.505" cy="-250.5" rx="52.6865" ry="18"/>
<text text-anchor="middle" x="203.505" y="-246.3" font-family="Times,serif" font-size="14.00">GroupsUser</text>
</g>
<!-- Group&#45;&gt;GroupsUser -->
<g id="edge5" class="edge"><title>Group&#45;&gt;GroupsUser</title>
<path fill="none" stroke="#7efe37" d="M260.536,-352.184C246.747,-327.84 229.871,-298.046 218.068,-277.209"/>
<ellipse fill="none" stroke="#7efe37" cx="262.511" cy="-355.671" rx="4.00002" ry="4.00002"/>
<polygon fill="#7efe37" stroke="#7efe37" points="217.96,-277.019 216.947,-266.1 215.496,-272.668 213.032,-268.318 213.032,-268.318 213.032,-268.318 215.496,-272.668 209.116,-270.536 217.96,-277.019 217.96,-277.019"/>
</g>
<!-- User&#45;&gt;Request -->
<g id="edge10" class="edge"><title>User&#45;&gt;Request</title>
<path fill="none" stroke="#c77d35" d="M392.982,-185.363C396.286,-172.514 400.146,-159.215 404.505,-147 405.552,-144.066 406.672,-141.097 407.846,-138.116"/>
<ellipse fill="none" stroke="#c77d35" cx="391.969" cy="-189.411" rx="4.00001" ry="4.00001"/>
<polygon fill="#c77d35" stroke="#c77d35" points="407.962,-137.832 415.923,-130.29 409.861,-133.207 411.76,-128.581 411.76,-128.581 411.76,-128.581 409.861,-133.207 407.597,-126.872 407.962,-137.832 407.962,-137.832"/>
</g>
<!-- User&#45;&gt;Request -->
<g id="edge12" class="edge"><title>User&#45;&gt;Request</title>
<path fill="none" stroke="#f097fd" d="M401.758,-185.525C407.054,-170.297 412.745,-153.937 418.168,-138.346"/>
<ellipse fill="none" stroke="#f097fd" cx="400.369" cy="-189.516" rx="4.00001" ry="4.00001"/>
<polygon fill="#f097fd" stroke="#f097fd" points="418.219,-138.199 425.754,-130.232 419.861,-133.476 421.504,-128.754 421.504,-128.754 421.504,-128.754 419.861,-133.476 417.254,-127.276 418.219,-138.199 418.219,-138.199"/>
<text text-anchor="middle" x="459.15" y="-149.8" font-family="Times,serif" font-size="14.00">reverse_requests</text>
</g>
<!-- User&#45;&gt;User -->
<g id="edge11" class="edge"><title>User&#45;&gt;User</title>
<path fill="none" stroke="#d4cb11" d="M456.084,-256.481C461.025,-255.084 464.011,-253.09 464.011,-250.5 464.011,-247.91 461.025,-245.916 456.084,-244.519"/>
<polygon fill="#d4cb11" stroke="#d4cb11" points="455.948,-256.505 445.311,-253.841 451.027,-257.388 446.105,-258.27 446.105,-258.27 446.105,-258.27 451.027,-257.388 446.899,-262.699 455.948,-256.505 455.948,-256.505"/>
<polygon fill="#d4cb11" stroke="#d4cb11" points="455.948,-244.495 446.899,-238.301 451.027,-243.612 446.105,-242.73 446.105,-242.73 446.105,-242.73 451.027,-243.612 445.311,-247.159 455.948,-244.495 455.948,-244.495"/>
<text text-anchor="middle" x="493.556" y="-246.3" font-family="Times,serif" font-size="14.00">requesteds</text>
</g>
<!-- User&#45;&gt;User -->
<g id="edge13" class="edge"><title>User&#45;&gt;User</title>
<path fill="none" stroke="#18e83f" d="M456.377,-267.265C491.144,-268.247 523.101,-262.659 523.101,-250.5 523.101,-238.341 491.144,-232.753 456.377,-233.735"/>
<polygon fill="#18e83f" stroke="#18e83f" points="456.016,-267.248 446.237,-262.287 451.022,-267.015 446.027,-266.782 446.027,-266.782 446.027,-266.782 451.022,-267.015 445.817,-271.277 456.016,-267.248 456.016,-267.248"/>
<polygon fill="#18e83f" stroke="#18e83f" points="456.016,-233.752 445.817,-229.723 451.022,-233.985 446.027,-234.218 446.027,-234.218 446.027,-234.218 451.022,-233.985 446.237,-238.713 456.016,-233.752 456.016,-233.752"/>
<text text-anchor="middle" x="551.477" y="-246.3" font-family="Times,serif" font-size="14.00">requesters</text>
</g>
<!-- UsersGroup -->
<g id="node9" class="node"><title>UsersGroup</title>
<ellipse fill="none" stroke="black" cx="305.505" cy="-64.5" rx="52.6865" ry="18"/>
<text text-anchor="middle" x="305.505" y="-60.3" font-family="Times,serif" font-size="14.00">UsersGroup</text>
</g>
<!-- User&#45;&gt;UsersGroup -->
<g id="edge14" class="edge"><title>User&#45;&gt;UsersGroup</title>
<path fill="none" stroke="#735832" d="M353.805,-185.596C340.872,-153.44 325.903,-116.218 316.099,-91.8401"/>
<ellipse fill="none" stroke="#735832" cx="355.408" cy="-189.583" rx="4.00001" ry="4.00001"/>
<polygon fill="#735832" stroke="#735832" points="316.091,-91.8199 316.534,-80.863 314.225,-87.181 312.359,-82.5421 312.359,-82.5421 312.359,-82.5421 314.225,-87.181 308.184,-84.2212 316.091,-91.8199 316.091,-91.8199"/>
</g>
<!-- ActiveRecord::Base -->
<g id="node7" class="node"><title>ActiveRecord::Base</title>
<ellipse fill="none" stroke="black" cx="379.505" cy="-505.5" rx="81.1422" ry="18"/>
<text text-anchor="middle" x="379.505" y="-501.3" font-family="Times,serif" font-size="14.00">ActiveRecord::Base</text>
</g>
<!-- ActiveRecord::Base&#45;&gt;Book -->
<g id="edge1" class="edge"><title>ActiveRecord::Base&#45;&gt;Book</title>
<path fill="none" stroke="black" d="M341.541,-489.572C294.642,-470.95 219.65,-440.518 208.505,-432 169.066,-401.855 134.403,-358.34 109.198,-321.589"/>
</g>
<!-- ActiveRecord::Base&#45;&gt;Group -->
<g id="edge7" class="edge"><title>ActiveRecord::Base&#45;&gt;Group</title>
<path fill="none" stroke="black" d="M364.662,-487.625C351.511,-472.675 331.888,-450.366 315.349,-431.565"/>
</g>
<!-- ActiveRecord::Base&#45;&gt;Note -->
<g id="edge8" class="edge"><title>ActiveRecord::Base&#45;&gt;Note</title>
<path fill="none" stroke="black" d="M401.238,-487.93C442.189,-456.513 533.247,-385.713 606.505,-322 611.764,-317.426 617.161,-312.61 622.533,-307.731"/>
</g>
<!-- ActiveRecord::Base&#45;&gt;Request -->
<g id="edge9" class="edge"><title>ActiveRecord::Base&#45;&gt;Request</title>
<path fill="none" stroke="black" d="M444.613,-494.553C533.281,-477.121 688.819,-431.822 757.505,-322 791.207,-268.116 794.017,-231.021 757.505,-179 701.81,-99.6465 584.865,-75.5346 510.473,-68.3536"/>
</g>
<!-- ActiveRecord::Base&#45;&gt;User -->
<g id="edge15" class="edge"><title>ActiveRecord::Base&#45;&gt;User</title>
<path fill="none" stroke="black" d="M379.505,-487.11C379.505,-450.66 379.505,-364.886 379.505,-307.518"/>
</g>
</g>
</svg>
