<?xml version="1.0" encoding="UTF-8" standalone="no"?>
<!DOCTYPE svg PUBLIC "-//W3C//DTD SVG 1.1//EN"
 "http://www.w3.org/Graphics/SVG/1.1/DTD/svg11.dtd">
<!-- Generated by graphviz version 2.38.0 (20140413.2041)
 -->
<!-- Title: models_diagram Pages: 1 -->
<svg width="980pt" height="872pt"
 viewBox="0.00 0.00 979.75 872.00" xmlns="http://www.w3.org/2000/svg" xmlns:xlink="http://www.w3.org/1999/xlink">
<g id="graph0" class="graph" transform="scale(1 1) rotate(0) translate(4 868)">
<title>models_diagram</title>
<polygon fill="white" stroke="none" points="-4,4 -4,-868 975.75,-868 975.75,4 -4,4"/>
<!-- _diagram_info -->
<g id="node1" class="node"><title>_diagram_info</title>
<text text-anchor="start" x="141.557" y="-849.6" font-family="Times,serif" font-size="13.00">Models diagram</text>
<text text-anchor="start" x="141.557" y="-836.6" font-family="Times,serif" font-size="13.00">Date: Jul 24 2014 &#45; 21:50</text>
<text text-anchor="start" x="141.557" y="-823.6" font-family="Times,serif" font-size="13.00">Migration version: 20140724174523</text>
<text text-anchor="start" x="141.557" y="-810.6" font-family="Times,serif" font-size="13.00">Generated by RailRoady 1.1.1</text>
<text text-anchor="start" x="141.557" y="-797.6" font-family="Times,serif" font-size="13.00">http://railroady.prestonlee.com</text>
</g>
<!-- Book -->
<g id="node2" class="node"><title>Book</title>
<path fill="none" stroke="black" d="M64.4462,-354.5C64.4462,-354.5 182.043,-354.5 182.043,-354.5 188.043,-354.5 194.043,-360.5 194.043,-366.5 194.043,-366.5 194.043,-582.5 194.043,-582.5 194.043,-588.5 188.043,-594.5 182.043,-594.5 182.043,-594.5 64.4462,-594.5 64.4462,-594.5 58.4462,-594.5 52.4462,-588.5 52.4462,-582.5 52.4462,-582.5 52.4462,-366.5 52.4462,-366.5 52.4462,-360.5 58.4462,-354.5 64.4462,-354.5"/>
<text text-anchor="middle" x="123.245" y="-579.3" font-family="Times,serif" font-size="14.00">Book</text>
<polyline fill="none" stroke="black" points="52.4462,-572.5 194.043,-572.5 "/>
<text text-anchor="start" x="60.4462" y="-557.3" font-family="Times,serif" font-size="14.00">id :integer</text>
<text text-anchor="start" x="60.4462" y="-543.3" font-family="Times,serif" font-size="14.00">group_id :integer</text>
<text text-anchor="start" x="60.4462" y="-529.3" font-family="Times,serif" font-size="14.00">created_at :datetime</text>
<text text-anchor="start" x="60.4462" y="-515.3" font-family="Times,serif" font-size="14.00">updated_at :datetime</text>
<text text-anchor="start" x="60.4462" y="-501.3" font-family="Times,serif" font-size="14.00">title :string</text>
<text text-anchor="start" x="60.4462" y="-487.3" font-family="Times,serif" font-size="14.00">isbn :string</text>
<text text-anchor="start" x="60.4462" y="-473.3" font-family="Times,serif" font-size="14.00">summary :text</text>
<text text-anchor="start" x="60.4462" y="-459.3" font-family="Times,serif" font-size="14.00">author :string</text>
<text text-anchor="start" x="60.4462" y="-445.3" font-family="Times,serif" font-size="14.00">publisher :string</text>
<text text-anchor="start" x="60.4462" y="-431.3" font-family="Times,serif" font-size="14.00">pagecount :integer</text>
<text text-anchor="start" x="60.4462" y="-417.3" font-family="Times,serif" font-size="14.00">imagelinklarge :string</text>
<text text-anchor="start" x="60.4462" y="-403.3" font-family="Times,serif" font-size="14.00">imagelinksmall :string</text>
<text text-anchor="start" x="60.4462" y="-389.3" font-family="Times,serif" font-size="14.00">datepublished :string</text>
<text text-anchor="start" x="60.4462" y="-375.3" font-family="Times,serif" font-size="14.00">buylink :string</text>
<text text-anchor="start" x="60.4462" y="-361.3" font-family="Times,serif" font-size="14.00">previewlink :string</text>
</g>
<!-- Genre -->
<g id="node3" class="node"><title>Genre</title>
<path fill="none" stroke="black" d="M850.739,-0.5C850.739,-0.5 959.75,-0.5 959.75,-0.5 965.75,-0.5 971.75,-6.5 971.75,-12.5 971.75,-12.5 971.75,-256.5 971.75,-256.5 971.75,-262.5 965.75,-268.5 959.75,-268.5 959.75,-268.5 850.739,-268.5 850.739,-268.5 844.739,-268.5 838.739,-262.5 838.739,-256.5 838.739,-256.5 838.739,-12.5 838.739,-12.5 838.739,-6.5 844.739,-0.5 850.739,-0.5"/>
<text text-anchor="middle" x="905.245" y="-253.3" font-family="Times,serif" font-size="14.00">Genre</text>
<polyline fill="none" stroke="black" points="838.739,-246.5 971.75,-246.5 "/>
<text text-anchor="start" x="846.739" y="-231.3" font-family="Times,serif" font-size="14.00">id :integer</text>
<text text-anchor="start" x="846.739" y="-217.3" font-family="Times,serif" font-size="14.00">classic :integer</text>
<text text-anchor="start" x="846.739" y="-203.3" font-family="Times,serif" font-size="14.00">comedy :integer</text>
<text text-anchor="start" x="846.739" y="-189.3" font-family="Times,serif" font-size="14.00">comic :integer</text>
<text text-anchor="start" x="846.739" y="-175.3" font-family="Times,serif" font-size="14.00">educational :integer</text>
<text text-anchor="start" x="846.739" y="-161.3" font-family="Times,serif" font-size="14.00">historical :integer</text>
<text text-anchor="start" x="846.739" y="-147.3" font-family="Times,serif" font-size="14.00">memoir :integer</text>
<text text-anchor="start" x="846.739" y="-133.3" font-family="Times,serif" font-size="14.00">mystery :integer</text>
<text text-anchor="start" x="846.739" y="-119.3" font-family="Times,serif" font-size="14.00">nonfiction :integer</text>
<text text-anchor="start" x="846.739" y="-105.3" font-family="Times,serif" font-size="14.00">poetry :integer</text>
<text text-anchor="start" x="846.739" y="-91.3" font-family="Times,serif" font-size="14.00">pulp :integer</text>
<text text-anchor="start" x="846.739" y="-77.3" font-family="Times,serif" font-size="14.00">romance :integer</text>
<text text-anchor="start" x="846.739" y="-63.3" font-family="Times,serif" font-size="14.00">scifi :integer</text>
<text text-anchor="start" x="846.739" y="-49.3" font-family="Times,serif" font-size="14.00">shortstory :integer</text>
<text text-anchor="start" x="846.739" y="-35.3" font-family="Times,serif" font-size="14.00">created_at :datetime</text>
<text text-anchor="start" x="846.739" y="-21.3" font-family="Times,serif" font-size="14.00">updated_at :datetime</text>
<text text-anchor="start" x="846.739" y="-7.3" font-family="Times,serif" font-size="14.00">user_id :integer</text>
</g>
<!-- Group -->
<g id="node4" class="node"><title>Group</title>
<path fill="none" stroke="black" d="M269.739,-667.5C269.739,-667.5 378.75,-667.5 378.75,-667.5 384.75,-667.5 390.75,-673.5 390.75,-679.5 390.75,-679.5 390.75,-741.5 390.75,-741.5 390.75,-747.5 384.75,-753.5 378.75,-753.5 378.75,-753.5 269.739,-753.5 269.739,-753.5 263.739,-753.5 257.739,-747.5 257.739,-741.5 257.739,-741.5 257.739,-679.5 257.739,-679.5 257.739,-673.5 263.739,-667.5 269.739,-667.5"/>
<text text-anchor="middle" x="324.245" y="-738.3" font-family="Times,serif" font-size="14.00">Group</text>
<polyline fill="none" stroke="black" points="257.739,-731.5 390.75,-731.5 "/>
<text text-anchor="start" x="265.739" y="-716.3" font-family="Times,serif" font-size="14.00">id :integer</text>
<text text-anchor="start" x="265.739" y="-702.3" font-family="Times,serif" font-size="14.00">created_at :datetime</text>
<text text-anchor="start" x="265.739" y="-688.3" font-family="Times,serif" font-size="14.00">updated_at :datetime</text>
<text text-anchor="start" x="265.739" y="-674.3" font-family="Times,serif" font-size="14.00">status :boolean</text>
</g>
<!-- Group&#45;&gt;Book -->
<g id="edge4" class="edge"><title>Group&#45;&gt;Book</title>
<path fill="none" stroke="#7bbf88" d="M250.233,-679.892C235.096,-671.493 220.168,-661.228 208.245,-649 194.824,-635.237 183.152,-618.94 173.118,-601.934"/>
<ellipse fill="none" stroke="#7bbf88" cx="254.141" cy="-681.98" rx="4.00002" ry="4.00002"/>
<ellipse fill="#7bbf88" stroke="#7bbf88" cx="170.908" cy="-598.078" rx="4.00002" ry="4.00002"/>
</g>
<!-- Note -->
<g id="node5" class="node"><title>Note</title>
<path fill="none" stroke="black" d="M385.739,-410.5C385.739,-410.5 494.75,-410.5 494.75,-410.5 500.75,-410.5 506.75,-416.5 506.75,-422.5 506.75,-422.5 506.75,-526.5 506.75,-526.5 506.75,-532.5 500.75,-538.5 494.75,-538.5 494.75,-538.5 385.739,-538.5 385.739,-538.5 379.739,-538.5 373.739,-532.5 373.739,-526.5 373.739,-526.5 373.739,-422.5 373.739,-422.5 373.739,-416.5 379.739,-410.5 385.739,-410.5"/>
<text text-anchor="middle" x="440.245" y="-523.3" font-family="Times,serif" font-size="14.00">Note</text>
<polyline fill="none" stroke="black" points="373.739,-516.5 506.75,-516.5 "/>
<text text-anchor="start" x="381.739" y="-501.3" font-family="Times,serif" font-size="14.00">id :integer</text>
<text text-anchor="start" x="381.739" y="-487.3" font-family="Times,serif" font-size="14.00">group_id :integer</text>
<text text-anchor="start" x="381.739" y="-473.3" font-family="Times,serif" font-size="14.00">pagenumber :integer</text>
<text text-anchor="start" x="381.739" y="-459.3" font-family="Times,serif" font-size="14.00">body :text</text>
<text text-anchor="start" x="381.739" y="-445.3" font-family="Times,serif" font-size="14.00">created_at :datetime</text>
<text text-anchor="start" x="381.739" y="-431.3" font-family="Times,serif" font-size="14.00">updated_at :datetime</text>
<text text-anchor="start" x="381.739" y="-417.3" font-family="Times,serif" font-size="14.00">user_id :integer</text>
</g>
<!-- Group&#45;&gt;Note -->
<g id="edge5" class="edge"><title>Group&#45;&gt;Note</title>
<path fill="none" stroke="#dfce2e" d="M350.018,-659.98C355.108,-650.072 360.379,-639.722 365.245,-630 378.614,-603.287 393.006,-573.819 405.573,-547.844"/>
<ellipse fill="none" stroke="#dfce2e" cx="348.183" cy="-663.544" rx="4.00002" ry="4.00002"/>
<polygon fill="#dfce2e" stroke="#dfce2e" points="405.586,-547.816 413.989,-540.77 407.762,-543.315 409.937,-538.813 409.937,-538.813 409.937,-538.813 407.762,-543.315 405.885,-536.855 405.586,-547.816 405.586,-547.816"/>
</g>
<!-- Request -->
<g id="node7" class="node"><title>Request</title>
<path fill="none" stroke="black" d="M211.35,-70.5C211.35,-70.5 321.14,-70.5 321.14,-70.5 327.14,-70.5 333.14,-76.5 333.14,-82.5 333.14,-82.5 333.14,-186.5 333.14,-186.5 333.14,-192.5 327.14,-198.5 321.14,-198.5 321.14,-198.5 211.35,-198.5 211.35,-198.5 205.35,-198.5 199.35,-192.5 199.35,-186.5 199.35,-186.5 199.35,-82.5 199.35,-82.5 199.35,-76.5 205.35,-70.5 211.35,-70.5"/>
<text text-anchor="middle" x="266.245" y="-183.3" font-family="Times,serif" font-size="14.00">Request</text>
<polyline fill="none" stroke="black" points="199.35,-176.5 333.14,-176.5 "/>
<text text-anchor="start" x="207.35" y="-161.3" font-family="Times,serif" font-size="14.00">id :integer</text>
<text text-anchor="start" x="207.35" y="-147.3" font-family="Times,serif" font-size="14.00">status :boolean</text>
<text text-anchor="start" x="207.35" y="-133.3" font-family="Times,serif" font-size="14.00">created_at :datetime</text>
<text text-anchor="start" x="207.35" y="-119.3" font-family="Times,serif" font-size="14.00">updated_at :datetime</text>
<text text-anchor="start" x="207.35" y="-105.3" font-family="Times,serif" font-size="14.00">requested_id :integer</text>
<text text-anchor="start" x="207.35" y="-91.3" font-family="Times,serif" font-size="14.00">requester_id :integer</text>
<text text-anchor="start" x="207.35" y="-77.3" font-family="Times,serif" font-size="14.00">group_id :integer</text>
</g>
<!-- Group&#45;&gt;Request -->
<g id="edge3" class="edge"><title>Group&#45;&gt;Request</title>
<path fill="none" stroke="#5f45b3" d="M261.666,-661.115C253.361,-651.746 246.064,-641.29 241.245,-630 181.277,-489.523 216.6,-305.821 243.822,-206.576"/>
<ellipse fill="none" stroke="#5f45b3" cx="264.527" cy="-664.186" rx="4.00002" ry="4.00002"/>
<ellipse fill="#5f45b3" stroke="#5f45b3" cx="244.942" cy="-202.554" rx="4.00001" ry="4.00001"/>
</g>
<!-- User -->
<g id="node8" class="node"><title>User</title>
<path fill="none" stroke="black" d="M536.632,-319.5C536.632,-319.5 679.857,-319.5 679.857,-319.5 685.857,-319.5 691.857,-325.5 691.857,-331.5 691.857,-331.5 691.857,-617.5 691.857,-617.5 691.857,-623.5 685.857,-629.5 679.857,-629.5 679.857,-629.5 536.632,-629.5 536.632,-629.5 530.632,-629.5 524.632,-623.5 524.632,-617.5 524.632,-617.5 524.632,-331.5 524.632,-331.5 524.632,-325.5 530.632,-319.5 536.632,-319.5"/>
<text text-anchor="middle" x="608.245" y="-614.3" font-family="Times,serif" font-size="14.00">User</text>
<polyline fill="none" stroke="black" points="524.632,-607.5 691.857,-607.5 "/>
<text text-anchor="start" x="532.632" y="-592.3" font-family="Times,serif" font-size="14.00">id :integer</text>
<text text-anchor="start" x="532.632" y="-578.3" font-family="Times,serif" font-size="14.00">fname :string</text>
<text text-anchor="start" x="532.632" y="-564.3" font-family="Times,serif" font-size="14.00">lname :string</text>
<text text-anchor="start" x="532.632" y="-550.3" font-family="Times,serif" font-size="14.00">email :string</text>
<text text-anchor="start" x="532.632" y="-536.3" font-family="Times,serif" font-size="14.00">created_at :datetime</text>
<text text-anchor="start" x="532.632" y="-522.3" font-family="Times,serif" font-size="14.00">updated_at :datetime</text>
<text text-anchor="start" x="532.632" y="-508.3" font-family="Times,serif" font-size="14.00">provider :string</text>
<text text-anchor="start" x="532.632" y="-494.3" font-family="Times,serif" font-size="14.00">uid :string</text>
<text text-anchor="start" x="532.632" y="-480.3" font-family="Times,serif" font-size="14.00">name :string</text>
<text text-anchor="start" x="532.632" y="-466.3" font-family="Times,serif" font-size="14.00">oauth_token :string</text>
<text text-anchor="start" x="532.632" y="-452.3" font-family="Times,serif" font-size="14.00">oauth_expires_at :datetime</text>
<text text-anchor="start" x="532.632" y="-438.3" font-family="Times,serif" font-size="14.00">image :string</text>
<text text-anchor="start" x="532.632" y="-424.3" font-family="Times,serif" font-size="14.00">gender :string</text>
<text text-anchor="start" x="532.632" y="-410.3" font-family="Times,serif" font-size="14.00">location :string</text>
<text text-anchor="start" x="532.632" y="-396.3" font-family="Times,serif" font-size="14.00">description :text</text>
<text text-anchor="start" x="532.632" y="-382.3" font-family="Times,serif" font-size="14.00">fav_books :text</text>
<text text-anchor="start" x="532.632" y="-368.3" font-family="Times,serif" font-size="14.00">fav_genres :text</text>
<text text-anchor="start" x="532.632" y="-354.3" font-family="Times,serif" font-size="14.00">fav_authors :text</text>
<text text-anchor="start" x="532.632" y="-340.3" font-family="Times,serif" font-size="14.00">age :integer</text>
<text text-anchor="start" x="532.632" y="-326.3" font-family="Times,serif" font-size="14.00">zipcode :string</text>
</g>
<!-- Group&#45;&gt;User -->
<g id="edge7" class="edge"><title>Group&#45;&gt;User</title>
<path fill="none" stroke="#63d54a" d="M400.838,-690.23C438.741,-677.79 483.307,-658.491 516.245,-630 516.51,-629.77 516.775,-629.54 517.04,-629.308"/>
<polygon fill="#63d54a" stroke="#63d54a" points="400.38,-690.375 389.487,-689.114 395.614,-691.889 390.849,-693.402 390.849,-693.402 390.849,-693.402 395.614,-691.889 392.211,-697.691 400.38,-690.375 400.38,-690.375"/>
<polygon fill="#63d54a" stroke="#63d54a" points="517.224,-629.137 527.615,-625.632 520.889,-625.735 524.554,-622.334 524.554,-622.334 524.554,-622.334 520.889,-625.735 521.493,-619.036 517.224,-629.137 517.224,-629.137"/>
</g>
<!-- GroupsUser -->
<g id="node10" class="node"><title>GroupsUser</title>
<ellipse fill="none" stroke="black" cx="303.245" cy="-474.5" rx="52.6865" ry="18"/>
<text text-anchor="middle" x="303.245" y="-470.3" font-family="Times,serif" font-size="14.00">GroupsUser</text>
</g>
<!-- Group&#45;&gt;GroupsUser -->
<g id="edge6" class="edge"><title>Group&#45;&gt;GroupsUser</title>
<path fill="none" stroke="#062369" d="M319.731,-659.204C315.438,-611.374 309.142,-541.211 305.705,-502.919"/>
<ellipse fill="none" stroke="#062369" cx="320.108" cy="-663.411" rx="4" ry="4"/>
<polygon fill="#062369" stroke="#062369" points="305.67,-502.523 309.258,-492.161 305.223,-497.543 304.776,-492.563 304.776,-492.563 304.776,-492.563 305.223,-497.543 300.294,-492.965 305.67,-502.523 305.67,-502.523"/>
</g>
<!-- Notification -->
<g id="node6" class="node"><title>Notification</title>
<path fill="none" stroke="black" d="M696.739,-63.5C696.739,-63.5 805.75,-63.5 805.75,-63.5 811.75,-63.5 817.75,-69.5 817.75,-75.5 817.75,-75.5 817.75,-193.5 817.75,-193.5 817.75,-199.5 811.75,-205.5 805.75,-205.5 805.75,-205.5 696.739,-205.5 696.739,-205.5 690.739,-205.5 684.739,-199.5 684.739,-193.5 684.739,-193.5 684.739,-75.5 684.739,-75.5 684.739,-69.5 690.739,-63.5 696.739,-63.5"/>
<text text-anchor="middle" x="751.245" y="-190.3" font-family="Times,serif" font-size="14.00">Notification</text>
<polyline fill="none" stroke="black" points="684.739,-183.5 817.75,-183.5 "/>
<text text-anchor="start" x="692.739" y="-168.3" font-family="Times,serif" font-size="14.00">id :integer</text>
<text text-anchor="start" x="692.739" y="-154.3" font-family="Times,serif" font-size="14.00">user_id :integer</text>
<text text-anchor="start" x="692.739" y="-140.3" font-family="Times,serif" font-size="14.00">read :boolean</text>
<text text-anchor="start" x="692.739" y="-126.3" font-family="Times,serif" font-size="14.00">content :string</text>
<text text-anchor="start" x="692.739" y="-112.3" font-family="Times,serif" font-size="14.00">created_at :datetime</text>
<text text-anchor="start" x="692.739" y="-98.3" font-family="Times,serif" font-size="14.00">updated_at :datetime</text>
<text text-anchor="start" x="692.739" y="-84.3" font-family="Times,serif" font-size="14.00">destination :string</text>
<text text-anchor="start" x="692.739" y="-70.3" font-family="Times,serif" font-size="14.00">group :integer</text>
</g>
<!-- User&#45;&gt;Genre -->
<g id="edge17" class="edge"><title>User&#45;&gt;Genre</title>
<path fill="none" stroke="#5917c3" d="M698.225,-400.151C740.243,-363.345 789.251,-316.545 827.245,-269 829.413,-266.287 831.561,-263.507 833.685,-260.674"/>
<ellipse fill="none" stroke="#5917c3" cx="695.093" cy="-402.879" rx="4.00002" ry="4.00002"/>
<ellipse fill="#5917c3" stroke="#5917c3" cx="836.233" cy="-257.2" rx="4.00002" ry="4.00002"/>
</g>
<!-- User&#45;&gt;Notification -->
<g id="edge18" class="edge"><title>User&#45;&gt;Notification</title>
<path fill="none" stroke="#db1fbc" d="M676.621,-311.883C690.866,-278.214 705.276,-244.154 717.584,-215.061"/>
<ellipse fill="none" stroke="#db1fbc" cx="675.026" cy="-315.653" rx="4.00002" ry="4.00002"/>
<polygon fill="#db1fbc" stroke="#db1fbc" points="717.607,-215.006 725.648,-207.55 719.555,-210.402 721.504,-205.797 721.504,-205.797 721.504,-205.797 719.555,-210.402 717.359,-204.043 717.607,-215.006 717.607,-215.006"/>
</g>
<!-- User&#45;&gt;Request -->
<g id="edge12" class="edge"><title>User&#45;&gt;Request</title>
<path fill="none" stroke="#f25232" d="M519.414,-322.551C518.364,-321.354 517.307,-320.17 516.245,-319 465.411,-263.031 395.118,-213.248 342.012,-179.706"/>
<ellipse fill="none" stroke="#f25232" cx="522.016" cy="-325.599" rx="4.00002" ry="4.00002"/>
<polygon fill="#f25232" stroke="#f25232" points="341.784,-179.564 335.697,-170.443 337.547,-176.911 333.309,-174.257 333.309,-174.257 333.309,-174.257 337.547,-176.911 330.921,-178.071 341.784,-179.564 341.784,-179.564"/>
</g>
<!-- User&#45;&gt;Request -->
<g id="edge14" class="edge"><title>User&#45;&gt;Request</title>
<path fill="none" stroke="#2048ad" d="M518.11,-320.266C517.492,-319.838 516.87,-319.416 516.245,-319 468.676,-287.35 438.059,-330.211 388.955,-301 352.128,-279.093 322.897,-241.449 302.217,-207.592"/>
<ellipse fill="none" stroke="#2048ad" cx="521.378" cy="-322.681" rx="4.00002" ry="4.00002"/>
<polygon fill="#2048ad" stroke="#2048ad" points="301.992,-207.214 300.745,-196.319 299.435,-202.917 296.878,-198.62 296.878,-198.62 296.878,-198.62 299.435,-202.917 293.011,-200.921 301.992,-207.214 301.992,-207.214"/>
<text text-anchor="middle" x="434.89" y="-289.8" font-family="Times,serif" font-size="14.00">reverse_requests</text>
</g>
<!-- User&#45;&gt;User -->
<g id="edge13" class="edge"><title>User&#45;&gt;User</title>
<path fill="none" stroke="#790f67" d="M701.636,-485.429C706.79,-482.771 709.857,-479.128 709.857,-474.5 709.857,-469.872 706.79,-466.229 701.636,-463.571"/>
<polygon fill="#790f67" stroke="#790f67" points="701.402,-485.51 690.479,-484.546 696.68,-487.153 691.957,-488.796 691.957,-488.796 691.957,-488.796 696.68,-487.153 693.436,-493.046 701.402,-485.51 701.402,-485.51"/>
<polygon fill="#790f67" stroke="#790f67" points="701.402,-463.49 693.436,-455.954 696.68,-461.847 691.957,-460.204 691.957,-460.204 691.957,-460.204 696.68,-461.847 690.479,-464.454 701.402,-463.49 701.402,-463.49"/>
<text text-anchor="middle" x="739.402" y="-470.3" font-family="Times,serif" font-size="14.00">requesteds</text>
</g>
<!-- User&#45;&gt;User -->
<g id="edge15" class="edge"><title>User&#45;&gt;User</title>
<path fill="none" stroke="#6d2164" d="M702.44,-507.121C738.103,-507.351 768.947,-496.478 768.947,-474.5 768.947,-452.522 738.103,-441.649 702.44,-441.879"/>
<polygon fill="#6d2164" stroke="#6d2164" points="702.269,-507.115 692.435,-502.265 697.272,-506.939 692.276,-506.762 692.276,-506.762 692.276,-506.762 697.272,-506.939 692.117,-511.259 702.269,-507.115 702.269,-507.115"/>
<polygon fill="#6d2164" stroke="#6d2164" points="702.269,-441.885 692.117,-437.741 697.272,-442.061 692.276,-442.238 692.276,-442.238 692.276,-442.238 697.272,-442.061 692.435,-446.735 702.269,-441.885 702.269,-441.885"/>
<text text-anchor="middle" x="797.323" y="-470.3" font-family="Times,serif" font-size="14.00">requesters</text>
</g>
<!-- UsersGroup -->
<g id="node11" class="node"><title>UsersGroup</title>
<ellipse fill="none" stroke="black" cx="608.245" cy="-134.5" rx="52.6865" ry="18"/>
<text text-anchor="middle" x="608.245" y="-130.3" font-family="Times,serif" font-size="14.00">UsersGroup</text>
</g>
<!-- User&#45;&gt;UsersGroup -->
<g id="edge16" class="edge"><title>User&#45;&gt;UsersGroup</title>
<path fill="none" stroke="#741a29" d="M608.245,-311.183C608.245,-254.022 608.245,-195.841 608.245,-162.849"/>
<ellipse fill="none" stroke="#741a29" cx="608.245" cy="-315.337" rx="4" ry="4"/>
<polygon fill="#741a29" stroke="#741a29" points="608.245,-162.664 612.745,-152.664 608.245,-157.664 608.245,-152.664 608.245,-152.664 608.245,-152.664 608.245,-157.664 603.745,-152.664 608.245,-162.664 608.245,-162.664"/>
</g>
<!-- ActiveRecord::Base -->
<g id="node9" class="node"><title>ActiveRecord::Base</title>
<ellipse fill="none" stroke="black" cx="440.245" cy="-827.5" rx="81.1422" ry="18"/>
<text text-anchor="middle" x="440.245" y="-823.3" font-family="Times,serif" font-size="14.00">ActiveRecord::Base</text>
</g>
<!-- ActiveRecord::Base&#45;&gt;Book -->
<g id="edge1" class="edge"><title>ActiveRecord::Base&#45;&gt;Book</title>
<path fill="none" stroke="black" d="M402.676,-811.413C386.571,-805.015 367.524,-797.541 350.245,-791 305.144,-773.929 283.58,-786.816 248.245,-754 202.615,-711.624 172.539,-649.477 153.351,-594.635"/>
</g>
<!-- ActiveRecord::Base&#45;&gt;Genre -->
<g id="edge2" class="edge"><title>ActiveRecord::Base&#45;&gt;Genre</title>
<path fill="none" stroke="black" d="M519.56,-823.42C591.268,-817.522 697.505,-800.806 777.245,-754 840.525,-716.855 859.044,-698.149 886.245,-630 932.424,-514.3 932.386,-371.023 923.672,-268.527"/>
</g>
<!-- ActiveRecord::Base&#45;&gt;Group -->
<g id="edge8" class="edge"><title>ActiveRecord::Base&#45;&gt;Group</title>
<path fill="none" stroke="black" d="M423.128,-809.531C408.381,-794.911 386.459,-773.178 367.001,-753.888"/>
</g>
<!-- ActiveRecord::Base&#45;&gt;Note -->
<g id="edge9" class="edge"><title>ActiveRecord::Base&#45;&gt;Note</title>
<path fill="none" stroke="black" d="M440.245,-809.094C440.245,-760.402 440.245,-620.986 440.245,-538.606"/>
</g>
<!-- ActiveRecord::Base&#45;&gt;Notification -->
<g id="edge10" class="edge"><title>ActiveRecord::Base&#45;&gt;Notification</title>
<path fill="none" stroke="black" d="M506.299,-816.947C601.921,-799.175 775.809,-751.14 852.245,-630 926.004,-513.103 886.653,-452.871 852.245,-319 849.054,-306.585 818.738,-252.179 792.146,-205.805"/>
</g>
<!-- ActiveRecord::Base&#45;&gt;Request -->
<g id="edge11" class="edge"><title>ActiveRecord::Base&#45;&gt;Request</title>
<path fill="none" stroke="black" d="M405.232,-811.166C388.765,-804.35 368.726,-796.616 350.245,-791 276.261,-768.518 249.01,-789.361 180.245,-754 107.209,-716.443 76.551,-705.069 43.2446,-630 -12.8117,-503.655 -15.7713,-443.99 43.2446,-319 75.248,-251.22 145.924,-200.024 199.19,-169.159"/>
</g>
<!-- ActiveRecord::Base&#45;&gt;User -->
<g id="edge19" class="edge"><title>ActiveRecord::Base&#45;&gt;User</title>
<path fill="none" stroke="black" d="M448.348,-809.571C464.111,-776.636 500.346,-700.932 534.341,-629.905"/>
</g>
</g>
</svg>
