<?xml version="1.0" encoding="UTF-8" standalone="no"?>
<!DOCTYPE svg PUBLIC "-//W3C//DTD SVG 1.1//EN"
 "http://www.w3.org/Graphics/SVG/1.1/DTD/svg11.dtd">
<!-- Generated by graphviz version 2.38.0 (20140413.2041)
 -->
<!-- Title: models_diagram Pages: 1 -->
<svg width="842pt" height="634pt"
 viewBox="0.00 0.00 841.84 634.00" xmlns="http://www.w3.org/2000/svg" xmlns:xlink="http://www.w3.org/1999/xlink">
<g id="graph0" class="graph" transform="scale(1 1) rotate(0) translate(4 630)">
<title>models_diagram</title>
<polygon fill="white" stroke="none" points="-4,4 -4,-630 837.836,-630 837.836,4 -4,4"/>
<!-- _diagram_info -->
<g id="node1" class="node"><title>_diagram_info</title>
<text text-anchor="start" x="98.0557" y="-611.6" font-family="Times,serif" font-size="13.00">Models diagram</text>
<text text-anchor="start" x="98.0557" y="-598.6" font-family="Times,serif" font-size="13.00">Date: Jul 15 2014 &#45; 09:20</text>
<text text-anchor="start" x="98.0557" y="-585.6" font-family="Times,serif" font-size="13.00">Migration version: 20140714181147</text>
<text text-anchor="start" x="98.0557" y="-572.6" font-family="Times,serif" font-size="13.00">Generated by RailRoady 1.1.1</text>
<text text-anchor="start" x="98.0557" y="-559.6" font-family="Times,serif" font-size="13.00">http://railroady.prestonlee.com</text>
</g>
<!-- Book -->
<g id="node2" class="node"><title>Book</title>
<path fill="none" stroke="black" d="M12,-221.5C12,-221.5 121.011,-221.5 121.011,-221.5 127.011,-221.5 133.011,-227.5 133.011,-233.5 133.011,-233.5 133.011,-351.5 133.011,-351.5 133.011,-357.5 127.011,-363.5 121.011,-363.5 121.011,-363.5 12,-363.5 12,-363.5 6,-363.5 0,-357.5 0,-351.5 0,-351.5 0,-233.5 0,-233.5 0,-227.5 6,-221.5 12,-221.5"/>
<text text-anchor="middle" x="66.5054" y="-348.3" font-family="Times,serif" font-size="14.00">Book</text>
<polyline fill="none" stroke="black" points="0,-341.5 133.011,-341.5 "/>
<text text-anchor="start" x="8" y="-326.3" font-family="Times,serif" font-size="14.00">id :integer</text>
<text text-anchor="start" x="8" y="-312.3" font-family="Times,serif" font-size="14.00">group_id :integer</text>
<text text-anchor="start" x="8" y="-298.3" font-family="Times,serif" font-size="14.00">created_at :datetime</text>
<text text-anchor="start" x="8" y="-284.3" font-family="Times,serif" font-size="14.00">updated_at :datetime</text>
<text text-anchor="start" x="8" y="-270.3" font-family="Times,serif" font-size="14.00">title :string</text>
<text text-anchor="start" x="8" y="-256.3" font-family="Times,serif" font-size="14.00">isbn :string</text>
<text text-anchor="start" x="8" y="-242.3" font-family="Times,serif" font-size="14.00">summary :text</text>
<text text-anchor="start" x="8" y="-228.3" font-family="Times,serif" font-size="14.00">author :string</text>
</g>
<!-- Group -->
<g id="node3" class="node"><title>Group</title>
<path fill="none" stroke="black" d="M239,-443.5C239,-443.5 348.011,-443.5 348.011,-443.5 354.011,-443.5 360.011,-449.5 360.011,-455.5 360.011,-455.5 360.011,-503.5 360.011,-503.5 360.011,-509.5 354.011,-515.5 348.011,-515.5 348.011,-515.5 239,-515.5 239,-515.5 233,-515.5 227,-509.5 227,-503.5 227,-503.5 227,-455.5 227,-455.5 227,-449.5 233,-443.5 239,-443.5"/>
<text text-anchor="middle" x="293.505" y="-500.3" font-family="Times,serif" font-size="14.00">Group</text>
<polyline fill="none" stroke="black" points="227,-493.5 360.011,-493.5 "/>
<text text-anchor="start" x="235" y="-478.3" font-family="Times,serif" font-size="14.00">id :integer</text>
<text text-anchor="start" x="235" y="-464.3" font-family="Times,serif" font-size="14.00">created_at :datetime</text>
<text text-anchor="start" x="235" y="-450.3" font-family="Times,serif" font-size="14.00">updated_at :datetime</text>
</g>
<!-- Group&#45;&gt;Book -->
<g id="edge3" class="edge"><title>Group&#45;&gt;Book</title>
<path fill="none" stroke="#d145b5" d="M219.428,-452.684C192.964,-441.117 164.127,-425.599 141.505,-406 129.721,-395.791 119.003,-383.305 109.591,-370.413"/>
<ellipse fill="none" stroke="#d145b5" cx="223.143" cy="-454.271" rx="4.00002" ry="4.00002"/>
<ellipse fill="#d145b5" stroke="#d145b5" cx="107.104" cy="-366.906" rx="4.00002" ry="4.00002"/>
</g>
<!-- Note -->
<g id="node4" class="node"><title>Note</title>
<path fill="none" stroke="black" d="M661,-235.5C661,-235.5 770.011,-235.5 770.011,-235.5 776.011,-235.5 782.011,-241.5 782.011,-247.5 782.011,-247.5 782.011,-337.5 782.011,-337.5 782.011,-343.5 776.011,-349.5 770.011,-349.5 770.011,-349.5 661,-349.5 661,-349.5 655,-349.5 649,-343.5 649,-337.5 649,-337.5 649,-247.5 649,-247.5 649,-241.5 655,-235.5 661,-235.5"/>
<text text-anchor="middle" x="715.505" y="-334.3" font-family="Times,serif" font-size="14.00">Note</text>
<polyline fill="none" stroke="black" points="649,-327.5 782.011,-327.5 "/>
<text text-anchor="start" x="657" y="-312.3" font-family="Times,serif" font-size="14.00">id :integer</text>
<text text-anchor="start" x="657" y="-298.3" font-family="Times,serif" font-size="14.00">group_id :integer</text>
<text text-anchor="start" x="657" y="-284.3" font-family="Times,serif" font-size="14.00">pagenumber :string</text>
<text text-anchor="start" x="657" y="-270.3" font-family="Times,serif" font-size="14.00">body :text</text>
<text text-anchor="start" x="657" y="-256.3" font-family="Times,serif" font-size="14.00">created_at :datetime</text>
<text text-anchor="start" x="657" y="-242.3" font-family="Times,serif" font-size="14.00">updated_at :datetime</text>
</g>
<!-- Group&#45;&gt;Note -->
<g id="edge4" class="edge"><title>Group&#45;&gt;Note</title>
<path fill="none" stroke="#bd3519" d="M368.186,-463.259C469.318,-442.569 637.655,-407.927 640.505,-406 658.221,-394.026 672.825,-376.328 684.29,-358.497"/>
<ellipse fill="none" stroke="#bd3519" cx="364.041" cy="-464.107" rx="4.00001" ry="4.00001"/>
<polygon fill="#bd3519" stroke="#bd3519" points="684.426,-358.276 693.498,-352.115 687.046,-354.017 689.665,-349.758 689.665,-349.758 689.665,-349.758 687.046,-354.017 685.832,-347.4 684.426,-358.276 684.426,-358.276"/>
</g>
<!-- Request -->
<g id="node5" class="node"><title>Request</title>
<path fill="none" stroke="black" d="M390.61,-0.5C390.61,-0.5 500.4,-0.5 500.4,-0.5 506.4,-0.5 512.4,-6.5 512.4,-12.5 512.4,-12.5 512.4,-116.5 512.4,-116.5 512.4,-122.5 506.4,-128.5 500.4,-128.5 500.4,-128.5 390.61,-128.5 390.61,-128.5 384.61,-128.5 378.61,-122.5 378.61,-116.5 378.61,-116.5 378.61,-12.5 378.61,-12.5 378.61,-6.5 384.61,-0.5 390.61,-0.5"/>
<text text-anchor="middle" x="445.505" y="-113.3" font-family="Times,serif" font-size="14.00">Request</text>
<polyline fill="none" stroke="black" points="378.61,-106.5 512.4,-106.5 "/>
<text text-anchor="start" x="386.61" y="-91.3" font-family="Times,serif" font-size="14.00">id :integer</text>
<text text-anchor="start" x="386.61" y="-77.3" font-family="Times,serif" font-size="14.00">status :boolean</text>
<text text-anchor="start" x="386.61" y="-63.3" font-family="Times,serif" font-size="14.00">created_at :datetime</text>
<text text-anchor="start" x="386.61" y="-49.3" font-family="Times,serif" font-size="14.00">updated_at :datetime</text>
<text text-anchor="start" x="386.61" y="-35.3" font-family="Times,serif" font-size="14.00">requested_id :integer</text>
<text text-anchor="start" x="386.61" y="-21.3" font-family="Times,serif" font-size="14.00">requester_id :integer</text>
<text text-anchor="start" x="386.61" y="-7.3" font-family="Times,serif" font-size="14.00">group_id :integer</text>
</g>
<!-- Group&#45;&gt;Request -->
<g id="edge2" class="edge"><title>Group&#45;&gt;Request</title>
<path fill="none" stroke="#d824b1" d="M283.954,-435.431C272.781,-374.52 260.797,-261.454 303.505,-179 320.431,-146.323 340.71,-151.915 369.505,-129 370.338,-128.338 371.174,-127.67 372.014,-126.998"/>
<ellipse fill="none" stroke="#d824b1" cx="284.703" cy="-439.383" rx="4.00001" ry="4.00001"/>
<ellipse fill="#d824b1" stroke="#d824b1" cx="375.395" cy="-124.277" rx="4.00002" ry="4.00002"/>
</g>
<!-- User -->
<g id="node6" class="node"><title>User</title>
<path fill="none" stroke="black" d="M324.893,-179.5C324.893,-179.5 468.118,-179.5 468.118,-179.5 474.118,-179.5 480.118,-185.5 480.118,-191.5 480.118,-191.5 480.118,-393.5 480.118,-393.5 480.118,-399.5 474.118,-405.5 468.118,-405.5 468.118,-405.5 324.893,-405.5 324.893,-405.5 318.893,-405.5 312.893,-399.5 312.893,-393.5 312.893,-393.5 312.893,-191.5 312.893,-191.5 312.893,-185.5 318.893,-179.5 324.893,-179.5"/>
<text text-anchor="middle" x="396.505" y="-390.3" font-family="Times,serif" font-size="14.00">User</text>
<polyline fill="none" stroke="black" points="312.893,-383.5 480.118,-383.5 "/>
<text text-anchor="start" x="320.893" y="-368.3" font-family="Times,serif" font-size="14.00">id :integer</text>
<text text-anchor="start" x="320.893" y="-354.3" font-family="Times,serif" font-size="14.00">fname :string</text>
<text text-anchor="start" x="320.893" y="-340.3" font-family="Times,serif" font-size="14.00">lname :string</text>
<text text-anchor="start" x="320.893" y="-326.3" font-family="Times,serif" font-size="14.00">email :string</text>
<text text-anchor="start" x="320.893" y="-312.3" font-family="Times,serif" font-size="14.00">created_at :datetime</text>
<text text-anchor="start" x="320.893" y="-298.3" font-family="Times,serif" font-size="14.00">updated_at :datetime</text>
<text text-anchor="start" x="320.893" y="-284.3" font-family="Times,serif" font-size="14.00">provider :string</text>
<text text-anchor="start" x="320.893" y="-270.3" font-family="Times,serif" font-size="14.00">uid :string</text>
<text text-anchor="start" x="320.893" y="-256.3" font-family="Times,serif" font-size="14.00">name :string</text>
<text text-anchor="start" x="320.893" y="-242.3" font-family="Times,serif" font-size="14.00">oauth_token :string</text>
<text text-anchor="start" x="320.893" y="-228.3" font-family="Times,serif" font-size="14.00">oauth_expires_at :datetime</text>
<text text-anchor="start" x="320.893" y="-214.3" font-family="Times,serif" font-size="14.00">image :string</text>
<text text-anchor="start" x="320.893" y="-200.3" font-family="Times,serif" font-size="14.00">gender :string</text>
<text text-anchor="start" x="320.893" y="-186.3" font-family="Times,serif" font-size="14.00">location :string</text>
</g>
<!-- Group&#45;&gt;User -->
<g id="edge6" class="edge"><title>Group&#45;&gt;User</title>
<path fill="none" stroke="#091e4c" d="M318.097,-434.331C321.574,-428.085 325.279,-421.431 329.114,-414.542"/>
<polygon fill="#091e4c" stroke="#091e4c" points="317.986,-434.53 309.19,-441.078 315.554,-438.899 313.121,-443.267 313.121,-443.267 313.121,-443.267 315.554,-438.899 317.053,-445.456 317.986,-434.53 317.986,-434.53"/>
<polygon fill="#091e4c" stroke="#091e4c" points="329.17,-414.442 337.966,-407.894 331.602,-410.073 334.035,-405.705 334.035,-405.705 334.035,-405.705 331.602,-410.073 330.103,-403.516 329.17,-414.442 329.17,-414.442"/>
</g>
<!-- GroupsUser -->
<g id="node8" class="node"><title>GroupsUser</title>
<ellipse fill="none" stroke="black" cx="203.505" cy="-292.5" rx="52.6865" ry="18"/>
<text text-anchor="middle" x="203.505" y="-288.3" font-family="Times,serif" font-size="14.00">GroupsUser</text>
</g>
<!-- Group&#45;&gt;GroupsUser -->
<g id="edge5" class="edge"><title>Group&#45;&gt;GroupsUser</title>
<path fill="none" stroke="#c12499" d="M272.847,-436.035C255.333,-400.034 230.781,-349.567 216.078,-319.344"/>
<ellipse fill="none" stroke="#c12499" cx="274.615" cy="-439.671" rx="4.00002" ry="4.00002"/>
<polygon fill="#c12499" stroke="#c12499" points="216.047,-319.28 215.719,-308.319 213.86,-314.784 211.672,-310.287 211.672,-310.287 211.672,-310.287 213.86,-314.784 207.626,-312.256 216.047,-319.28 216.047,-319.28"/>
</g>
<!-- User&#45;&gt;Request -->
<g id="edge10" class="edge"><title>User&#45;&gt;Request</title>
<path fill="none" stroke="#6b3adb" d="M409.218,-171.401C410.786,-163.102 412.541,-154.902 414.505,-147 415.207,-144.177 415.979,-141.318 416.805,-138.445"/>
<ellipse fill="none" stroke="#6b3adb" cx="408.485" cy="-175.446" rx="4.00001" ry="4.00001"/>
<polygon fill="#6b3adb" stroke="#6b3adb" points="416.876,-138.214 424.108,-129.971 418.34,-133.433 419.805,-128.653 419.805,-128.653 419.805,-128.653 418.34,-133.433 415.503,-127.334 416.876,-138.214 416.876,-138.214"/>
</g>
<!-- User&#45;&gt;Request -->
<g id="edge12" class="edge"><title>User&#45;&gt;Request</title>
<path fill="none" stroke="#a98a7b" d="M422.56,-171.329C424.972,-160.206 427.363,-149.176 429.64,-138.673"/>
<ellipse fill="none" stroke="#a98a7b" cx="421.638" cy="-175.584" rx="4.00001" ry="4.00001"/>
<polygon fill="#a98a7b" stroke="#a98a7b" points="429.667,-138.551 436.184,-129.732 430.726,-133.665 431.786,-128.778 431.786,-128.778 431.786,-128.778 430.726,-133.665 427.388,-127.825 429.667,-138.551 429.667,-138.551"/>
<text text-anchor="middle" x="473.15" y="-149.8" font-family="Times,serif" font-size="14.00">reverse_requests</text>
</g>
<!-- User&#45;&gt;User -->
<g id="edge11" class="edge"><title>User&#45;&gt;User</title>
<path fill="none" stroke="#dba079" d="M489.896,-300.791C495.051,-298.774 498.118,-296.011 498.118,-292.5 498.118,-288.989 495.051,-286.226 489.896,-284.209"/>
<polygon fill="#dba079" stroke="#dba079" points="489.887,-300.794 479.07,-298.994 485.053,-302.07 480.218,-303.345 480.218,-303.345 480.218,-303.345 485.053,-302.07 481.367,-307.697 489.887,-300.794 489.887,-300.794"/>
<polygon fill="#dba079" stroke="#dba079" points="489.887,-284.206 481.367,-277.303 485.053,-282.93 480.218,-281.655 480.218,-281.655 480.218,-281.655 485.053,-282.93 479.07,-286.006 489.887,-284.206 489.887,-284.206"/>
<text text-anchor="middle" x="527.663" y="-288.3" font-family="Times,serif" font-size="14.00">requesteds</text>
</g>
<!-- User&#45;&gt;User -->
<g id="edge13" class="edge"><title>User&#45;&gt;User</title>
<path fill="none" stroke="#123315" d="M490.701,-317.247C526.364,-317.422 557.208,-309.173 557.208,-292.5 557.208,-275.827 526.364,-267.578 490.701,-267.753"/>
<polygon fill="#123315" stroke="#123315" points="490.533,-317.243 480.657,-312.476 485.535,-317.109 480.536,-316.975 480.536,-316.975 480.536,-316.975 485.535,-317.109 480.416,-321.473 490.533,-317.243 490.533,-317.243"/>
<polygon fill="#123315" stroke="#123315" points="490.533,-267.757 480.416,-263.527 485.535,-267.891 480.536,-268.025 480.536,-268.025 480.536,-268.025 485.535,-267.891 480.657,-272.524 490.533,-267.757 490.533,-267.757"/>
<text text-anchor="middle" x="585.583" y="-288.3" font-family="Times,serif" font-size="14.00">requesters</text>
</g>
<!-- UsersGroup -->
<g id="node9" class="node"><title>UsersGroup</title>
<ellipse fill="none" stroke="black" cx="307.505" cy="-64.5" rx="52.6865" ry="18"/>
<text text-anchor="middle" x="307.505" y="-60.3" font-family="Times,serif" font-size="14.00">UsersGroup</text>
</g>
<!-- User&#45;&gt;UsersGroup -->
<g id="edge14" class="edge"><title>User&#45;&gt;UsersGroup</title>
<path fill="none" stroke="#ee3a14" d="M349.437,-171.978C337.585,-141.882 325.977,-112.404 317.99,-92.1239"/>
<ellipse fill="none" stroke="#ee3a14" cx="350.931" cy="-175.771" rx="4.00001" ry="4.00001"/>
<polygon fill="#ee3a14" stroke="#ee3a14" points="317.933,-91.9782 318.455,-81.0248 316.101,-87.3259 314.268,-82.6737 314.268,-82.6737 314.268,-82.6737 316.101,-87.3259 310.081,-84.3226 317.933,-91.9782 317.933,-91.9782"/>
</g>
<!-- ActiveRecord::Base -->
<g id="node7" class="node"><title>ActiveRecord::Base</title>
<ellipse fill="none" stroke="black" cx="396.505" cy="-589.5" rx="81.1422" ry="18"/>
<text text-anchor="middle" x="396.505" y="-585.3" font-family="Times,serif" font-size="14.00">ActiveRecord::Base</text>
</g>
<!-- ActiveRecord::Base&#45;&gt;Book -->
<g id="edge1" class="edge"><title>ActiveRecord::Base&#45;&gt;Book</title>
<path fill="none" stroke="black" d="M357.972,-573.542C307.119,-553.707 223.311,-520.652 217.505,-516 166.41,-475.059 125.979,-412.196 99.8627,-363.719"/>
</g>
<!-- ActiveRecord::Base&#45;&gt;Group -->
<g id="edge7" class="edge"><title>ActiveRecord::Base&#45;&gt;Group</title>
<path fill="none" stroke="black" d="M380.412,-571.625C366.154,-556.675 344.878,-534.366 326.947,-515.565"/>
</g>
<!-- ActiveRecord::Base&#45;&gt;Note -->
<g id="edge8" class="edge"><title>ActiveRecord::Base&#45;&gt;Note</title>
<path fill="none" stroke="black" d="M423.768,-572.457C471.522,-543.467 571.75,-478.586 640.505,-406 656.487,-389.128 671.324,-368.482 683.512,-349.502"/>
</g>
<!-- ActiveRecord::Base&#45;&gt;Request -->
<g id="edge9" class="edge"><title>ActiveRecord::Base&#45;&gt;Request</title>
<path fill="none" stroke="black" d="M465.208,-579.683C558.252,-563.61 720.806,-519.934 791.505,-406 844.701,-320.275 850.691,-260.704 791.505,-179 727.808,-91.0685 593.844,-70.0364 512.566,-65.7166"/>
</g>
<!-- ActiveRecord::Base&#45;&gt;User -->
<g id="edge15" class="edge"><title>ActiveRecord::Base&#45;&gt;User</title>
<path fill="none" stroke="black" d="M396.505,-571.364C396.505,-539.331 396.505,-467.964 396.505,-405.581"/>
</g>
</g>
</svg>
