<?xml version="1.0" encoding="UTF-8" standalone="no"?>
<!DOCTYPE svg PUBLIC "-//W3C//DTD SVG 1.1//EN"
 "http://www.w3.org/Graphics/SVG/1.1/DTD/svg11.dtd">
<!-- Generated by graphviz version 2.38.0 (20140413.2041)
 -->
<!-- Title: models_diagram Pages: 1 -->
<svg width="657pt" height="313pt"
 viewBox="0.00 0.00 657.40 313.00" xmlns="http://www.w3.org/2000/svg" xmlns:xlink="http://www.w3.org/1999/xlink">
<g id="graph0" class="graph" transform="scale(1 1) rotate(0) translate(4 309)">
<title>models_diagram</title>
<polygon fill="white" stroke="none" points="-4,4 -4,-309 653.398,-309 653.398,4 -4,4"/>
<!-- _diagram_info -->
<g id="node1" class="node"><title>_diagram_info</title>
<text text-anchor="start" x="8" y="-290.6" font-family="Times,serif" font-size="13.00">Models diagram</text>
<text text-anchor="start" x="8" y="-277.6" font-family="Times,serif" font-size="13.00">Date: Jul 24 2014 &#45; 21:51</text>
<text text-anchor="start" x="8" y="-264.6" font-family="Times,serif" font-size="13.00">Migration version: 20140724174523</text>
<text text-anchor="start" x="8" y="-251.6" font-family="Times,serif" font-size="13.00">Generated by RailRoady 1.1.1</text>
<text text-anchor="start" x="8" y="-238.6" font-family="Times,serif" font-size="13.00">http://railroady.prestonlee.com</text>
</g>
<!-- Book -->
<g id="node2" class="node"><title>Book</title>
<ellipse fill="none" stroke="black" cx="70.6877" cy="-104" rx="29.0429" ry="18"/>
<text text-anchor="middle" x="70.6877" y="-99.8" font-family="Times,serif" font-size="14.00">Book</text>
</g>
<!-- Genre -->
<g id="node3" class="node"><title>Genre</title>
<ellipse fill="none" stroke="black" cx="617.688" cy="-18" rx="31.9219" ry="18"/>
<text text-anchor="middle" x="617.688" y="-13.8" font-family="Times,serif" font-size="14.00">Genre</text>
</g>
<!-- Group -->
<g id="node4" class="node"><title>Group</title>
<ellipse fill="none" stroke="black" cx="223.688" cy="-177" rx="32.9081" ry="18"/>
<text text-anchor="middle" x="223.688" y="-172.8" font-family="Times,serif" font-size="14.00">Group</text>
</g>
<!-- Group&#45;&gt;Book -->
<g id="edge4" class="edge"><title>Group&#45;&gt;Book</title>
<path fill="none" stroke="#2d2dc9" d="M185.676,-167.8C163.776,-162.139 136.212,-153.379 113.688,-141 106.009,-136.78 98.4142,-131.077 91.7941,-125.456"/>
<ellipse fill="none" stroke="#2d2dc9" cx="189.588" cy="-168.776" rx="4.00001" ry="4.00001"/>
<ellipse fill="#2d2dc9" stroke="#2d2dc9" cx="88.5287" cy="-122.57" rx="4.00002" ry="4.00002"/>
</g>
<!-- Note -->
<g id="node5" class="node"><title>Note</title>
<ellipse fill="none" stroke="black" cx="306.688" cy="-104" rx="27.0958" ry="18"/>
<text text-anchor="middle" x="306.688" y="-99.8" font-family="Times,serif" font-size="14.00">Note</text>
</g>
<!-- Group&#45;&gt;Note -->
<g id="edge5" class="edge"><title>Group&#45;&gt;Note</title>
<path fill="none" stroke="#510e1b" d="M244.954,-155.161C250.322,-150.096 256.139,-144.767 261.688,-140 267.917,-134.649 274.835,-129.09 281.341,-124.02"/>
<ellipse fill="none" stroke="#510e1b" cx="241.796" cy="-158.176" rx="4.00002" ry="4.00002"/>
<polygon fill="#510e1b" stroke="#510e1b" points="281.354,-124.011 292.024,-121.479 285.317,-120.961 289.279,-117.912 289.279,-117.912 289.279,-117.912 285.317,-120.961 286.535,-114.346 281.354,-124.011 281.354,-124.011"/>
</g>
<!-- Request -->
<g id="node7" class="node"><title>Request</title>
<ellipse fill="none" stroke="black" cx="154.688" cy="-18" rx="38.6955" ry="18"/>
<text text-anchor="middle" x="154.688" y="-13.8" font-family="Times,serif" font-size="14.00">Request</text>
</g>
<!-- Group&#45;&gt;Request -->
<g id="edge3" class="edge"><title>Group&#45;&gt;Request</title>
<path fill="none" stroke="#db9c55" d="M190.493,-161.877C174.134,-153.009 155.965,-139.838 146.688,-122 133.992,-97.5902 139.384,-65.4498 145.745,-43.6086"/>
<ellipse fill="none" stroke="#db9c55" cx="194.285" cy="-163.823" rx="4.00002" ry="4.00002"/>
<ellipse fill="#db9c55" stroke="#db9c55" cx="147.001" cy="-39.597" rx="4.00001" ry="4.00001"/>
</g>
<!-- User -->
<g id="node8" class="node"><title>User</title>
<ellipse fill="none" stroke="black" cx="378.688" cy="-104" rx="27" ry="18"/>
<text text-anchor="middle" x="378.688" y="-99.8" font-family="Times,serif" font-size="14.00">User</text>
</g>
<!-- Group&#45;&gt;User -->
<g id="edge7" class="edge"><title>Group&#45;&gt;User</title>
<path fill="none" stroke="#d5ed39" d="M257.673,-160.743C281.509,-150.002 314.098,-135.236 342.688,-122 344.475,-121.172 346.311,-120.318 348.162,-119.454"/>
<polygon fill="#d5ed39" stroke="#d5ed39" points="257.471,-160.834 246.505,-160.836 252.911,-162.887 248.352,-164.939 248.352,-164.939 248.352,-164.939 252.911,-162.887 250.199,-169.043 257.471,-160.834 257.471,-160.834"/>
<polygon fill="#d5ed39" stroke="#d5ed39" points="348.34,-119.371 359.305,-119.195 352.866,-117.246 357.392,-115.122 357.392,-115.122 357.392,-115.122 352.866,-117.246 355.48,-111.048 348.34,-119.371 348.34,-119.371"/>
</g>
<!-- GroupsUser -->
<g id="node10" class="node"><title>GroupsUser</title>
<ellipse fill="none" stroke="black" cx="208.688" cy="-104" rx="52.6865" ry="18"/>
<text text-anchor="middle" x="208.688" y="-99.8" font-family="Times,serif" font-size="14.00">GroupsUser</text>
</g>
<!-- Group&#45;&gt;GroupsUser -->
<g id="edge6" class="edge"><title>Group&#45;&gt;GroupsUser</title>
<path fill="none" stroke="#abb863" d="M218.362,-150.791C217.071,-144.683 215.687,-138.13 214.38,-131.946"/>
<ellipse fill="none" stroke="#abb863" cx="219.23" cy="-154.899" rx="4.00001" ry="4.00001"/>
<polygon fill="#abb863" stroke="#abb863" points="214.353,-131.813 216.688,-121.099 213.319,-126.921 212.285,-122.029 212.285,-122.029 212.285,-122.029 213.319,-126.921 207.883,-122.959 214.353,-131.813 214.353,-131.813"/>
</g>
<!-- Notification -->
<g id="node6" class="node"><title>Notification</title>
<ellipse fill="none" stroke="black" cx="510.688" cy="-18" rx="52.2106" ry="18"/>
<text text-anchor="middle" x="510.688" y="-13.8" font-family="Times,serif" font-size="14.00">Notification</text>
</g>
<!-- User&#45;&gt;Genre -->
<g id="edge17" class="edge"><title>User&#45;&gt;Genre</title>
<path fill="none" stroke="#fd4709" d="M409.922,-92.3703C448.143,-79.3134 514.798,-56.3846 571.688,-36 575.795,-34.5281 580.102,-32.9643 584.363,-31.4042"/>
<ellipse fill="none" stroke="#fd4709" cx="405.997" cy="-93.71" rx="4.00001" ry="4.00001"/>
<ellipse fill="#fd4709" stroke="#fd4709" cx="588.178" cy="-30.0016" rx="4.00001" ry="4.00001"/>
</g>
<!-- User&#45;&gt;Notification -->
<g id="edge18" class="edge"><title>User&#45;&gt;Notification</title>
<path fill="none" stroke="#8f6a65" d="M404.63,-86.4914C425.729,-73.0644 455.614,-54.0468 478.286,-39.6193"/>
<ellipse fill="none" stroke="#8f6a65" cx="400.975" cy="-88.8173" rx="4.00002" ry="4.00002"/>
<polygon fill="#8f6a65" stroke="#8f6a65" points="478.459,-39.5091 489.312,-37.9368 482.677,-36.8247 486.896,-34.1403 486.896,-34.1403 486.896,-34.1403 482.677,-36.8247 484.48,-30.3439 478.459,-39.5091 478.459,-39.5091"/>
</g>
<!-- User&#45;&gt;Request -->
<g id="edge12" class="edge"><title>User&#45;&gt;Request</title>
<path fill="none" stroke="#44009a" d="M351.612,-87.8813C332.053,-77.3892 304.773,-63.6232 279.688,-54 253.36,-43.9003 222.907,-35.3121 198.651,-29.1707"/>
<ellipse fill="none" stroke="#44009a" cx="355.192" cy="-89.8212" rx="4.00002" ry="4.00002"/>
<polygon fill="#44009a" stroke="#44009a" points="198.37,-29.101 189.749,-22.3237 193.517,-27.8961 188.664,-26.6911 188.664,-26.6911 188.664,-26.6911 193.517,-27.8961 187.58,-31.0585 198.37,-29.101 198.37,-29.101"/>
</g>
<!-- User&#45;&gt;Request -->
<g id="edge14" class="edge"><title>User&#45;&gt;Request</title>
<path fill="none" stroke="#21b48f" d="M350.53,-88.6497C347.92,-87.6421 345.281,-86.7359 342.688,-86 273.723,-66.4297 242.205,-107.525 182.398,-68 174.135,-62.5393 168.071,-53.723 163.761,-45.0637"/>
<ellipse fill="none" stroke="#21b48f" cx="354.518" cy="-90.3437" rx="4.00001" ry="4.00001"/>
<polygon fill="#21b48f" stroke="#21b48f" points="163.758,-45.0571 163.874,-34.0918 161.754,-40.4762 159.751,-35.8952 159.751,-35.8952 159.751,-35.8952 161.754,-40.4762 155.628,-37.6986 163.758,-45.0571 163.758,-45.0571"/>
<text text-anchor="middle" x="228.333" y="-56.8" font-family="Times,serif" font-size="14.00">reverse_requests</text>
</g>
<!-- User&#45;&gt;User -->
<g id="edge13" class="edge"><title>User&#45;&gt;User</title>
<path fill="none" stroke="#229c5b" d="M415.631,-106.972C420.477,-106.463 423.688,-105.472 423.688,-104 423.688,-102.528 420.477,-101.537 415.631,-101.028"/>
<polygon fill="#229c5b" stroke="#229c5b" points="415.475,-106.978 405.307,-102.871 410.479,-107.173 405.483,-107.368 405.483,-107.368 405.483,-107.368 410.479,-107.173 405.658,-111.864 415.475,-106.978 415.475,-106.978"/>
<polygon fill="#229c5b" stroke="#229c5b" points="415.475,-101.022 405.658,-96.1358 410.479,-100.827 405.483,-100.632 405.483,-100.632 405.483,-100.632 410.479,-100.827 405.307,-105.129 415.475,-101.022 415.475,-101.022"/>
<text text-anchor="middle" x="453.233" y="-99.8" font-family="Times,serif" font-size="14.00">requesteds</text>
</g>
<!-- User&#45;&gt;User -->
<g id="edge15" class="edge"><title>User&#45;&gt;User</title>
<path fill="none" stroke="#189af2" d="M414.744,-109.983C445.638,-112.011 482.778,-110.017 482.778,-104 482.778,-97.9829 445.638,-95.9886 414.744,-98.0172"/>
<polygon fill="#189af2" stroke="#189af2" points="414.535,-109.966 404.94,-104.656 409.552,-109.553 404.569,-109.141 404.569,-109.141 404.569,-109.141 409.552,-109.553 404.198,-113.625 414.535,-109.966 414.535,-109.966"/>
<polygon fill="#189af2" stroke="#189af2" points="414.535,-98.0344 404.198,-94.3747 409.552,-98.4469 404.569,-98.8593 404.569,-98.8593 404.569,-98.8593 409.552,-98.4469 404.94,-103.344 414.535,-98.0344 414.535,-98.0344"/>
<text text-anchor="middle" x="511.154" y="-99.8" font-family="Times,serif" font-size="14.00">requesters</text>
</g>
<!-- UsersGroup -->
<g id="node11" class="node"><title>UsersGroup</title>
<ellipse fill="none" stroke="black" cx="378.688" cy="-18" rx="52.6865" ry="18"/>
<text text-anchor="middle" x="378.688" y="-13.8" font-family="Times,serif" font-size="14.00">UsersGroup</text>
</g>
<!-- User&#45;&gt;UsersGroup -->
<g id="edge16" class="edge"><title>User&#45;&gt;UsersGroup</title>
<path fill="none" stroke="#33abd9" d="M378.688,-77.2567C378.688,-67.4415 378.688,-56.2256 378.688,-46.2729"/>
<ellipse fill="none" stroke="#33abd9" cx="378.688" cy="-81.5951" rx="4" ry="4"/>
<polygon fill="#33abd9" stroke="#33abd9" points="378.688,-46.0952 383.188,-36.0951 378.688,-41.0952 378.688,-36.0952 378.688,-36.0952 378.688,-36.0952 378.688,-41.0952 374.188,-36.0952 378.688,-46.0952 378.688,-46.0952"/>
</g>
<!-- ActiveRecord::Base -->
<g id="node9" class="node"><title>ActiveRecord::Base</title>
<ellipse fill="none" stroke="black" cx="306.688" cy="-268.5" rx="81.1422" ry="18"/>
<text text-anchor="middle" x="306.688" y="-264.3" font-family="Times,serif" font-size="14.00">ActiveRecord::Base</text>
</g>
<!-- ActiveRecord::Base&#45;&gt;Book -->
<g id="edge1" class="edge"><title>ActiveRecord::Base&#45;&gt;Book</title>
<path fill="none" stroke="black" d="M276.317,-251.588C235.741,-229.597 162.59,-187.342 107.688,-141 99.8801,-134.41 91.689,-126.55 85.0041,-119.858"/>
</g>
<!-- ActiveRecord::Base&#45;&gt;Genre -->
<g id="edge2" class="edge"><title>ActiveRecord::Base&#45;&gt;Genre</title>
<path fill="none" stroke="black" d="M372.549,-257.932C420.028,-248.384 483.599,-229.894 529.688,-195 583.48,-154.274 606.649,-71.6337 614.429,-35.9913"/>
</g>
<!-- ActiveRecord::Base&#45;&gt;Group -->
<g id="edge8" class="edge"><title>ActiveRecord::Base&#45;&gt;Group</title>
<path fill="none" stroke="black" d="M291.076,-250.666C275.767,-234.158 252.633,-209.212 237.845,-193.266"/>
</g>
<!-- ActiveRecord::Base&#45;&gt;Note -->
<g id="edge9" class="edge"><title>ActiveRecord::Base&#45;&gt;Note</title>
<path fill="none" stroke="black" d="M306.688,-250.417C306.688,-219.289 306.688,-153.663 306.688,-122.343"/>
</g>
<!-- ActiveRecord::Base&#45;&gt;Notification -->
<g id="edge10" class="edge"><title>ActiveRecord::Base&#45;&gt;Notification</title>
<path fill="none" stroke="black" d="M360.018,-254.812C422.014,-236.889 521.469,-197.56 565.688,-122 583.401,-91.7321 552.056,-55.3351 529.869,-34.9156"/>
</g>
<!-- ActiveRecord::Base&#45;&gt;Request -->
<g id="edge11" class="edge"><title>ActiveRecord::Base&#45;&gt;Request</title>
<path fill="none" stroke="black" d="M268.55,-252.45C217.671,-232.327 133.187,-198.735 126.688,-195 80.8254,-168.643 55.9453,-169.509 32.6877,-122 25.6528,-107.63 24.54,-99.7701 32.6877,-86 51.6994,-53.8693 92.1996,-36.1178 121.326,-27.0925"/>
</g>
<!-- ActiveRecord::Base&#45;&gt;User -->
<g id="edge19" class="edge"><title>ActiveRecord::Base&#45;&gt;User</title>
<path fill="none" stroke="black" d="M314.257,-250.417C328.193,-218.963 357.737,-152.284 371.434,-121.371"/>
</g>
</g>
</svg>
