<?xml version="1.0" encoding="UTF-8" standalone="no"?>
<!DOCTYPE svg PUBLIC "-//W3C//DTD SVG 1.1//EN"
 "http://www.w3.org/Graphics/SVG/1.1/DTD/svg11.dtd">
<!-- Generated by graphviz version 2.38.0 (20140413.2041)
 -->
<!-- Title: models_diagram Pages: 1 -->
<svg width="920pt" height="872pt"
 viewBox="0.00 0.00 919.81 872.00" xmlns="http://www.w3.org/2000/svg" xmlns:xlink="http://www.w3.org/1999/xlink">
<g id="graph0" class="graph" transform="scale(1 1) rotate(0) translate(4 868)">
<title>models_diagram</title>
<polygon fill="white" stroke="none" points="-4,4 -4,-868 915.808,-868 915.808,4 -4,4"/>
<!-- _diagram_info -->
<g id="node1" class="node"><title>_diagram_info</title>
<text text-anchor="start" x="310.111" y="-849.6" font-family="Times,serif" font-size="13.00">Models diagram</text>
<text text-anchor="start" x="310.111" y="-836.6" font-family="Times,serif" font-size="13.00">Date: Jul 23 2014 &#45; 09:47</text>
<text text-anchor="start" x="310.111" y="-823.6" font-family="Times,serif" font-size="13.00">Migration version: 20140722193943</text>
<text text-anchor="start" x="310.111" y="-810.6" font-family="Times,serif" font-size="13.00">Generated by RailRoady 1.1.1</text>
<text text-anchor="start" x="310.111" y="-797.6" font-family="Times,serif" font-size="13.00">http://railroady.prestonlee.com</text>
</g>
<!-- Book -->
<g id="node2" class="node"><title>Book</title>
<path fill="none" stroke="black" d="M12,-354.5C12,-354.5 129.597,-354.5 129.597,-354.5 135.597,-354.5 141.597,-360.5 141.597,-366.5 141.597,-366.5 141.597,-582.5 141.597,-582.5 141.597,-588.5 135.597,-594.5 129.597,-594.5 129.597,-594.5 12,-594.5 12,-594.5 6,-594.5 0,-588.5 0,-582.5 0,-582.5 0,-366.5 0,-366.5 0,-360.5 6,-354.5 12,-354.5"/>
<text text-anchor="middle" x="70.7983" y="-579.3" font-family="Times,serif" font-size="14.00">Book</text>
<polyline fill="none" stroke="black" points="0,-572.5 141.597,-572.5 "/>
<text text-anchor="start" x="8" y="-557.3" font-family="Times,serif" font-size="14.00">id :integer</text>
<text text-anchor="start" x="8" y="-543.3" font-family="Times,serif" font-size="14.00">group_id :integer</text>
<text text-anchor="start" x="8" y="-529.3" font-family="Times,serif" font-size="14.00">created_at :datetime</text>
<text text-anchor="start" x="8" y="-515.3" font-family="Times,serif" font-size="14.00">updated_at :datetime</text>
<text text-anchor="start" x="8" y="-501.3" font-family="Times,serif" font-size="14.00">title :string</text>
<text text-anchor="start" x="8" y="-487.3" font-family="Times,serif" font-size="14.00">isbn :string</text>
<text text-anchor="start" x="8" y="-473.3" font-family="Times,serif" font-size="14.00">summary :text</text>
<text text-anchor="start" x="8" y="-459.3" font-family="Times,serif" font-size="14.00">author :string</text>
<text text-anchor="start" x="8" y="-445.3" font-family="Times,serif" font-size="14.00">publisher :string</text>
<text text-anchor="start" x="8" y="-431.3" font-family="Times,serif" font-size="14.00">pagecount :integer</text>
<text text-anchor="start" x="8" y="-417.3" font-family="Times,serif" font-size="14.00">imagelinklarge :string</text>
<text text-anchor="start" x="8" y="-403.3" font-family="Times,serif" font-size="14.00">imagelinksmall :string</text>
<text text-anchor="start" x="8" y="-389.3" font-family="Times,serif" font-size="14.00">datepublished :string</text>
<text text-anchor="start" x="8" y="-375.3" font-family="Times,serif" font-size="14.00">buylink :string</text>
<text text-anchor="start" x="8" y="-361.3" font-family="Times,serif" font-size="14.00">previewlink :string</text>
</g>
<!-- Genre -->
<g id="node3" class="node"><title>Genre</title>
<path fill="none" stroke="black" d="M659.293,-0.5C659.293,-0.5 768.304,-0.5 768.304,-0.5 774.304,-0.5 780.304,-6.5 780.304,-12.5 780.304,-12.5 780.304,-256.5 780.304,-256.5 780.304,-262.5 774.304,-268.5 768.304,-268.5 768.304,-268.5 659.293,-268.5 659.293,-268.5 653.293,-268.5 647.293,-262.5 647.293,-256.5 647.293,-256.5 647.293,-12.5 647.293,-12.5 647.293,-6.5 653.293,-0.5 659.293,-0.5"/>
<text text-anchor="middle" x="713.798" y="-253.3" font-family="Times,serif" font-size="14.00">Genre</text>
<polyline fill="none" stroke="black" points="647.293,-246.5 780.304,-246.5 "/>
<text text-anchor="start" x="655.293" y="-231.3" font-family="Times,serif" font-size="14.00">id :integer</text>
<text text-anchor="start" x="655.293" y="-217.3" font-family="Times,serif" font-size="14.00">classic :integer</text>
<text text-anchor="start" x="655.293" y="-203.3" font-family="Times,serif" font-size="14.00">comedy :integer</text>
<text text-anchor="start" x="655.293" y="-189.3" font-family="Times,serif" font-size="14.00">comic :integer</text>
<text text-anchor="start" x="655.293" y="-175.3" font-family="Times,serif" font-size="14.00">educational :integer</text>
<text text-anchor="start" x="655.293" y="-161.3" font-family="Times,serif" font-size="14.00">historical :integer</text>
<text text-anchor="start" x="655.293" y="-147.3" font-family="Times,serif" font-size="14.00">memoir :integer</text>
<text text-anchor="start" x="655.293" y="-133.3" font-family="Times,serif" font-size="14.00">mystery :integer</text>
<text text-anchor="start" x="655.293" y="-119.3" font-family="Times,serif" font-size="14.00">nonfiction :integer</text>
<text text-anchor="start" x="655.293" y="-105.3" font-family="Times,serif" font-size="14.00">poetry :integer</text>
<text text-anchor="start" x="655.293" y="-91.3" font-family="Times,serif" font-size="14.00">pulp :integer</text>
<text text-anchor="start" x="655.293" y="-77.3" font-family="Times,serif" font-size="14.00">romance :integer</text>
<text text-anchor="start" x="655.293" y="-63.3" font-family="Times,serif" font-size="14.00">scifi :integer</text>
<text text-anchor="start" x="655.293" y="-49.3" font-family="Times,serif" font-size="14.00">shortstory :integer</text>
<text text-anchor="start" x="655.293" y="-35.3" font-family="Times,serif" font-size="14.00">created_at :datetime</text>
<text text-anchor="start" x="655.293" y="-21.3" font-family="Times,serif" font-size="14.00">updated_at :datetime</text>
<text text-anchor="start" x="655.293" y="-7.3" font-family="Times,serif" font-size="14.00">user_id :integer</text>
</g>
<!-- Group -->
<g id="node4" class="node"><title>Group</title>
<path fill="none" stroke="black" d="M235.293,-667.5C235.293,-667.5 344.304,-667.5 344.304,-667.5 350.304,-667.5 356.304,-673.5 356.304,-679.5 356.304,-679.5 356.304,-741.5 356.304,-741.5 356.304,-747.5 350.304,-753.5 344.304,-753.5 344.304,-753.5 235.293,-753.5 235.293,-753.5 229.293,-753.5 223.293,-747.5 223.293,-741.5 223.293,-741.5 223.293,-679.5 223.293,-679.5 223.293,-673.5 229.293,-667.5 235.293,-667.5"/>
<text text-anchor="middle" x="289.798" y="-738.3" font-family="Times,serif" font-size="14.00">Group</text>
<polyline fill="none" stroke="black" points="223.293,-731.5 356.304,-731.5 "/>
<text text-anchor="start" x="231.293" y="-716.3" font-family="Times,serif" font-size="14.00">id :integer</text>
<text text-anchor="start" x="231.293" y="-702.3" font-family="Times,serif" font-size="14.00">created_at :datetime</text>
<text text-anchor="start" x="231.293" y="-688.3" font-family="Times,serif" font-size="14.00">updated_at :datetime</text>
<text text-anchor="start" x="231.293" y="-674.3" font-family="Times,serif" font-size="14.00">status :boolean</text>
</g>
<!-- Group&#45;&gt;Book -->
<g id="edge4" class="edge"><title>Group&#45;&gt;Book</title>
<path fill="none" stroke="#1cc3d3" d="M215.514,-686.717C194.349,-677.547 172.524,-665.207 155.798,-649 141.888,-635.52 129.927,-619.293 119.746,-602.243"/>
<ellipse fill="none" stroke="#1cc3d3" cx="219.273" cy="-688.288" rx="4.00002" ry="4.00002"/>
<ellipse fill="#1cc3d3" stroke="#1cc3d3" cx="117.494" cy="-598.354" rx="4.00002" ry="4.00002"/>
</g>
<!-- Note -->
<g id="node5" class="node"><title>Note</title>
<path fill="none" stroke="black" d="M669.293,-410.5C669.293,-410.5 778.304,-410.5 778.304,-410.5 784.304,-410.5 790.304,-416.5 790.304,-422.5 790.304,-422.5 790.304,-526.5 790.304,-526.5 790.304,-532.5 784.304,-538.5 778.304,-538.5 778.304,-538.5 669.293,-538.5 669.293,-538.5 663.293,-538.5 657.293,-532.5 657.293,-526.5 657.293,-526.5 657.293,-422.5 657.293,-422.5 657.293,-416.5 663.293,-410.5 669.293,-410.5"/>
<text text-anchor="middle" x="723.798" y="-523.3" font-family="Times,serif" font-size="14.00">Note</text>
<polyline fill="none" stroke="black" points="657.293,-516.5 790.304,-516.5 "/>
<text text-anchor="start" x="665.293" y="-501.3" font-family="Times,serif" font-size="14.00">id :integer</text>
<text text-anchor="start" x="665.293" y="-487.3" font-family="Times,serif" font-size="14.00">group_id :integer</text>
<text text-anchor="start" x="665.293" y="-473.3" font-family="Times,serif" font-size="14.00">pagenumber :integer</text>
<text text-anchor="start" x="665.293" y="-459.3" font-family="Times,serif" font-size="14.00">body :text</text>
<text text-anchor="start" x="665.293" y="-445.3" font-family="Times,serif" font-size="14.00">created_at :datetime</text>
<text text-anchor="start" x="665.293" y="-431.3" font-family="Times,serif" font-size="14.00">updated_at :datetime</text>
<text text-anchor="start" x="665.293" y="-417.3" font-family="Times,serif" font-size="14.00">user_id :integer</text>
</g>
<!-- Group&#45;&gt;Note -->
<g id="edge5" class="edge"><title>Group&#45;&gt;Note</title>
<path fill="none" stroke="#a68fbd" d="M364.829,-700.646C456.701,-688.504 605.455,-664.226 648.798,-630 674.77,-609.492 692.319,-577.725 703.867,-548.318"/>
<ellipse fill="none" stroke="#a68fbd" cx="360.637" cy="-701.194" rx="4.00001" ry="4.00001"/>
<polygon fill="#a68fbd" stroke="#a68fbd" points="703.898,-548.234 711.622,-540.45 705.653,-543.552 707.408,-538.87 707.408,-538.87 707.408,-538.87 705.653,-543.552 703.195,-537.291 703.898,-548.234 703.898,-548.234"/>
</g>
<!-- Request -->
<g id="node6" class="node"><title>Request</title>
<path fill="none" stroke="black" d="M241.903,-70.5C241.903,-70.5 351.693,-70.5 351.693,-70.5 357.693,-70.5 363.693,-76.5 363.693,-82.5 363.693,-82.5 363.693,-186.5 363.693,-186.5 363.693,-192.5 357.693,-198.5 351.693,-198.5 351.693,-198.5 241.903,-198.5 241.903,-198.5 235.903,-198.5 229.903,-192.5 229.903,-186.5 229.903,-186.5 229.903,-82.5 229.903,-82.5 229.903,-76.5 235.903,-70.5 241.903,-70.5"/>
<text text-anchor="middle" x="296.798" y="-183.3" font-family="Times,serif" font-size="14.00">Request</text>
<polyline fill="none" stroke="black" points="229.903,-176.5 363.693,-176.5 "/>
<text text-anchor="start" x="237.903" y="-161.3" font-family="Times,serif" font-size="14.00">id :integer</text>
<text text-anchor="start" x="237.903" y="-147.3" font-family="Times,serif" font-size="14.00">status :boolean</text>
<text text-anchor="start" x="237.903" y="-133.3" font-family="Times,serif" font-size="14.00">created_at :datetime</text>
<text text-anchor="start" x="237.903" y="-119.3" font-family="Times,serif" font-size="14.00">updated_at :datetime</text>
<text text-anchor="start" x="237.903" y="-105.3" font-family="Times,serif" font-size="14.00">requested_id :integer</text>
<text text-anchor="start" x="237.903" y="-91.3" font-family="Times,serif" font-size="14.00">requester_id :integer</text>
<text text-anchor="start" x="237.903" y="-77.3" font-family="Times,serif" font-size="14.00">group_id :integer</text>
</g>
<!-- Group&#45;&gt;Request -->
<g id="edge3" class="edge"><title>Group&#45;&gt;Request</title>
<path fill="none" stroke="#f3d241" d="M217.177,-665.99C205.696,-655.703 195.438,-643.676 188.798,-630 128.431,-505.657 152.466,-452.362 188.798,-319 199.775,-278.71 222.094,-238.247 243.608,-205.608"/>
<ellipse fill="none" stroke="#f3d241" cx="220.24" cy="-668.61" rx="4.00002" ry="4.00002"/>
<ellipse fill="#f3d241" stroke="#f3d241" cx="245.959" cy="-202.091" rx="4.00002" ry="4.00002"/>
</g>
<!-- User -->
<g id="node7" class="node"><title>User</title>
<path fill="none" stroke="black" d="M333.186,-319.5C333.186,-319.5 476.411,-319.5 476.411,-319.5 482.411,-319.5 488.411,-325.5 488.411,-331.5 488.411,-331.5 488.411,-617.5 488.411,-617.5 488.411,-623.5 482.411,-629.5 476.411,-629.5 476.411,-629.5 333.186,-629.5 333.186,-629.5 327.186,-629.5 321.186,-623.5 321.186,-617.5 321.186,-617.5 321.186,-331.5 321.186,-331.5 321.186,-325.5 327.186,-319.5 333.186,-319.5"/>
<text text-anchor="middle" x="404.798" y="-614.3" font-family="Times,serif" font-size="14.00">User</text>
<polyline fill="none" stroke="black" points="321.186,-607.5 488.411,-607.5 "/>
<text text-anchor="start" x="329.186" y="-592.3" font-family="Times,serif" font-size="14.00">id :integer</text>
<text text-anchor="start" x="329.186" y="-578.3" font-family="Times,serif" font-size="14.00">fname :string</text>
<text text-anchor="start" x="329.186" y="-564.3" font-family="Times,serif" font-size="14.00">lname :string</text>
<text text-anchor="start" x="329.186" y="-550.3" font-family="Times,serif" font-size="14.00">email :string</text>
<text text-anchor="start" x="329.186" y="-536.3" font-family="Times,serif" font-size="14.00">created_at :datetime</text>
<text text-anchor="start" x="329.186" y="-522.3" font-family="Times,serif" font-size="14.00">updated_at :datetime</text>
<text text-anchor="start" x="329.186" y="-508.3" font-family="Times,serif" font-size="14.00">provider :string</text>
<text text-anchor="start" x="329.186" y="-494.3" font-family="Times,serif" font-size="14.00">uid :string</text>
<text text-anchor="start" x="329.186" y="-480.3" font-family="Times,serif" font-size="14.00">name :string</text>
<text text-anchor="start" x="329.186" y="-466.3" font-family="Times,serif" font-size="14.00">oauth_token :string</text>
<text text-anchor="start" x="329.186" y="-452.3" font-family="Times,serif" font-size="14.00">oauth_expires_at :datetime</text>
<text text-anchor="start" x="329.186" y="-438.3" font-family="Times,serif" font-size="14.00">image :string</text>
<text text-anchor="start" x="329.186" y="-424.3" font-family="Times,serif" font-size="14.00">gender :string</text>
<text text-anchor="start" x="329.186" y="-410.3" font-family="Times,serif" font-size="14.00">location :string</text>
<text text-anchor="start" x="329.186" y="-396.3" font-family="Times,serif" font-size="14.00">description :text</text>
<text text-anchor="start" x="329.186" y="-382.3" font-family="Times,serif" font-size="14.00">fav_books :text</text>
<text text-anchor="start" x="329.186" y="-368.3" font-family="Times,serif" font-size="14.00">fav_genres :text</text>
<text text-anchor="start" x="329.186" y="-354.3" font-family="Times,serif" font-size="14.00">fav_authors :text</text>
<text text-anchor="start" x="329.186" y="-340.3" font-family="Times,serif" font-size="14.00">age :integer</text>
<text text-anchor="start" x="329.186" y="-326.3" font-family="Times,serif" font-size="14.00">zipcode :string</text>
</g>
<!-- Group&#45;&gt;User -->
<g id="edge7" class="edge"><title>Group&#45;&gt;User</title>
<path fill="none" stroke="#9f20eb" d="M315.027,-658.165C317.995,-652.125 321.133,-645.74 324.388,-639.117"/>
<polygon fill="#9f20eb" stroke="#9f20eb" points="314.902,-658.42 306.452,-665.41 312.696,-662.908 310.491,-667.395 310.491,-667.395 310.491,-667.395 312.696,-662.908 314.529,-669.38 314.902,-658.42 314.902,-658.42"/>
<polygon fill="#9f20eb" stroke="#9f20eb" points="324.484,-638.922 332.933,-631.932 326.689,-634.435 328.895,-629.947 328.895,-629.947 328.895,-629.947 326.689,-634.435 324.856,-627.962 324.484,-638.922 324.484,-638.922"/>
</g>
<!-- GroupsUser -->
<g id="node9" class="node"><title>GroupsUser</title>
<ellipse fill="none" stroke="black" cx="250.798" cy="-474.5" rx="52.6865" ry="18"/>
<text text-anchor="middle" x="250.798" y="-470.3" font-family="Times,serif" font-size="14.00">GroupsUser</text>
</g>
<!-- Group&#45;&gt;GroupsUser -->
<g id="edge6" class="edge"><title>Group&#45;&gt;GroupsUser</title>
<path fill="none" stroke="#93a4e0" d="M281.416,-659.204C273.41,-611.169 261.65,-540.609 255.286,-502.428"/>
<ellipse fill="none" stroke="#93a4e0" cx="282.123" cy="-663.45" rx="4.00001" ry="4.00001"/>
<polygon fill="#93a4e0" stroke="#93a4e0" points="255.286,-502.427 258.081,-491.823 254.464,-497.495 253.642,-492.563 253.642,-492.563 253.642,-492.563 254.464,-497.495 249.203,-493.303 255.286,-502.427 255.286,-502.427"/>
</g>
<!-- User&#45;&gt;Genre -->
<g id="edge16" class="edge"><title>User&#45;&gt;Genre</title>
<path fill="none" stroke="#09caa2" d="M494.02,-375.905C540.893,-324.633 597.587,-262.618 641.653,-214.416"/>
<ellipse fill="none" stroke="#09caa2" cx="491.117" cy="-379.08" rx="4.00002" ry="4.00002"/>
<ellipse fill="#09caa2" stroke="#09caa2" cx="644.537" cy="-211.262" rx="4.00002" ry="4.00002"/>
</g>
<!-- User&#45;&gt;Request -->
<g id="edge11" class="edge"><title>User&#45;&gt;Request</title>
<path fill="none" stroke="#bbe1e8" d="M399.844,-311.355C397.362,-302.967 394.375,-294.795 390.798,-287 386.08,-276.717 379.658,-277.997 372.798,-269 358.43,-250.157 344.88,-228.312 333.312,-207.819"/>
<ellipse fill="none" stroke="#bbe1e8" cx="400.921" cy="-315.259" rx="4.00001" ry="4.00001"/>
<polygon fill="#bbe1e8" stroke="#bbe1e8" points="333.17,-207.564 332.243,-196.637 330.74,-203.194 328.31,-198.824 328.31,-198.824 328.31,-198.824 330.74,-203.194 324.377,-201.011 333.17,-207.564 333.17,-207.564"/>
</g>
<!-- User&#45;&gt;Request -->
<g id="edge13" class="edge"><title>User&#45;&gt;Request</title>
<path fill="none" stroke="#f660e8" d="M315.874,-322.865C314.852,-321.564 313.827,-320.276 312.798,-319 305.438,-309.871 298.182,-311.754 293.508,-301 281.161,-272.59 279.795,-238.763 282.351,-209.117"/>
<ellipse fill="none" stroke="#f660e8" cx="318.508" cy="-326.287" rx="4.00002" ry="4.00002"/>
<polygon fill="#f660e8" stroke="#f660e8" points="282.387,-208.769 287.884,-199.281 282.897,-203.796 283.408,-198.822 283.408,-198.822 283.408,-198.822 282.897,-203.796 278.931,-198.362 282.387,-208.769 282.387,-208.769"/>
<text text-anchor="middle" x="339.443" y="-289.8" font-family="Times,serif" font-size="14.00">reverse_requests</text>
</g>
<!-- User&#45;&gt;User -->
<g id="edge12" class="edge"><title>User&#45;&gt;User</title>
<path fill="none" stroke="#426792" d="M498.189,-485.429C503.344,-482.771 506.411,-479.128 506.411,-474.5 506.411,-469.872 503.344,-466.229 498.189,-463.571"/>
<polygon fill="#426792" stroke="#426792" points="497.956,-485.51 487.033,-484.546 493.234,-487.153 488.511,-488.796 488.511,-488.796 488.511,-488.796 493.234,-487.153 489.99,-493.046 497.956,-485.51 497.956,-485.51"/>
<polygon fill="#426792" stroke="#426792" points="497.956,-463.49 489.99,-455.954 493.234,-461.847 488.511,-460.204 488.511,-460.204 488.511,-460.204 493.234,-461.847 487.033,-464.454 497.956,-463.49 497.956,-463.49"/>
<text text-anchor="middle" x="535.956" y="-470.3" font-family="Times,serif" font-size="14.00">requesteds</text>
</g>
<!-- User&#45;&gt;User -->
<g id="edge14" class="edge"><title>User&#45;&gt;User</title>
<path fill="none" stroke="#d91b62" d="M498.994,-507.121C534.657,-507.351 565.5,-496.478 565.5,-474.5 565.5,-452.522 534.657,-441.649 498.994,-441.879"/>
<polygon fill="#d91b62" stroke="#d91b62" points="498.823,-507.115 488.988,-502.265 493.826,-506.939 488.829,-506.762 488.829,-506.762 488.829,-506.762 493.826,-506.939 488.67,-511.259 498.823,-507.115 498.823,-507.115"/>
<polygon fill="#d91b62" stroke="#d91b62" points="498.823,-441.885 488.67,-437.741 493.826,-442.061 488.829,-442.238 488.829,-442.238 488.829,-442.238 493.826,-442.061 488.988,-446.735 498.823,-441.885 498.823,-441.885"/>
<text text-anchor="middle" x="593.876" y="-470.3" font-family="Times,serif" font-size="14.00">requesters</text>
</g>
<!-- UsersGroup -->
<g id="node10" class="node"><title>UsersGroup</title>
<ellipse fill="none" stroke="black" cx="434.798" cy="-134.5" rx="52.6865" ry="18"/>
<text text-anchor="middle" x="434.798" y="-130.3" font-family="Times,serif" font-size="14.00">UsersGroup</text>
</g>
<!-- User&#45;&gt;UsersGroup -->
<g id="edge15" class="edge"><title>User&#45;&gt;UsersGroup</title>
<path fill="none" stroke="#656f0e" d="M419.205,-311.183C424.279,-254.022 429.443,-195.841 432.371,-162.849"/>
<ellipse fill="none" stroke="#656f0e" cx="418.835" cy="-315.352" rx="4" ry="4"/>
<polygon fill="#656f0e" stroke="#656f0e" points="432.391,-162.625 437.757,-153.062 432.833,-157.645 433.275,-152.664 433.275,-152.664 433.275,-152.664 432.833,-157.645 428.793,-152.266 432.391,-162.625 432.391,-162.625"/>
</g>
<!-- ActiveRecord::Base -->
<g id="node8" class="node"><title>ActiveRecord::Base</title>
<ellipse fill="none" stroke="black" cx="608.798" cy="-827.5" rx="81.1422" ry="18"/>
<text text-anchor="middle" x="608.798" y="-823.3" font-family="Times,serif" font-size="14.00">ActiveRecord::Base</text>
</g>
<!-- ActiveRecord::Base&#45;&gt;Book -->
<g id="edge1" class="edge"><title>ActiveRecord::Base&#45;&gt;Book</title>
<path fill="none" stroke="black" d="M575.284,-810.919C558.634,-803.792 538.011,-795.869 518.798,-791 386.434,-757.453 328.087,-828.726 213.798,-754 158.299,-717.713 123.221,-652.761 101.704,-594.707"/>
</g>
<!-- ActiveRecord::Base&#45;&gt;Genre -->
<g id="edge2" class="edge"><title>ActiveRecord::Base&#45;&gt;Genre</title>
<path fill="none" stroke="black" d="M680.634,-818.957C738.781,-811.193 814.003,-796.813 832.798,-773 966.622,-603.45 903.386,-491.14 832.798,-287 821.868,-255.391 801.319,-225.359 780.334,-200.496"/>
</g>
<!-- ActiveRecord::Base&#45;&gt;Group -->
<g id="edge8" class="edge"><title>ActiveRecord::Base&#45;&gt;Group</title>
<path fill="none" stroke="black" d="M571.712,-811.471C555.523,-805.014 536.281,-797.479 518.798,-791 464.44,-770.854 402.277,-749.37 356.447,-733.822"/>
</g>
<!-- ActiveRecord::Base&#45;&gt;Note -->
<g id="edge9" class="edge"><title>ActiveRecord::Base&#45;&gt;Note</title>
<path fill="none" stroke="black" d="M614.501,-809.094C630.454,-760.402 676.132,-620.986 703.122,-538.606"/>
</g>
<!-- ActiveRecord::Base&#45;&gt;Request -->
<g id="edge10" class="edge"><title>ActiveRecord::Base&#45;&gt;Request</title>
<path fill="none" stroke="black" d="M634.249,-810.287C677.99,-780.714 765.979,-713.314 799.798,-630 825.792,-565.964 845.738,-370.633 799.798,-319 736.293,-247.625 452.453,-321.749 372.798,-269 347.783,-252.434 330.076,-224.647 318.086,-198.7"/>
</g>
<!-- ActiveRecord::Base&#45;&gt;User -->
<g id="edge17" class="edge"><title>ActiveRecord::Base&#45;&gt;User</title>
<path fill="none" stroke="black" d="M598.959,-809.571C578.902,-775.062 531.554,-693.594 488.638,-619.753"/>
</g>
</g>
</svg>
