<?xml version="1.0" encoding="UTF-8" standalone="no"?>
<!DOCTYPE svg PUBLIC "-//W3C//DTD SVG 1.1//EN"
 "http://www.w3.org/Graphics/SVG/1.1/DTD/svg11.dtd">
<!-- Generated by graphviz version 2.38.0 (20140413.2041)
 -->
<!-- Title: models_diagram Pages: 1 -->
<svg width="560pt" height="313pt"
 viewBox="0.00 0.00 559.69 313.00" xmlns="http://www.w3.org/2000/svg" xmlns:xlink="http://www.w3.org/1999/xlink">
<g id="graph0" class="graph" transform="scale(1 1) rotate(0) translate(4 309)">
<title>models_diagram</title>
<polygon fill="white" stroke="none" points="-4,4 -4,-309 555.693,-309 555.693,4 -4,4"/>
<!-- _diagram_info -->
<g id="node1" class="node"><title>_diagram_info</title>
<text text-anchor="start" x="8" y="-290.6" font-family="Times,serif" font-size="13.00">Models diagram</text>
<text text-anchor="start" x="8" y="-277.6" font-family="Times,serif" font-size="13.00">Date: Jul 14 2014 &#45; 10:43</text>
<text text-anchor="start" x="8" y="-264.6" font-family="Times,serif" font-size="13.00">Migration version: 20140714143509</text>
<text text-anchor="start" x="8" y="-251.6" font-family="Times,serif" font-size="13.00">Generated by RailRoady 1.1.1</text>
<text text-anchor="start" x="8" y="-238.6" font-family="Times,serif" font-size="13.00">http://railroady.prestonlee.com</text>
</g>
<!-- Book -->
<g id="node2" class="node"><title>Book</title>
<ellipse fill="none" stroke="black" cx="50.6877" cy="-104" rx="29.0429" ry="18"/>
<text text-anchor="middle" x="50.6877" y="-99.8" font-family="Times,serif" font-size="14.00">Book</text>
</g>
<!-- Group -->
<g id="node3" class="node"><title>Group</title>
<ellipse fill="none" stroke="black" cx="238.688" cy="-177" rx="32.9081" ry="18"/>
<text text-anchor="middle" x="238.688" y="-172.8" font-family="Times,serif" font-size="14.00">Group</text>
</g>
<!-- Group&#45;&gt;Book -->
<g id="edge3" class="edge"><title>Group&#45;&gt;Book</title>
<path fill="none" stroke="#ee702e" d="M203.53,-164.18C172.952,-153.701 127.571,-137.671 88.6877,-122 86.2075,-121 83.6504,-119.935 81.0905,-118.843"/>
<ellipse fill="none" stroke="#ee702e" cx="207.573" cy="-165.56" rx="4.00001" ry="4.00001"/>
<ellipse fill="#ee702e" stroke="#ee702e" cx="77.1439" cy="-117.125" rx="4.00002" ry="4.00002"/>
</g>
<!-- Note -->
<g id="node4" class="node"><title>Note</title>
<ellipse fill="none" stroke="black" cx="509.688" cy="-104" rx="27.0958" ry="18"/>
<text text-anchor="middle" x="509.688" y="-99.8" font-family="Times,serif" font-size="14.00">Note</text>
</g>
<!-- Group&#45;&gt;Note -->
<g id="edge4" class="edge"><title>Group&#45;&gt;Note</title>
<path fill="none" stroke="#4b75ef" d="M277.177,-168.207C334.048,-156.515 437.683,-134.474 473.688,-122 475.549,-121.355 477.442,-120.643 479.337,-119.887"/>
<ellipse fill="none" stroke="#4b75ef" cx="273.057" cy="-169.052" rx="4.00001" ry="4.00001"/>
<polygon fill="#4b75ef" stroke="#4b75ef" points="479.506,-119.814 490.47,-119.974 484.095,-117.829 488.684,-115.844 488.684,-115.844 488.684,-115.844 484.095,-117.829 486.898,-111.714 479.506,-119.814 479.506,-119.814"/>
</g>
<!-- Request -->
<g id="node5" class="node"><title>Request</title>
<ellipse fill="none" stroke="black" cx="354.688" cy="-18" rx="38.6955" ry="18"/>
<text text-anchor="middle" x="354.688" y="-13.8" font-family="Times,serif" font-size="14.00">Request</text>
</g>
<!-- Group&#45;&gt;Request -->
<g id="edge2" class="edge"><title>Group&#45;&gt;Request</title>
<path fill="none" stroke="#1900aa" d="M236.595,-150.984C236.202,-131.78 238.4,-105.361 250.688,-86 266.369,-61.2916 294.819,-43.905 318.004,-33.0457"/>
<ellipse fill="none" stroke="#1900aa" cx="236.756" cy="-154.992" rx="4" ry="4"/>
<ellipse fill="#1900aa" stroke="#1900aa" cx="321.676" cy="-31.3913" rx="4.00002" ry="4.00002"/>
</g>
<!-- User -->
<g id="node6" class="node"><title>User</title>
<ellipse fill="none" stroke="black" cx="286.688" cy="-104" rx="27" ry="18"/>
<text text-anchor="middle" x="286.688" y="-99.8" font-family="Times,serif" font-size="14.00">User</text>
</g>
<!-- Group&#45;&gt;User -->
<g id="edge6" class="edge"><title>Group&#45;&gt;User</title>
<path fill="none" stroke="#32d480" d="M255.272,-151.469C260.059,-144.388 265.282,-136.662 270.071,-129.579"/>
<polygon fill="#32d480" stroke="#32d480" points="255.18,-151.605 245.852,-157.369 252.38,-155.747 249.58,-159.889 249.58,-159.889 249.58,-159.889 252.38,-155.747 253.308,-162.409 255.18,-151.605 255.18,-151.605"/>
<polygon fill="#32d480" stroke="#32d480" points="270.238,-129.332 279.567,-123.568 273.039,-125.189 275.839,-121.047 275.839,-121.047 275.839,-121.047 273.039,-125.189 272.111,-118.527 270.238,-129.332 270.238,-129.332"/>
</g>
<!-- GroupsUser -->
<g id="node8" class="node"><title>GroupsUser</title>
<ellipse fill="none" stroke="black" cx="150.688" cy="-104" rx="52.6865" ry="18"/>
<text text-anchor="middle" x="150.688" y="-99.8" font-family="Times,serif" font-size="14.00">GroupsUser</text>
</g>
<!-- Group&#45;&gt;GroupsUser -->
<g id="edge5" class="edge"><title>Group&#45;&gt;GroupsUser</title>
<path fill="none" stroke="#112b74" d="M214.363,-156.375C203.196,-147.364 189.898,-136.636 178.35,-127.319"/>
<ellipse fill="none" stroke="#112b74" cx="217.767" cy="-159.12" rx="4.00002" ry="4.00002"/>
<polygon fill="#112b74" stroke="#112b74" points="178.089,-127.108 173.132,-117.327 174.198,-123.969 170.307,-120.829 170.307,-120.829 170.307,-120.829 174.198,-123.969 167.481,-124.331 178.089,-127.108 178.089,-127.108"/>
</g>
<!-- User&#45;&gt;Request -->
<g id="edge10" class="edge"><title>User&#45;&gt;Request</title>
<path fill="none" stroke="#aba6b2" d="M304.252,-81.3024C313.731,-69.594 325.453,-55.1138 335.21,-43.0608"/>
<ellipse fill="none" stroke="#aba6b2" cx="301.677" cy="-84.4841" rx="4.00002" ry="4.00002"/>
<polygon fill="#aba6b2" stroke="#aba6b2" points="335.307,-42.9405 345.097,-37.9995 338.453,-39.0543 341.599,-35.1681 341.599,-35.1681 341.599,-35.1681 338.453,-39.0543 338.102,-32.3367 335.307,-42.9405 335.307,-42.9405"/>
</g>
<!-- User&#45;&gt;Request -->
<g id="edge12" class="edge"><title>User&#45;&gt;Request</title>
<path fill="none" stroke="#52a1f0" d="M310.313,-84.636C316.036,-79.5877 321.883,-73.8749 326.688,-68 332.484,-60.9135 337.779,-52.4723 342.167,-44.6094"/>
<ellipse fill="none" stroke="#52a1f0" cx="307.254" cy="-87.2379" rx="4.00002" ry="4.00002"/>
<polygon fill="#52a1f0" stroke="#52a1f0" points="342.178,-44.5881 350.849,-37.8748 344.527,-40.1743 346.876,-35.7605 346.876,-35.7605 346.876,-35.7605 344.527,-40.1743 342.904,-33.6462 342.178,-44.5881 342.178,-44.5881"/>
<text text-anchor="middle" x="382.333" y="-56.8" font-family="Times,serif" font-size="14.00">reverse_requests</text>
</g>
<!-- User&#45;&gt;User -->
<g id="edge11" class="edge"><title>User&#45;&gt;User</title>
<path fill="none" stroke="#2f4849" d="M323.631,-106.972C328.477,-106.463 331.688,-105.472 331.688,-104 331.688,-102.528 328.477,-101.537 323.631,-101.028"/>
<polygon fill="#2f4849" stroke="#2f4849" points="323.475,-106.978 313.307,-102.871 318.479,-107.173 313.483,-107.368 313.483,-107.368 313.483,-107.368 318.479,-107.173 313.658,-111.864 323.475,-106.978 323.475,-106.978"/>
<polygon fill="#2f4849" stroke="#2f4849" points="323.475,-101.022 313.658,-96.1358 318.479,-100.827 313.483,-100.632 313.483,-100.632 313.483,-100.632 318.479,-100.827 313.307,-105.129 323.475,-101.022 323.475,-101.022"/>
<text text-anchor="middle" x="361.233" y="-99.8" font-family="Times,serif" font-size="14.00">requesteds</text>
</g>
<!-- User&#45;&gt;User -->
<g id="edge13" class="edge"><title>User&#45;&gt;User</title>
<path fill="none" stroke="#771772" d="M322.744,-109.983C353.638,-112.011 390.778,-110.017 390.778,-104 390.778,-97.9829 353.638,-95.9886 322.744,-98.0172"/>
<polygon fill="#771772" stroke="#771772" points="322.535,-109.966 312.94,-104.656 317.552,-109.553 312.569,-109.141 312.569,-109.141 312.569,-109.141 317.552,-109.553 312.198,-113.625 322.535,-109.966 322.535,-109.966"/>
<polygon fill="#771772" stroke="#771772" points="322.535,-98.0344 312.198,-94.3747 317.552,-98.4469 312.569,-98.8593 312.569,-98.8593 312.569,-98.8593 317.552,-98.4469 312.94,-103.344 322.535,-98.0344 322.535,-98.0344"/>
<text text-anchor="middle" x="419.154" y="-99.8" font-family="Times,serif" font-size="14.00">requesters</text>
</g>
<!-- UsersGroup -->
<g id="node9" class="node"><title>UsersGroup</title>
<ellipse fill="none" stroke="black" cx="245.688" cy="-18" rx="52.6865" ry="18"/>
<text text-anchor="middle" x="245.688" y="-13.8" font-family="Times,serif" font-size="14.00">UsersGroup</text>
</g>
<!-- User&#45;&gt;UsersGroup -->
<g id="edge14" class="edge"><title>User&#45;&gt;UsersGroup</title>
<path fill="none" stroke="#cf3b39" d="M275.029,-79.1136C269.815,-68.431 263.657,-55.8144 258.332,-44.9049"/>
<ellipse fill="none" stroke="#cf3b39" cx="276.833" cy="-82.8096" rx="4.00002" ry="4.00002"/>
<polygon fill="#cf3b39" stroke="#cf3b39" points="258.298,-44.8354 257.956,-33.8749 256.105,-40.3421 253.912,-35.8487 253.912,-35.8487 253.912,-35.8487 256.105,-40.3421 249.868,-37.8226 258.298,-44.8354 258.298,-44.8354"/>
</g>
<!-- ActiveRecord::Base -->
<g id="node7" class="node"><title>ActiveRecord::Base</title>
<ellipse fill="none" stroke="black" cx="306.688" cy="-268.5" rx="81.1422" ry="18"/>
<text text-anchor="middle" x="306.688" y="-264.3" font-family="Times,serif" font-size="14.00">ActiveRecord::Base</text>
</g>
<!-- ActiveRecord::Base&#45;&gt;Book -->
<g id="edge1" class="edge"><title>ActiveRecord::Base&#45;&gt;Book</title>
<path fill="none" stroke="black" d="M281.206,-251.325C230.112,-218.892 116.126,-146.538 70.3109,-117.456"/>
</g>
<!-- ActiveRecord::Base&#45;&gt;Group -->
<g id="edge7" class="edge"><title>ActiveRecord::Base&#45;&gt;Group</title>
<path fill="none" stroke="black" d="M293.897,-250.666C281.509,-234.361 262.866,-209.823 250.736,-193.857"/>
</g>
<!-- ActiveRecord::Base&#45;&gt;Note -->
<g id="edge8" class="edge"><title>ActiveRecord::Base&#45;&gt;Note</title>
<path fill="none" stroke="black" d="M327.27,-251.024C367.488,-218.83 455.805,-148.132 492.83,-118.494"/>
</g>
<!-- ActiveRecord::Base&#45;&gt;Request -->
<g id="edge9" class="edge"><title>ActiveRecord::Base&#45;&gt;Request</title>
<path fill="none" stroke="black" d="M355.654,-254.02C413.315,-235.182 506.228,-194.821 545.688,-122 580.015,-58.6512 456.453,-32.4687 391.752,-23.2766"/>
</g>
<!-- ActiveRecord::Base&#45;&gt;User -->
<g id="edge15" class="edge"><title>ActiveRecord::Base&#45;&gt;User</title>
<path fill="none" stroke="black" d="M304.585,-250.417C300.754,-219.289 292.677,-153.663 288.822,-122.343"/>
</g>
</g>
</svg>
