<?xml version="1.0" encoding="UTF-8" standalone="no"?>
<!DOCTYPE svg PUBLIC "-//W3C//DTD SVG 1.1//EN"
 "http://www.w3.org/Graphics/SVG/1.1/DTD/svg11.dtd">
<!-- Generated by graphviz version 2.38.0 (20140413.2041)
 -->
<!-- Title: models_diagram Pages: 1 -->
<svg width="909pt" height="858pt"
 viewBox="0.00 0.00 909.24 858.00" xmlns="http://www.w3.org/2000/svg" xmlns:xlink="http://www.w3.org/1999/xlink">
<g id="graph0" class="graph" transform="scale(1 1) rotate(0) translate(4 854)">
<title>models_diagram</title>
<polygon fill="white" stroke="none" points="-4,4 -4,-854 905.239,-854 905.239,4 -4,4"/>
<!-- _diagram_info -->
<g id="node1" class="node"><title>_diagram_info</title>
<text text-anchor="start" x="301.818" y="-835.6" font-family="Times,serif" font-size="13.00">Models diagram</text>
<text text-anchor="start" x="301.818" y="-822.6" font-family="Times,serif" font-size="13.00">Date: Jul 18 2014 &#45; 11:19</text>
<text text-anchor="start" x="301.818" y="-809.6" font-family="Times,serif" font-size="13.00">Migration version: 20140718151832</text>
<text text-anchor="start" x="301.818" y="-796.6" font-family="Times,serif" font-size="13.00">Generated by RailRoady 1.1.1</text>
<text text-anchor="start" x="301.818" y="-783.6" font-family="Times,serif" font-size="13.00">http://railroady.prestonlee.com</text>
</g>
<!-- Book -->
<g id="node2" class="node"><title>Book</title>
<path fill="none" stroke="black" d="M12,-396.5C12,-396.5 121.011,-396.5 121.011,-396.5 127.011,-396.5 133.011,-402.5 133.011,-408.5 133.011,-408.5 133.011,-526.5 133.011,-526.5 133.011,-532.5 127.011,-538.5 121.011,-538.5 121.011,-538.5 12,-538.5 12,-538.5 6,-538.5 0,-532.5 0,-526.5 0,-526.5 0,-408.5 0,-408.5 0,-402.5 6,-396.5 12,-396.5"/>
<text text-anchor="middle" x="66.5054" y="-523.3" font-family="Times,serif" font-size="14.00">Book</text>
<polyline fill="none" stroke="black" points="0,-516.5 133.011,-516.5 "/>
<text text-anchor="start" x="8" y="-501.3" font-family="Times,serif" font-size="14.00">id :integer</text>
<text text-anchor="start" x="8" y="-487.3" font-family="Times,serif" font-size="14.00">group_id :integer</text>
<text text-anchor="start" x="8" y="-473.3" font-family="Times,serif" font-size="14.00">created_at :datetime</text>
<text text-anchor="start" x="8" y="-459.3" font-family="Times,serif" font-size="14.00">updated_at :datetime</text>
<text text-anchor="start" x="8" y="-445.3" font-family="Times,serif" font-size="14.00">title :string</text>
<text text-anchor="start" x="8" y="-431.3" font-family="Times,serif" font-size="14.00">isbn :string</text>
<text text-anchor="start" x="8" y="-417.3" font-family="Times,serif" font-size="14.00">summary :text</text>
<text text-anchor="start" x="8" y="-403.3" font-family="Times,serif" font-size="14.00">author :string</text>
</g>
<!-- Genre -->
<g id="node3" class="node"><title>Genre</title>
<path fill="none" stroke="black" d="M651,-0.5C651,-0.5 760.011,-0.5 760.011,-0.5 766.011,-0.5 772.011,-6.5 772.011,-12.5 772.011,-12.5 772.011,-256.5 772.011,-256.5 772.011,-262.5 766.011,-268.5 760.011,-268.5 760.011,-268.5 651,-268.5 651,-268.5 645,-268.5 639,-262.5 639,-256.5 639,-256.5 639,-12.5 639,-12.5 639,-6.5 645,-0.5 651,-0.5"/>
<text text-anchor="middle" x="705.505" y="-253.3" font-family="Times,serif" font-size="14.00">Genre</text>
<polyline fill="none" stroke="black" points="639,-246.5 772.011,-246.5 "/>
<text text-anchor="start" x="647" y="-231.3" font-family="Times,serif" font-size="14.00">id :integer</text>
<text text-anchor="start" x="647" y="-217.3" font-family="Times,serif" font-size="14.00">classic :integer</text>
<text text-anchor="start" x="647" y="-203.3" font-family="Times,serif" font-size="14.00">comedy :integer</text>
<text text-anchor="start" x="647" y="-189.3" font-family="Times,serif" font-size="14.00">comic :integer</text>
<text text-anchor="start" x="647" y="-175.3" font-family="Times,serif" font-size="14.00">educational :integer</text>
<text text-anchor="start" x="647" y="-161.3" font-family="Times,serif" font-size="14.00">historical :integer</text>
<text text-anchor="start" x="647" y="-147.3" font-family="Times,serif" font-size="14.00">memoir :integer</text>
<text text-anchor="start" x="647" y="-133.3" font-family="Times,serif" font-size="14.00">mystery :integer</text>
<text text-anchor="start" x="647" y="-119.3" font-family="Times,serif" font-size="14.00">nonfiction :integer</text>
<text text-anchor="start" x="647" y="-105.3" font-family="Times,serif" font-size="14.00">poetry :integer</text>
<text text-anchor="start" x="647" y="-91.3" font-family="Times,serif" font-size="14.00">pulp :integer</text>
<text text-anchor="start" x="647" y="-77.3" font-family="Times,serif" font-size="14.00">romance :integer</text>
<text text-anchor="start" x="647" y="-63.3" font-family="Times,serif" font-size="14.00">scifi :integer</text>
<text text-anchor="start" x="647" y="-49.3" font-family="Times,serif" font-size="14.00">shortstory :integer</text>
<text text-anchor="start" x="647" y="-35.3" font-family="Times,serif" font-size="14.00">created_at :datetime</text>
<text text-anchor="start" x="647" y="-21.3" font-family="Times,serif" font-size="14.00">updated_at :datetime</text>
<text text-anchor="start" x="647" y="-7.3" font-family="Times,serif" font-size="14.00">user_id :integer</text>
</g>
<!-- Group -->
<g id="node4" class="node"><title>Group</title>
<path fill="none" stroke="black" d="M227,-653.5C227,-653.5 336.011,-653.5 336.011,-653.5 342.011,-653.5 348.011,-659.5 348.011,-665.5 348.011,-665.5 348.011,-727.5 348.011,-727.5 348.011,-733.5 342.011,-739.5 336.011,-739.5 336.011,-739.5 227,-739.5 227,-739.5 221,-739.5 215,-733.5 215,-727.5 215,-727.5 215,-665.5 215,-665.5 215,-659.5 221,-653.5 227,-653.5"/>
<text text-anchor="middle" x="281.505" y="-724.3" font-family="Times,serif" font-size="14.00">Group</text>
<polyline fill="none" stroke="black" points="215,-717.5 348.011,-717.5 "/>
<text text-anchor="start" x="223" y="-702.3" font-family="Times,serif" font-size="14.00">id :integer</text>
<text text-anchor="start" x="223" y="-688.3" font-family="Times,serif" font-size="14.00">created_at :datetime</text>
<text text-anchor="start" x="223" y="-674.3" font-family="Times,serif" font-size="14.00">updated_at :datetime</text>
<text text-anchor="start" x="223" y="-660.3" font-family="Times,serif" font-size="14.00">status :boolean</text>
</g>
<!-- Group&#45;&gt;Book -->
<g id="edge4" class="edge"><title>Group&#45;&gt;Book</title>
<path fill="none" stroke="#502247" d="M207.504,-672.88C186.241,-663.698 164.29,-651.31 147.505,-635 122.533,-610.734 104.192,-577.194 91.3411,-546.572"/>
<ellipse fill="none" stroke="#502247" cx="211.294" cy="-674.458" rx="4.00002" ry="4.00002"/>
<ellipse fill="#502247" stroke="#502247" cx="89.7034" cy="-542.561" rx="4.00001" ry="4.00001"/>
</g>
<!-- Note -->
<g id="node5" class="node"><title>Note</title>
<path fill="none" stroke="black" d="M661,-403.5C661,-403.5 770.011,-403.5 770.011,-403.5 776.011,-403.5 782.011,-409.5 782.011,-415.5 782.011,-415.5 782.011,-519.5 782.011,-519.5 782.011,-525.5 776.011,-531.5 770.011,-531.5 770.011,-531.5 661,-531.5 661,-531.5 655,-531.5 649,-525.5 649,-519.5 649,-519.5 649,-415.5 649,-415.5 649,-409.5 655,-403.5 661,-403.5"/>
<text text-anchor="middle" x="715.505" y="-516.3" font-family="Times,serif" font-size="14.00">Note</text>
<polyline fill="none" stroke="black" points="649,-509.5 782.011,-509.5 "/>
<text text-anchor="start" x="657" y="-494.3" font-family="Times,serif" font-size="14.00">id :integer</text>
<text text-anchor="start" x="657" y="-480.3" font-family="Times,serif" font-size="14.00">group_id :integer</text>
<text text-anchor="start" x="657" y="-466.3" font-family="Times,serif" font-size="14.00">pagenumber :integer</text>
<text text-anchor="start" x="657" y="-452.3" font-family="Times,serif" font-size="14.00">body :text</text>
<text text-anchor="start" x="657" y="-438.3" font-family="Times,serif" font-size="14.00">created_at :datetime</text>
<text text-anchor="start" x="657" y="-424.3" font-family="Times,serif" font-size="14.00">updated_at :datetime</text>
<text text-anchor="start" x="657" y="-410.3" font-family="Times,serif" font-size="14.00">user_id :integer</text>
</g>
<!-- Group&#45;&gt;Note -->
<g id="edge5" class="edge"><title>Group&#45;&gt;Note</title>
<path fill="none" stroke="#0563d9" d="M356.437,-686.519C448.205,-674.243 596.848,-649.824 640.505,-616 664.781,-597.192 681.86,-568.373 693.521,-541.183"/>
<ellipse fill="none" stroke="#0563d9" cx="352.254" cy="-687.073" rx="4.00001" ry="4.00001"/>
<polygon fill="#0563d9" stroke="#0563d9" points="693.634,-540.907 701.587,-533.357 695.528,-536.28 697.422,-531.652 697.422,-531.652 697.422,-531.652 695.528,-536.28 693.257,-529.948 693.634,-540.907 693.634,-540.907"/>
</g>
<!-- Request -->
<g id="node6" class="node"><title>Request</title>
<path fill="none" stroke="black" d="M233.61,-70.5C233.61,-70.5 343.4,-70.5 343.4,-70.5 349.4,-70.5 355.4,-76.5 355.4,-82.5 355.4,-82.5 355.4,-186.5 355.4,-186.5 355.4,-192.5 349.4,-198.5 343.4,-198.5 343.4,-198.5 233.61,-198.5 233.61,-198.5 227.61,-198.5 221.61,-192.5 221.61,-186.5 221.61,-186.5 221.61,-82.5 221.61,-82.5 221.61,-76.5 227.61,-70.5 233.61,-70.5"/>
<text text-anchor="middle" x="288.505" y="-183.3" font-family="Times,serif" font-size="14.00">Request</text>
<polyline fill="none" stroke="black" points="221.61,-176.5 355.4,-176.5 "/>
<text text-anchor="start" x="229.61" y="-161.3" font-family="Times,serif" font-size="14.00">id :integer</text>
<text text-anchor="start" x="229.61" y="-147.3" font-family="Times,serif" font-size="14.00">status :boolean</text>
<text text-anchor="start" x="229.61" y="-133.3" font-family="Times,serif" font-size="14.00">created_at :datetime</text>
<text text-anchor="start" x="229.61" y="-119.3" font-family="Times,serif" font-size="14.00">updated_at :datetime</text>
<text text-anchor="start" x="229.61" y="-105.3" font-family="Times,serif" font-size="14.00">requested_id :integer</text>
<text text-anchor="start" x="229.61" y="-91.3" font-family="Times,serif" font-size="14.00">requester_id :integer</text>
<text text-anchor="start" x="229.61" y="-77.3" font-family="Times,serif" font-size="14.00">group_id :integer</text>
</g>
<!-- Group&#45;&gt;Request -->
<g id="edge3" class="edge"><title>Group&#45;&gt;Request</title>
<path fill="none" stroke="#e14220" d="M208.884,-651.99C197.403,-641.703 187.145,-629.676 180.505,-616 122.855,-497.255 145.808,-446.358 180.505,-319 191.482,-278.71 213.801,-238.247 235.315,-205.608"/>
<ellipse fill="none" stroke="#e14220" cx="211.947" cy="-654.61" rx="4.00002" ry="4.00002"/>
<ellipse fill="#e14220" stroke="#e14220" cx="237.666" cy="-202.091" rx="4.00002" ry="4.00002"/>
</g>
<!-- User -->
<g id="node7" class="node"><title>User</title>
<path fill="none" stroke="black" d="M324.893,-319.5C324.893,-319.5 468.118,-319.5 468.118,-319.5 474.118,-319.5 480.118,-325.5 480.118,-331.5 480.118,-331.5 480.118,-603.5 480.118,-603.5 480.118,-609.5 474.118,-615.5 468.118,-615.5 468.118,-615.5 324.893,-615.5 324.893,-615.5 318.893,-615.5 312.893,-609.5 312.893,-603.5 312.893,-603.5 312.893,-331.5 312.893,-331.5 312.893,-325.5 318.893,-319.5 324.893,-319.5"/>
<text text-anchor="middle" x="396.505" y="-600.3" font-family="Times,serif" font-size="14.00">User</text>
<polyline fill="none" stroke="black" points="312.893,-593.5 480.118,-593.5 "/>
<text text-anchor="start" x="320.893" y="-578.3" font-family="Times,serif" font-size="14.00">id :integer</text>
<text text-anchor="start" x="320.893" y="-564.3" font-family="Times,serif" font-size="14.00">fname :string</text>
<text text-anchor="start" x="320.893" y="-550.3" font-family="Times,serif" font-size="14.00">lname :string</text>
<text text-anchor="start" x="320.893" y="-536.3" font-family="Times,serif" font-size="14.00">email :string</text>
<text text-anchor="start" x="320.893" y="-522.3" font-family="Times,serif" font-size="14.00">created_at :datetime</text>
<text text-anchor="start" x="320.893" y="-508.3" font-family="Times,serif" font-size="14.00">updated_at :datetime</text>
<text text-anchor="start" x="320.893" y="-494.3" font-family="Times,serif" font-size="14.00">provider :string</text>
<text text-anchor="start" x="320.893" y="-480.3" font-family="Times,serif" font-size="14.00">uid :string</text>
<text text-anchor="start" x="320.893" y="-466.3" font-family="Times,serif" font-size="14.00">name :string</text>
<text text-anchor="start" x="320.893" y="-452.3" font-family="Times,serif" font-size="14.00">oauth_token :string</text>
<text text-anchor="start" x="320.893" y="-438.3" font-family="Times,serif" font-size="14.00">oauth_expires_at :datetime</text>
<text text-anchor="start" x="320.893" y="-424.3" font-family="Times,serif" font-size="14.00">image :string</text>
<text text-anchor="start" x="320.893" y="-410.3" font-family="Times,serif" font-size="14.00">gender :string</text>
<text text-anchor="start" x="320.893" y="-396.3" font-family="Times,serif" font-size="14.00">location :string</text>
<text text-anchor="start" x="320.893" y="-382.3" font-family="Times,serif" font-size="14.00">description :text</text>
<text text-anchor="start" x="320.893" y="-368.3" font-family="Times,serif" font-size="14.00">fav_books :text</text>
<text text-anchor="start" x="320.893" y="-354.3" font-family="Times,serif" font-size="14.00">fav_genres :text</text>
<text text-anchor="start" x="320.893" y="-340.3" font-family="Times,serif" font-size="14.00">fav_authors :text</text>
<text text-anchor="start" x="320.893" y="-326.3" font-family="Times,serif" font-size="14.00">age :integer</text>
</g>
<!-- Group&#45;&gt;User -->
<g id="edge7" class="edge"><title>Group&#45;&gt;User</title>
<path fill="none" stroke="#fa4e4d" d="M307.44,-644.308C310.552,-638.164 313.843,-631.668 317.254,-624.935"/>
<polygon fill="#fa4e4d" stroke="#fa4e4d" points="307.386,-644.414 298.852,-651.301 305.126,-648.875 302.866,-653.335 302.866,-653.335 302.866,-653.335 305.126,-648.875 306.881,-655.369 307.386,-644.414 307.386,-644.414"/>
<polygon fill="#fa4e4d" stroke="#fa4e4d" points="317.455,-624.539 325.989,-617.652 319.715,-620.078 321.974,-615.618 321.974,-615.618 321.974,-615.618 319.715,-620.078 317.96,-613.584 317.455,-624.539 317.455,-624.539"/>
</g>
<!-- GroupsUser -->
<g id="node9" class="node"><title>GroupsUser</title>
<ellipse fill="none" stroke="black" cx="242.505" cy="-467.5" rx="52.6865" ry="18"/>
<text text-anchor="middle" x="242.505" y="-463.3" font-family="Times,serif" font-size="14.00">GroupsUser</text>
</g>
<!-- Group&#45;&gt;GroupsUser -->
<g id="edge6" class="edge"><title>Group&#45;&gt;GroupsUser</title>
<path fill="none" stroke="#111115" d="M272.902,-645.425C264.977,-599.298 253.516,-532.587 247.172,-495.662"/>
<ellipse fill="none" stroke="#111115" cx="273.584" cy="-649.393" rx="4.00001" ry="4.00001"/>
<polygon fill="#111115" stroke="#111115" points="247.145,-495.503 249.886,-484.885 246.298,-490.575 245.451,-485.647 245.451,-485.647 245.451,-485.647 246.298,-490.575 241.016,-486.409 247.145,-495.503 247.145,-495.503"/>
</g>
<!-- User&#45;&gt;Genre -->
<g id="edge16" class="edge"><title>User&#45;&gt;Genre</title>
<path fill="none" stroke="#91fd19" d="M485.727,-370.926C532.6,-320.716 589.294,-259.985 633.36,-212.782"/>
<ellipse fill="none" stroke="#91fd19" cx="482.855" cy="-374.003" rx="4.00002" ry="4.00002"/>
<ellipse fill="#91fd19" stroke="#91fd19" cx="636.213" cy="-209.726" rx="4.00002" ry="4.00002"/>
</g>
<!-- User&#45;&gt;Request -->
<g id="edge11" class="edge"><title>User&#45;&gt;Request</title>
<path fill="none" stroke="#bf79f1" d="M391.567,-311.487C389.1,-303.046 386.11,-294.825 382.505,-287 377.772,-276.724 371.365,-277.997 364.505,-269 350.137,-250.157 336.587,-228.312 325.019,-207.819"/>
<ellipse fill="none" stroke="#bf79f1" cx="392.639" cy="-315.436" rx="4.00001" ry="4.00001"/>
<polygon fill="#bf79f1" stroke="#bf79f1" points="324.877,-207.564 323.95,-196.637 322.447,-203.194 320.017,-198.824 320.017,-198.824 320.017,-198.824 322.447,-203.194 316.084,-201.011 324.877,-207.564 324.877,-207.564"/>
</g>
<!-- User&#45;&gt;Request -->
<g id="edge13" class="edge"><title>User&#45;&gt;Request</title>
<path fill="none" stroke="#94e38d" d="M307.626,-322.838C306.589,-321.546 305.548,-320.267 304.505,-319 297.052,-309.948 289.889,-311.754 285.215,-301 272.868,-272.59 271.502,-238.763 274.058,-209.117"/>
<ellipse fill="none" stroke="#94e38d" cx="310.309" cy="-326.243" rx="4.00002" ry="4.00002"/>
<polygon fill="#94e38d" stroke="#94e38d" points="274.094,-208.769 279.591,-199.281 274.604,-203.796 275.115,-198.822 275.115,-198.822 275.115,-198.822 274.604,-203.796 270.638,-198.362 274.094,-208.769 274.094,-208.769"/>
<text text-anchor="middle" x="331.15" y="-289.8" font-family="Times,serif" font-size="14.00">reverse_requests</text>
</g>
<!-- User&#45;&gt;User -->
<g id="edge12" class="edge"><title>User&#45;&gt;User</title>
<path fill="none" stroke="#5a2399" d="M489.896,-477.927C495.051,-475.391 498.118,-471.915 498.118,-467.5 498.118,-463.085 495.051,-459.609 489.896,-457.073"/>
<polygon fill="#5a2399" stroke="#5a2399" points="489.709,-477.989 478.801,-476.868 484.964,-479.564 480.218,-481.139 480.218,-481.139 480.218,-481.139 484.964,-479.564 481.636,-485.41 489.709,-477.989 489.709,-477.989"/>
<polygon fill="#5a2399" stroke="#5a2399" points="489.709,-457.011 481.636,-449.59 484.964,-455.436 480.218,-453.861 480.218,-453.861 480.218,-453.861 484.964,-455.436 478.801,-458.132 489.709,-457.011 489.709,-457.011"/>
<text text-anchor="middle" x="527.663" y="-463.3" font-family="Times,serif" font-size="14.00">requesteds</text>
</g>
<!-- User&#45;&gt;User -->
<g id="edge14" class="edge"><title>User&#45;&gt;User</title>
<path fill="none" stroke="#e3c716" d="M490.701,-498.622C526.364,-498.841 557.208,-488.467 557.208,-467.5 557.208,-446.533 526.364,-436.159 490.701,-436.378"/>
<polygon fill="#e3c716" stroke="#e3c716" points="490.531,-498.616 480.688,-493.781 485.534,-498.447 480.536,-498.279 480.536,-498.279 480.536,-498.279 485.534,-498.447 480.385,-502.776 490.531,-498.616 490.531,-498.616"/>
<polygon fill="#e3c716" stroke="#e3c716" points="490.531,-436.384 480.385,-432.224 485.534,-436.553 480.536,-436.721 480.536,-436.721 480.536,-436.721 485.534,-436.553 480.688,-441.219 490.531,-436.384 490.531,-436.384"/>
<text text-anchor="middle" x="585.583" y="-463.3" font-family="Times,serif" font-size="14.00">requesters</text>
</g>
<!-- UsersGroup -->
<g id="node10" class="node"><title>UsersGroup</title>
<ellipse fill="none" stroke="black" cx="426.505" cy="-134.5" rx="52.6865" ry="18"/>
<text text-anchor="middle" x="426.505" y="-130.3" font-family="Times,serif" font-size="14.00">UsersGroup</text>
</g>
<!-- User&#45;&gt;UsersGroup -->
<g id="edge15" class="edge"><title>User&#45;&gt;UsersGroup</title>
<path fill="none" stroke="#77ae6d" d="M410.572,-311.301C415.715,-254.556 421.005,-196.191 424.011,-163.025"/>
<ellipse fill="none" stroke="#77ae6d" cx="410.2" cy="-315.407" rx="4" ry="4"/>
<polygon fill="#77ae6d" stroke="#77ae6d" points="424.036,-162.742 429.421,-153.189 424.488,-157.763 424.939,-152.783 424.939,-152.783 424.939,-152.783 424.488,-157.763 420.457,-152.377 424.036,-162.742 424.036,-162.742"/>
</g>
<!-- ActiveRecord::Base -->
<g id="node8" class="node"><title>ActiveRecord::Base</title>
<ellipse fill="none" stroke="black" cx="600.505" cy="-813.5" rx="81.1422" ry="18"/>
<text text-anchor="middle" x="600.505" y="-809.3" font-family="Times,serif" font-size="14.00">ActiveRecord::Base</text>
</g>
<!-- ActiveRecord::Base&#45;&gt;Book -->
<g id="edge1" class="edge"><title>ActiveRecord::Base&#45;&gt;Book</title>
<path fill="none" stroke="black" d="M566.991,-796.919C550.341,-789.792 529.718,-781.869 510.505,-777 378.141,-743.453 319.794,-814.726 205.505,-740 136.032,-694.576 99.5231,-602.989 81.6566,-538.8"/>
</g>
<!-- ActiveRecord::Base&#45;&gt;Genre -->
<g id="edge2" class="edge"><title>ActiveRecord::Base&#45;&gt;Genre</title>
<path fill="none" stroke="black" d="M672.341,-804.957C730.488,-797.193 805.71,-782.813 824.505,-759 954.474,-594.334 893.06,-485.26 824.505,-287 813.575,-255.391 793.027,-225.359 772.041,-200.496"/>
</g>
<!-- ActiveRecord::Base&#45;&gt;Group -->
<g id="edge8" class="edge"><title>ActiveRecord::Base&#45;&gt;Group</title>
<path fill="none" stroke="black" d="M563.419,-797.471C547.23,-791.014 527.988,-783.479 510.505,-777 456.147,-756.854 393.984,-735.37 348.154,-719.822"/>
</g>
<!-- ActiveRecord::Base&#45;&gt;Note -->
<g id="edge9" class="edge"><title>ActiveRecord::Base&#45;&gt;Note</title>
<path fill="none" stroke="black" d="M606.208,-795.441C622.071,-747.991 667.321,-612.635 694.368,-531.729"/>
</g>
<!-- ActiveRecord::Base&#45;&gt;Request -->
<g id="edge10" class="edge"><title>ActiveRecord::Base&#45;&gt;Request</title>
<path fill="none" stroke="black" d="M625.956,-796.287C669.697,-766.714 757.686,-699.314 791.505,-616 816.329,-554.846 835.377,-368.308 791.505,-319 728,-247.625 444.16,-321.749 364.505,-269 339.49,-252.434 321.784,-224.647 309.793,-198.7"/>
</g>
<!-- ActiveRecord::Base&#45;&gt;User -->
<g id="edge17" class="edge"><title>ActiveRecord::Base&#45;&gt;User</title>
<path fill="none" stroke="black" d="M590.389,-795.441C570.169,-761.345 523.032,-681.859 480.3,-609.801"/>
</g>
</g>
</svg>
